mtllib part_8.mtl
usemtl part_8

v 0.15 0.655 -0.5
v 0.15920236587524414 0.68 -0.5
v 0.15920236587524414 0.6567552947998047 -0.5
v 0.16368024826049804 0.6590750885009766 -0.5
v 0.15920236587524414 0.6567552947998047 7.105427357601002e-17
v 0.16368024826049804 0.6590750885009766 1.5543122344752193e-17
v 0.16767766952514648 0.6623223114013672 -0.5
v 0.16767766952514648 0.6623223114013672 7.105427357601002e-17
v 0.1709248924255371 0.6663197326660156 -0.5
v 0.1709248924255371 0.6663197326660156 1.5543122344752193e-17
v 0.1732447052001953 0.6707976531982422 -0.5
v 0.1732447052001953 0.6707976531982422 7.105427357601002e-17
v 0.17500000000000002 0.68 -0.5
v 0.17500000000000002 0.68 7.105427357601002e-17
v 0.1732447052001953 0.6892023468017578 -0.5
v 0.1732447052001953 0.6892023468017578 7.105427357601002e-17
v 0.1709248924255371 0.6936802673339844 -0.5
v 0.1709248924255371 0.6936802673339844 1.5543122344752193e-17
v 0.16767766952514648 0.6976776885986328 -0.5
v 0.16767766952514648 0.6976776885986328 7.105427357601002e-17
v 0.16368024826049804 0.7009249114990235 -0.5
v 0.16368024826049804 0.7009249114990235 1.5543122344752193e-17
v 0.15920236587524414 0.7032447052001953 -0.5
v 0.15920236587524414 0.7032447052001953 7.105427357601002e-17
v 0.15 0.705 -0.5
v 0.15 0.705 7.105427357601002e-17
v 0.14079763412475585 0.7032447052001953 -0.5
v 0.14079763412475585 0.7032447052001953 7.105427357601002e-17
v 0.13631975173950195 0.7009249114990235 -0.5
v 0.13631975173950195 0.7009249114990235 1.5543122344752193e-17
v 0.1323223304748535 0.6976776885986328 -0.5
v 0.1323223304748535 0.6976776885986328 7.105427357601002e-17
v 0.1290751075744629 0.6936802673339844 -0.5
v 0.1290751075744629 0.6936802673339844 1.5543122344752193e-17
v 0.12675529479980469 0.6892023468017578 -0.5
v 0.12675529479980469 0.6892023468017578 7.105427357601002e-17
v 0.125 0.68 -0.5
v 0.125 0.68 7.105427357601002e-17
v 0.12675529479980469 0.6707976531982422 -0.5
v 0.12675529479980469 0.6707976531982422 7.105427357601002e-17
v 0.1290751075744629 0.6663197326660156 -0.5
v 0.1290751075744629 0.6663197326660156 1.5543122344752193e-17
v 0.1323223304748535 0.6623223114013672 -0.5
v 0.1323223304748535 0.6623223114013672 7.105427357601002e-17
v 0.13631975173950195 0.6590750885009766 -0.5
v 0.13631975173950195 0.6590750885009766 1.5543122344752193e-17
v 0.14079763412475585 0.6567552947998047 -0.5
v 0.14079763412475585 0.6567552947998047 7.105427357601002e-17
v 0.15 0.655 7.105427357601002e-17
v 0.1511599063873291 0.6685587310791016 7.105427357601002e-17
v 0.13631975173950195 0.6590750885009766 7.105427357601002e-17
v 0.1290751075744629 0.6663197326660156 7.105427357601002e-17
v 0.1709248924255371 0.6663197326660156 7.105427357601002e-17
v 0.16368024826049804 0.6590750885009766 7.105427357601002e-17
v 0.15 0.6892023468017578 7.105427357601002e-17
v 0.1290751075744629 0.6936802673339844 7.105427357601002e-17
v 0.13631975173950195 0.7009249114990235 7.105427357601002e-17
v 0.16368024826049804 0.7009249114990235 7.105427357601002e-17
v 0.1709248924255371 0.6936802673339844 7.105427357601002e-17
v 0.1385586929321289 0.681159896850586 -0.5
vn 5.830637054510886e-16 -3.0567936758750004e-15 -1.0
vn 0.4599980413913727 -0.8879199624061584 -3.97048144145859e-13
vn 0.4599980413913727 -0.8879199624061584 -3.268482760389366e-17
vn 0.6305118799209595 -0.7761795520782471 0.0
vn 0.7761795520782471 -0.6305118799209595 -1.3749633542692229e-17
vn 0.8879199624061584 -0.4599980413913727 -1.7557616568042358e-15
vn 0.9822902679443359 -0.1873655468225479 1.6543428616964567e-17
vn 0.9822902679443359 0.1873655468225479 7.378547100568567e-13
vn 0.8879199624061584 0.4599980413913727 -1.2618101584481543e-16
vn 0.7761795520782471 0.6305118799209595 5.515087767854403e-17
vn 0.6305118799209595 0.7761795520782471 -4.480056519701501e-17
vn 0.4599980413913727 0.8879199624061584 -1.8074565010916394e-15
vn 0.1873655468225479 0.9822902679443359 1.3313122888822483e-17
vn -0.1873655468225479 0.9822902679443359 7.377849416470572e-13
vn -0.4599980413913727 0.8879199624061584 2.0333478532070669e-16
vn -0.6305118799209595 0.7761795520782471 2.2400282598507504e-17
vn -0.7761795520782471 0.6305118799209595 1.5162682525751047e-16
vn -0.8879199624061584 0.4599980413913727 -1.6204640253481223e-15
vn -0.9822902679443359 0.1873655468225479 -6.979591851789327e-17
vn -0.9822902679443359 -0.1873655468225479 7.378529211232721e-13
vn -0.8879199624061584 -0.4599980413913727 -7.220709044648125e-17
vn -0.7761795520782471 -0.6305118799209595 -8.27263132090936e-17
vn -0.6305118799209595 -0.7761795520782471 4.1880673221239984e-16
vn -0.4599980413913727 -0.8879199624061584 -1.3190747737593469e-15
vn -0.1873655468225479 -0.9822902679443359 -1.3313122888822483e-17
vn 0.1873655468225479 -0.9822902679443359 7.380507880197507e-13
vn 0.0 0.0 1.0
vn 0.1873655468225479 -0.9822902679443359 1.3628508658415476e-17
vn 0.0 -0.0 1.0
vn -0.1873655468225479 -0.9822902679443359 3.167146822309185e-15
vn 0.0 -0.0 1.0
vn 0.0 -0.0 1.0
vn -0.6305118799209595 -0.7761795520782471 -6.682727317855886e-17
vn 0.0 -0.0 1.0
vn 0.0 -0.0 1.0
vn -0.8879199624061584 -0.4599980413913727 -3.973717513892916e-13
vn -0.0 0.0 1.0
vn 0.9822902679443359 0.1873655468225479 6.992017428078854e-17
vn -0.0 0.0 1.0
vn -0.0 0.0 1.0
vn 0.9822902679443359 -0.1873655468225479 2.9005021210629523e-15
vn 0.0 0.0 1.0
vn 0.0 0.0 1.0
vn 0.7761795520782471 -0.6305118799209595 0.0
vn 0.0 0.0 1.0
vn 0.0 0.0 1.0
vn 0.8879199624061584 -0.4599980413913727 5.83388449942132e-17
vn 4.497780101787646e-15 -8.579226145824384e-16 -1.0
vn 4.497780101787646e-15 8.57922572230791e-15 -1.0
vn 0.8879199624061584 0.4599980413913727 -3.972050010951633e-13
vn 0.0 0.0 1.0
vn 0.0 0.0 1.0
vn -0.9822902679443359 -0.1873655468225479 -6.992017428078854e-17
vn 0.0 -0.0 1.0
vn -0.9822902679443359 0.1873655468225479 2.867319605354265e-15
vn 0.0 -0.0 1.0
vn -0.0 -0.0 1.0
vn -0.7761795520782471 0.6305118799209595 2.802433983153719e-17
vn -0.0 -0.0 1.0
vn -0.0 -0.0 1.0
vn -0.4599980413913727 0.8879199624061584 -3.9726829139698216e-13
vn -0.0 0.0 1.0
vn -0.1873655468225479 0.9822902679443359 -1.3628508658415476e-17
vn -0.0 0.0 1.0
vn 0.1873655468225479 0.9822902679443359 2.615488451564326e-15
vn -0.0 0.0 1.0
vn -0.0 0.0 1.0
vn 0.6305118799209595 0.7761795520782471 4.527008614758991e-17
vn -0.0 0.0 1.0
vn -0.0 0.0 1.0
vn 0.4599980413913727 0.8879199624061584 -3.3021989730292725e-17
vn 5.830637054510886e-16 3.0567936758750004e-15 -1.0
vn 0.0 0.0 -1.0
vn 0.0 0.0 -1.0
vn -0.0 0.0 -1.0
vn -0.0 0.0 -1.0
vn -0.6305118799209595 0.7761795520782471 1.5413387072781579e-16
vn 1.4938457710959342e-14 5.64009042852069e-15 -1.0
vn -0.8879199624061584 0.4599980413913727 9.906596257343327e-17
vn 0.0 -0.0 -1.0
vn 0.0 -0.0 -1.0
vn -1.9150928740508007e-14 2.1814325587327273e-14 -1.0
vn -0.7761795520782471 -0.6305118799209595 -1.929368073835599e-16
vn 0.0 -0.0 -1.0
vn -0.4599980413913727 -0.8879199624061584 4.881750512931624e-16
vn 0.0 0.0 -1.0
vn 3.109184527135163e-14 -1.029325787744919e-14 -1.0
vn -7.991067219558206e-15 -1.1727979224167469e-14 -1.0
vn -0.0 -0.0 -1.0
vn -7.721303319483709e-15 0.0 -1.0
vn 1.7451462163927713e-14 3.0567936758750004e-15 -1.0
vn -2.5585517862344864e-14 1.2266604934227637e-14 -1.0
vn 1.376027215077829e-14 -6.597162696502217e-15 -1.0
vn 0.7761795520782471 0.6305118799209595 -1.0994164062305188e-16
vn 1.5318145311763766e-14 -7.932095091704467e-15 -1.0
vn -3.985569537704077e-15 -1.3803077807800733e-14 -1.0
vn 1.6871862929110013e-14 4.069532525633607e-15 -1.0
vn 2.349906988425134e-15 -2.892807885528331e-15 -1.0
vn 0.6305118799209595 -0.7761795520782471 -4.419223010476391e-17
vn 1.5836101512086797e-15 -3.0567936758750004e-15 -1.0
f 1//1 2//1 3//1
f 3//2 4//2 5//2
f 5//3 4//3 6//3
f 6//4 7//4 8//4
f 8//5 9//5 10//5
f 10//6 11//6 12//6
f 12//7 13//7 14//7
f 14//8 15//8 16//8
f 16//9 17//9 18//9
f 18//10 19//10 20//10
f 20//11 21//11 22//11
f 22//12 23//12 24//12
f 24//13 25//13 26//13
f 26//14 27//14 28//14
f 28//15 29//15 30//15
f 30//16 31//16 32//16
f 32//17 33//17 34//17
f 34//18 35//18 36//18
f 36//19 37//19 38//19
f 38//20 39//20 40//20
f 40//21 41//21 42//21
f 42//22 43//22 44//22
f 44//23 45//23 46//23
f 46//24 47//24 48//24
f 48//25 1//25 49//25
f 49//26 3//26 5//26
f 5//27 50//27 49//27
f 1//28 3//28 49//28
f 49//29 50//29 48//29
f 47//30 1//30 48//30
f 48//31 50//31 51//31
f 51//32 50//32 44//32
f 43//33 45//33 44//33
f 44//34 50//34 52//34
f 52//35 50//35 40//35
f 39//36 41//36 40//36
f 38//37 40//37 14//37
f 13//38 15//38 14//38
f 40//39 50//39 14//39
f 14//40 50//40 12//40
f 11//41 13//41 12//41
f 12//42 50//42 53//42
f 53//43 50//43 8//43
f 7//44 9//44 8//44
f 8//45 50//45 54//45
f 54//46 50//46 5//46
f 9//47 11//47 10//47
f 11//48 2//48 13//48
f 13//49 2//49 15//49
f 15//50 17//50 16//50
f 16//51 55//51 14//51
f 14//52 55//52 38//52
f 37//53 39//53 38//53
f 38//54 55//54 36//54
f 35//55 37//55 36//55
f 36//56 55//56 56//56
f 56//57 55//57 32//57
f 31//58 33//58 32//58
f 32//59 55//59 57//59
f 57//60 55//60 28//60
f 27//61 29//61 28//61
f 28//62 55//62 26//62
f 25//63 27//63 26//63
f 26//64 55//64 24//64
f 23//65 25//65 24//65
f 24//66 55//66 58//66
f 58//67 55//67 20//67
f 19//68 21//68 20//68
f 20//69 55//69 59//69
f 59//70 55//70 16//70
f 21//71 23//71 22//71
f 23//72 2//72 25//72
f 1//73 47//73 25//73
f 47//74 60//74 25//74
f 25//75 60//75 27//75
f 27//76 60//76 29//76
f 29//77 31//77 30//77
f 31//78 60//78 33//78
f 33//79 35//79 34//79
f 35//80 60//80 37//80
f 37//81 60//81 39//81
f 39//82 60//82 41//82
f 41//83 43//83 42//83
f 43//84 60//84 45//84
f 45//85 47//85 46//85
f 45//86 60//86 47//86
f 41//87 60//87 43//87
f 33//88 60//88 35//88
f 29//89 60//89 31//89
f 25//90 2//90 1//90
f 21//91 2//91 23//91
f 19//92 2//92 21//92
f 17//93 2//93 19//93
f 17//94 19//94 18//94
f 15//95 2//95 17//95
f 9//96 2//96 11//96
f 7//97 2//97 9//97
f 4//98 2//98 7//98
f 4//99 7//99 6//99
f 3//100 2//100 4//100
