v 0.5424942779541015 0.6763200378417968 0.2
v 0.5461335372924805 0.6563200378417969 0.2
v 0.5461335372924805 0.6759861755371094 0.2
v 0.5498561859130859 0.674915771484375 0.2
v 0.5461335372924805 0.6759861755371094 0.1
v 0.5498561859130859 0.674915771484375 0.1
v 0.5516801834106445 0.674085693359375 0.2
v 0.5516801834106445 0.674085693359375 0.1
v 0.5534384536743164 0.6730599212646484 0.2
v 0.5534384536743164 0.6730599212646484 0.1
v 0.5551002502441407 0.6718470764160156 0.2
v 0.5551002502441407 0.6718470764160156 0.1
v 0.5566364288330078 0.6704621887207032 0.2
v 0.5566364288330078 0.6704621887207032 0.1
v 0.558021354675293 0.668926010131836 0.2
v 0.558021354675293 0.668926010131836 0.1
v 0.5592341995239258 0.6672642517089844 0.2
v 0.5592341995239258 0.6672642517089844 0.1
v 0.5602599716186524 0.6655059051513672 0.2
v 0.5602599716186524 0.6655059051513672 0.1
v 0.5610900497436524 0.6636819458007812 0.2
v 0.5610900497436524 0.6636819458007812 0.1
v 0.5621603775024414 0.6599593353271485 0.2
v 0.5621603775024414 0.6599593353271485 0.1
v 0.5624942779541016 0.6563200378417969 0.2
v 0.5624942779541016 0.6563200378417969 0.1
v 0.5621603775024414 0.6526807403564453 0.2
v 0.5621603775024414 0.6526807403564453 0.1
v 0.5610900497436524 0.6489581298828125 0.2
v 0.5610900497436524 0.6489581298828125 0.1
v 0.5602599716186524 0.6471341705322265 0.2
v 0.5602599716186524 0.6471341705322265 0.1
v 0.5592341995239258 0.6453758239746094 0.2
v 0.5592341995239258 0.6453758239746094 0.1
v 0.558021354675293 0.6437140655517578 0.2
v 0.558021354675293 0.6437140655517578 0.1
v 0.5566364288330078 0.6421778869628907 0.2
v 0.5566364288330078 0.6421778869628907 0.1
v 0.5551002502441407 0.6407929992675782 0.2
v 0.5551002502441407 0.6407929992675782 0.1
v 0.5534384536743164 0.6395801162719726 0.2
v 0.5534384536743164 0.6395801162719726 0.1
v 0.5516801834106445 0.6385543441772461 0.2
v 0.5516801834106445 0.6385543441772461 0.1
v 0.5498561859130859 0.6377242660522461 0.2
v 0.5498561859130859 0.6377242660522461 0.1
v 0.5461335372924805 0.6366539382934571 0.2
v 0.5461335372924805 0.6366539382934571 0.1
v 0.5424942779541015 0.6363200378417969 0.2
v 0.5424942779541015 0.6363200378417969 0.1
v 0.5388550186157227 0.6366539382934571 0.2
v 0.5388550186157227 0.6366539382934571 0.1
v 0.5351323699951172 0.6377242660522461 0.2
v 0.5351323699951172 0.6377242660522461 0.1
v 0.5333083724975586 0.6385543441772461 0.2
v 0.5333083724975586 0.6385543441772461 0.1
v 0.5315500640869141 0.6395801162719726 0.2
v 0.5315500640869141 0.6395801162719726 0.1
v 0.5298883056640625 0.6407929992675782 0.2
v 0.5298883056640625 0.6407929992675782 0.1
v 0.5283521270751953 0.6421778869628907 0.2
v 0.5283521270751953 0.6421778869628907 0.1
v 0.5269672012329102 0.6437140655517578 0.2
v 0.5269672012329102 0.6437140655517578 0.1
v 0.5257543563842774 0.6453758239746094 0.2
v 0.5257543563842774 0.6453758239746094 0.1
v 0.5247285842895508 0.6471341705322265 0.2
v 0.5247285842895508 0.6471341705322265 0.1
v 0.5238985061645508 0.6489581298828125 0.2
v 0.5238985061645508 0.6489581298828125 0.1
v 0.5228281784057617 0.6526807403564453 0.2
v 0.5228281784057617 0.6526807403564453 0.1
v 0.5224942779541015 0.6563200378417969 0.2
v 0.5224942779541015 0.6563200378417969 0.1
v 0.5228281784057617 0.6599593353271485 0.2
v 0.5228281784057617 0.6599593353271485 0.1
v 0.5238985061645508 0.6636819458007812 0.2
v 0.5238985061645508 0.6636819458007812 0.1
v 0.5247285842895508 0.6655059051513672 0.2
v 0.5247285842895508 0.6655059051513672 0.1
v 0.5257543563842774 0.6672642517089844 0.2
v 0.5257543563842774 0.6672642517089844 0.1
v 0.5269672012329102 0.668926010131836 0.2
v 0.5269672012329102 0.668926010131836 0.1
v 0.5283521270751953 0.6704621887207032 0.2
v 0.5283521270751953 0.6704621887207032 0.1
v 0.5298883056640625 0.6718470764160156 0.2
v 0.5298883056640625 0.6718470764160156 0.1
v 0.5315500640869141 0.6730599212646484 0.2
v 0.5315500640869141 0.6730599212646484 0.1
v 0.5333083724975586 0.674085693359375 0.2
v 0.5333083724975586 0.674085693359375 0.1
v 0.5351323699951172 0.674915771484375 0.2
v 0.5351323699951172 0.674915771484375 0.1
v 0.5388550186157227 0.6759861755371094 0.2
v 0.5388550186157227 0.6759861755371094 0.1
v 0.5424942779541015 0.6763200378417968 0.1
v 0.5430294418334961 0.6618206024169923 0.1
v 0.5424942779541015 0.6526807403564453 0.1
v 0.5369937133789062 0.6557848358154297 0.2
vn -0.0 -0.0 1.0
vn 0.276327520608902 0.9610635042190552 5.893699716225153e-16
vn 0.276327520608902 0.9610635042190552 -6.733680690677087e-15
vn 0.4142148196697235 0.9101791381835938 1.5877596597381602e-15
vn 0.5039051175117493 0.8637589812278748 3.580461207603131e-16
vn 0.5895342230796814 0.8077434301376343 -8.377784770308367e-16
vn 0.6695982217788696 0.7427235245704651 1.0554736736508355e-15
vn 0.7427235245704651 0.6695982217788696 -5.277368368254178e-16
vn 0.8077434301376343 0.5895342230796814 5.739362372301539e-16
vn 0.8637589812278748 0.5039051175117493 -5.113831187732198e-16
vn 0.9101791381835938 0.4142148196697235 -2.7922220877671725e-15
vn 0.9610635042190552 0.276327520608902 6.84222982634021e-14
vn 0.9958176016807556 0.09136364609003067 0.0
vn 0.9958176016807556 -0.09136364609003067 0.0
vn 0.9610635042190552 -0.276327520608902 -5.4617764405965035e-15
vn 0.9101791381835938 -0.4142148196697235 7.0480769802039e-16
vn 0.8637589812278748 -0.5039051175117493 6.13737680146923e-16
vn 0.8077434301376343 -0.5895342230796814 1.1478724744603077e-15
vn 0.7427235245704651 -0.6695982217788696 -5.277368368254178e-16
vn 0.6695982217788696 -0.7427235245704651 6.836128690372784e-16
vn 0.5895342230796814 -0.8077434301376343 5.276845325409248e-16
vn 0.5039051175117493 -0.8637589812278748 -7.670746781598297e-16
vn 0.4142148196697235 -0.9101791381835938 -2.614077718190674e-15
vn 0.276327520608902 -0.9610635042190552 7.007824767528426e-14
vn 0.09136364609003067 -0.9958176016807556 0.0
vn -0.09136364609003067 -0.9958176016807556 1.3502240927572686e-15
vn -0.276327520608902 -0.9610635042190552 -7.510406515177492e-15
vn -0.4142148196697235 -0.9101791381835938 -9.9912501859298e-16
vn -0.5039051175117493 -0.8637589812278748 -1.6878760953674215e-15
vn -0.5895342230796814 -0.8077434301376343 -1.566761712975726e-15
vn -0.6695982217788696 -0.7427235245704651 9.51556283549889e-16
vn -0.7427235245704651 -0.6695982217788696 9.51556283549889e-16
vn -0.8077434301376343 -0.5895342230796814 8.377784770308367e-16
vn -0.8637589812278748 -0.5039051175117493 6.13737680146923e-16
vn -0.9101791381835938 -0.4142148196697235 -3.4389431779406187e-15
vn -0.9610635042190552 -0.276327520608902 6.763692931470791e-14
vn -0.9958176016807556 -0.09136364609003067 -0.0
vn -0.9958176016807556 0.09136364609003067 -1.298355527306339e-16
vn -0.9610635042190552 0.276327520608902 -7.80059830884092e-15
vn -0.9101791381835938 0.4142148196697235 1.2934423921051293e-15
vn -0.8637589812278748 0.5039051175117493 8.184468028943294e-16
vn -0.8077434301376343 0.5895342230796814 -5.276845325409248e-16
vn -0.7427235245704651 0.6695982217788696 5.277368368254178e-16
vn -0.6695982217788696 0.7427235245704651 9.51556283549889e-16
vn -0.5895342230796814 0.8077434301376343 3.1009394448991185e-16
vn -0.5039051175117493 0.8637589812278748 3.580461207603131e-16
vn -0.4142148196697235 0.9101791381835938 -3.849433555388419e-15
vn -0.276327520608902 0.9610635042190552 6.79357693147628e-14
vn -0.09136364609003067 0.9958176016807556 0.0
vn 0.09136364609003067 0.9958176016807556 1.9475332247850596e-16
vn 4.8976774851970835e-15 1.8077226282557548e-16 -1.0
vn 0.09136364609003067 0.9958176016807556 0.0
vn -4.8646186362986954e-15 -1.7955207216038626e-16 -1.0
vn -0.09136364609003067 0.9958176016807556 -6.522326488579352e-14
vn 8.465699590453311e-15 3.74875140762951e-15 -1.0
vn -0.276327520608902 0.9610635042190552 4.97471259065102e-15
vn -7.157227657490339e-15 -5.6726681627050374e-15 -1.0
vn -0.4142148196697235 0.9101791381835938 2.943145677155115e-16
vn -0.0 -0.0 -1.0
vn -0.5039051175117493 0.8637589812278748 5.1130535056075e-16
vn -0.0 -0.0 -1.0
vn -0.5895342230796814 0.8077434301376343 8.364598584901985e-16
vn 5.300472568319078e-15 6.947021185036133e-15 -1.0
vn -0.6695982217788696 0.7427235245704651 4.747158565799692e-16
vn -8.104399380867884e-15 -1.582056459849355e-14 -1.0
vn -0.7427235245704651 0.6695982217788696 -8.471078037910139e-16
vn -8.360064841051807e-16 6.101620893787666e-16 -1.0
vn -0.8077434301376343 0.5895342230796814 1.1029128126529967e-15
vn 4.5096813382130424e-15 1.7574466594462088e-14 -1.0
vn -0.8637589812278748 0.5039051175117493 1.2271328413458e-15
vn -9.073483634832662e-16 -9.32588441827963e-15 -1.0
vn -0.9101791381835938 0.4142148196697235 1.4984074246817249e-15
vn -4.516289677509284e-16 -4.641921816004278e-15 -1.0
vn -0.9610635042190552 0.276327520608902 -3.9231617383371563e-16
vn -1.1791963492872643e-27 4.881092156573371e-15 -1.0
vn 0.9958176016807556 -0.09136364609003067 0.0
vn -6.631191715762567e-16 -2.346572007953557e-15 -1.0
vn 0.0 0.0 -1.0
vn 0.9958176016807556 0.09136364609003067 -6.45805566142077e-14
vn 0.0 0.0 -1.0
vn 0.9610635042190552 0.276327520608902 6.434701777218842e-15
vn -9.587122296465301e-16 9.302508850034252e-15 -1.0
vn 0.9101791381835938 0.4142148196697235 -7.046237330521582e-16
vn 2.837655876266709e-15 -8.44722749593959e-15 -1.0
vn 0.8637589812278748 0.5039051175117493 6.135664206729e-16
vn -0.0 0.0 -1.0
vn 0.8077434301376343 0.5895342230796814 -5.733797365838078e-16
vn -0.0 0.0 -1.0
vn 0.7427235245704651 0.6695982217788696 9.527865989057758e-16
vn -0.0 0.0 -1.0
vn 0.6695982217788696 0.7427235245704651 -9.527865989057758e-16
vn -0.0 0.0 -1.0
vn 0.5895342230796814 0.8077434301376343 4.1822992924509927e-16
vn -0.0 0.0 -1.0
vn 0.5039051175117493 0.8637589812278748 1.5867509493770987e-15
vn -0.0 0.0 -1.0
vn 0.4142148196697235 0.9101791381835938 1.9667139417684984e-15
vn -4.149766874529323e-15 2.1633373938805336e-15 -1.0
vn 1.6105309970306132e-14 -7.028008122705485e-15 1.0
vn -0.0 0.0 1.0
vn -0.0 0.0 1.0
vn -0.0 0.0 1.0
vn -0.0 0.0 1.0
vn -0.0 0.0 1.0
vn -0.0 0.0 1.0
vn -0.0 0.0 1.0
vn -0.0 0.0 1.0
vn -2.374227501984286e-27 9.762184313146741e-15 1.0
vn 0.9610635042190552 -0.276327520608902 0.0
vn -0.0 0.0 -1.0
vn -0.0 0.0 -1.0
vn -0.9958176016807556 0.09136364609003067 0.0
vn -9.032579355018567e-16 -4.963963742550363e-15 -1.0
vn -0.9958176016807556 -0.09136364609003067 -6.48406770441777e-14
vn -9.032579355018567e-16 4.512067853541931e-15 -1.0
vn -0.9610635042190552 -0.276327520608902 5.752179145463799e-15
vn 1.7868009673981328e-15 -8.9256528803725e-15 -1.0
vn -0.9101791381835938 -0.4142148196697235 6.466264342415906e-16
vn -3.5140040613527426e-15 8.052654985153066e-15 -1.0
vn -0.8637589812278748 -0.5039051175117493 7.1582749078505e-16
vn 0.0 -0.0 -1.0
vn -0.8077434301376343 -0.5895342230796814 8.381462481486226e-16
vn 4.391465184929496e-15 -7.604419549026194e-15 -1.0
vn -0.7427235245704651 -0.6695982217788696 1.0551105082747003e-15
vn -5.911796151626767e-15 6.2689365824082285e-15 -1.0
vn -0.6695982217788696 -0.7427235245704651 -1.531503754788029e-15
vn 6.025871160831187e-15 -6.38990305167151e-15 -1.0
vn -0.5895342230796814 -0.8077434301376343 -1.831442356575513e-15
vn -7.324204956448473e-15 4.762661703954169e-15 -1.0
vn -0.5039051175117493 -0.8637589812278748 -8.692190694834954e-16
vn 0.0 -0.0 -1.0
vn -0.4142148196697235 -0.9101791381835938 1.5572703911643864e-15
vn 0.0 -0.0 -1.0
vn -0.276327520608902 -0.9610635042190552 1.1697828874651715e-15
vn 0.0 0.0 -1.0
vn -0.09136364609003067 -0.9958176016807556 0.0
vn 0.0 0.0 -1.0
vn 0.09136364609003067 -0.9958176016807556 -6.25878675600787e-14
vn 0.0 0.0 -1.0
vn 0.276327520608902 -0.9610635042190552 6.049551237421102e-15
vn 7.956510816409072e-15 3.916355510968613e-15 -1.0
vn 0.4142148196697235 -0.9101791381835938 -1.057801214310772e-15
vn -6.792368215460549e-15 -5.6742991246449756e-15 -1.0
vn 0.5039051175117493 -0.8637589812278748 2.045221402243e-16
vn 0.0 0.0 -1.0
vn 0.5895342230796814 -0.8077434301376343 1.0388291585999333e-15
vn 5.911796151626767e-15 6.2689365824082285e-15 -1.0
vn 0.6695982217788696 -0.7427235245704651 -4.747158565799692e-16
vn 7.523447222675182e-16 -6.782721145466033e-16 -1.0
vn 0.7427235245704651 -0.6695982217788696 1.0551105082747003e-15
vn 8.048214309047967e-16 -5.874015729322147e-16 -1.0
vn 0.8077434301376343 -0.5895342230796814 5.733797365838078e-16
vn -2.6681806771471214e-15 -8.5460965696749e-15 -1.0
vn 0.8637589812278748 -0.5039051175117493 5.1130535056075e-16
vn 0.0 0.0 -1.0
vn 0.9101791381835938 -0.4142148196697235 3.4962841320961826e-15
vn 0.0 0.0 -1.0
vn 0.0 0.0 1.0
vn 0.0 0.0 1.0
vn 0.0 0.0 1.0
vn 0.0 0.0 1.0
vn 0.0 0.0 1.0
vn 0.0 0.0 1.0
vn 0.0 0.0 1.0
vn 0.0 0.0 1.0
vn 0.0 0.0 1.0
vn 9.762184313146741e-15 2.3583926985745287e-27 1.0
vn 4.87070837967298e-15 -4.487800253723977e-16 1.0
vn 9.850110568236474e-15 9.583521347648286e-16 1.0
vn -9.818205378212246e-15 -9.552479707713784e-16 1.0
vn -8.551081887965084e-16 -1.878980598432503e-15 1.0
vn -1.069429282610679e-15 -1.8331410811512315e-15 1.0
vn -1.2850569776855485e-15 -1.7607057881173591e-15 1.0
vn -1.4968557662014734e-15 -1.6603240194173704e-15 1.0
vn -1.6991442805438638e-15 -1.5318538970326002e-15 1.0
vn -1.886090169475282e-15 -1.3765691467574823e-15 1.0
vn 1.009662341390884e-14 -1.431512108287722e-14 1.0
vn -2.0799378522675174e-14 2.948962146524792e-14 1.0
vn 3.934651422629306e-15 -1.795579913325008e-14 1.0
vn -2.09702614905531e-15 9.569787555441505e-15 1.0
vn -2.8010797230548475e-15 -9.505192822883892e-15 1.0
vn 2.5927039005578956e-15 8.798088871483055e-15 1.0
vn -1.1345336325410075e-14 -1.4314455314980677e-14 1.0
vn 1.0950875622972589e-14 1.3816762472096573e-14 1.0
vn -1.8109841815587167e-15 1.3217527743012098e-15 1.0
vn -1.624186735151305e-15 1.4642763379512313e-15 1.0
vn -1.425547979899515e-15 1.581228929835711e-15 1.0
vn -1.2203241787575331e-15 1.6720129682103613e-15 1.0
vn -1.013458192489062e-15 1.737199247402513e-15 1.0
vn 1.70331786598487e-14 5.371321368642743e-15 1.0
vn -1.96065155755841e-14 1.8065158710037135e-15 1.0
vn 0.0 -0.0 1.0
vn 0.0 0.0 1.0
vn -4.115135932480831e-15 -8.360355796869189e-15 1.0
vn -1.7851305760745e-14 3.5736019347962656e-15 1.0
vn -0.0 0.0 1.0
f 1//1 2//1 3//1
f 3//2 4//2 5//2
f 5//3 4//3 6//3
f 6//4 7//4 8//4
f 8//5 9//5 10//5
f 10//6 11//6 12//6
f 12//7 13//7 14//7
f 14//8 15//8 16//8
f 16//9 17//9 18//9
f 18//10 19//10 20//10
f 20//11 21//11 22//11
f 22//12 23//12 24//12
f 24//13 25//13 26//13
f 26//14 27//14 28//14
f 28//15 29//15 30//15
f 30//16 31//16 32//16
f 32//17 33//17 34//17
f 34//18 35//18 36//18
f 36//19 37//19 38//19
f 38//20 39//20 40//20
f 40//21 41//21 42//21
f 42//22 43//22 44//22
f 44//23 45//23 46//23
f 46//24 47//24 48//24
f 48//25 49//25 50//25
f 50//26 51//26 52//26
f 52//27 53//27 54//27
f 54//28 55//28 56//28
f 56//29 57//29 58//29
f 58//30 59//30 60//30
f 60//31 61//31 62//31
f 62//32 63//32 64//32
f 64//33 65//33 66//33
f 66//34 67//34 68//34
f 68//35 69//35 70//35
f 70//36 71//36 72//36
f 72//37 73//37 74//37
f 74//38 75//38 76//38
f 76//39 77//39 78//39
f 78//40 79//40 80//40
f 80//41 81//41 82//41
f 82//42 83//42 84//42
f 84//43 85//43 86//43
f 86//44 87//44 88//44
f 88//45 89//45 90//45
f 90//46 91//46 92//46
f 92//47 93//47 94//47
f 94//48 95//48 96//48
f 96//49 1//49 97//49
f 97//50 3//50 5//50
f 5//51 98//51 97//51
f 1//52 3//52 97//52
f 97//53 98//53 96//53
f 95//54 1//54 96//54
f 96//55 98//55 94//55
f 93//56 95//56 94//56
f 94//57 98//57 92//57
f 91//58 93//58 92//58
f 92//59 98//59 90//59
f 89//60 91//60 90//60
f 90//61 98//61 88//61
f 87//62 89//62 88//62
f 88//63 98//63 86//63
f 85//64 87//64 86//64
f 86//65 98//65 84//65
f 83//66 85//66 84//66
f 84//67 98//67 82//67
f 81//68 83//68 82//68
f 82//69 98//69 80//69
f 79//70 81//70 80//70
f 80//71 98//71 78//71
f 77//72 79//72 78//72
f 78//73 98//73 76//73
f 75//74 77//74 76//74
f 74//75 76//75 26//75
f 25//76 27//76 26//76
f 76//77 98//77 26//77
f 26//78 98//78 24//78
f 23//79 25//79 24//79
f 24//80 98//80 22//80
f 21//81 23//81 22//81
f 22//82 98//82 20//82
f 19//83 21//83 20//83
f 20//84 98//84 18//84
f 17//85 19//85 18//85
f 18//86 98//86 16//86
f 15//87 17//87 16//87
f 16//88 98//88 14//88
f 13//89 15//89 14//89
f 14//90 98//90 12//90
f 11//91 13//91 12//91
f 12//92 98//92 10//92
f 9//93 11//93 10//93
f 10//94 98//94 8//94
f 7//95 9//95 8//95
f 8//96 98//96 6//96
f 4//97 7//97 6//97
f 6//98 98//98 5//98
f 7//99 2//99 9//99
f 9//100 2//100 11//100
f 11//101 2//101 13//101
f 13//102 2//102 15//102
f 15//103 2//103 17//103
f 17//104 2//104 19//104
f 19//105 2//105 21//105
f 21//106 2//106 23//106
f 23//107 2//107 25//107
f 25//108 2//108 27//108
f 27//109 29//109 28//109
f 28//110 99//110 26//110
f 26//111 99//111 74//111
f 73//112 75//112 74//112
f 74//113 99//113 72//113
f 71//114 73//114 72//114
f 72//115 99//115 70//115
f 69//116 71//116 70//116
f 70//117 99//117 68//117
f 67//118 69//118 68//118
f 68//119 99//119 66//119
f 65//120 67//120 66//120
f 66//121 99//121 64//121
f 63//122 65//122 64//122
f 64//123 99//123 62//123
f 61//124 63//124 62//124
f 62//125 99//125 60//125
f 59//126 61//126 60//126
f 60//127 99//127 58//127
f 57//128 59//128 58//128
f 58//129 99//129 56//129
f 55//130 57//130 56//130
f 56//131 99//131 54//131
f 53//132 55//132 54//132
f 54//133 99//133 52//133
f 51//134 53//134 52//134
f 52//135 99//135 50//135
f 49//136 51//136 50//136
f 50//137 99//137 48//137
f 47//138 49//138 48//138
f 48//139 99//139 46//139
f 45//140 47//140 46//140
f 46//141 99//141 44//141
f 43//142 45//142 44//142
f 44//143 99//143 42//143
f 41//144 43//144 42//144
f 42//145 99//145 40//145
f 39//146 41//146 40//146
f 40//147 99//147 38//147
f 37//148 39//148 38//148
f 38//149 99//149 36//149
f 35//150 37//150 36//150
f 36//151 99//151 34//151
f 33//152 35//152 34//152
f 34//153 99//153 32//153
f 31//154 33//154 32//154
f 32//155 99//155 30//155
f 29//156 31//156 30//156
f 30//157 99//157 28//157
f 31//158 2//158 33//158
f 33//159 2//159 35//159
f 35//160 2//160 37//160
f 37//161 2//161 39//161
f 39//162 2//162 41//162
f 41//163 2//163 43//163
f 43//164 2//164 45//164
f 45//165 2//165 47//165
f 47//166 2//166 49//166
f 1//167 95//167 49//167
f 95//168 100//168 49//168
f 49//169 100//169 51//169
f 51//170 100//170 53//170
f 53//171 100//171 55//171
f 55//172 100//172 57//172
f 57//173 100//173 59//173
f 59//174 100//174 61//174
f 61//175 100//175 63//175
f 63//176 100//176 65//176
f 65//177 100//177 67//177
f 67//178 100//178 69//178
f 69//179 100//179 71//179
f 71//180 100//180 73//180
f 73//181 100//181 75//181
f 75//182 100//182 77//182
f 77//183 100//183 79//183
f 79//184 100//184 81//184
f 81//185 100//185 83//185
f 83//186 100//186 85//186
f 85//187 100//187 87//187
f 87//188 100//188 89//188
f 89//189 100//189 91//189
f 91//190 100//190 93//190
f 93//191 100//191 95//191
f 49//192 2//192 1//192
f 29//193 2//193 31//193
f 27//194 2//194 29//194
f 4//195 2//195 7//195
f 3//196 2//196 4//196
