v 0.47787315368652344 0.7535905456542968 0.2
v 0.4977249526977539 0.7492144012451172 0.2
v 0.4795881271362305 0.7568177795410156 0.2
v 0.48201446533203124 0.7598371124267578 0.2
v 0.4795881271362305 0.7568177795410156 0.1
v 0.48201446533203124 0.7598371124267578 0.1
v 0.48348518371582033 0.7611983489990235 0.2
v 0.48348518371582033 0.7611983489990235 0.1
v 0.4851110076904297 0.762423324584961 0.2
v 0.4851110076904297 0.762423324584961 0.1
v 0.4868720245361328 0.7634869384765626 0.2
v 0.4868720245361328 0.7634869384765626 0.1
v 0.4887431716918945 0.7643682098388672 0.2
v 0.4887431716918945 0.7643682098388672 0.1
v 0.4906953048706055 0.7650515747070312 0.2
v 0.4906953048706055 0.7650515747070312 0.1
v 0.49269676208496094 0.7655275726318359 0.2
v 0.49269676208496094 0.7655275726318359 0.1
v 0.49471492767333985 0.7657938385009766 0.2
v 0.49471492767333985 0.7657938385009766 0.1
v 0.49671802520751956 0.7658541870117188 0.2
v 0.49671802520751956 0.7658541870117188 0.1
v 0.5005649948120118 0.7654019927978516 0.2
v 0.5005649948120118 0.7654019927978516 0.1
v 0.5040503692626953 0.7643029022216797 0.2
v 0.5040503692626953 0.7643029022216797 0.1
v 0.5072775268554688 0.7625879669189454 0.2
v 0.5072775268554688 0.7625879669189454 0.1
v 0.510296859741211 0.7601616668701172 0.2
v 0.510296859741211 0.7601616668701172 0.1
v 0.5116580963134766 0.7586908721923828 0.2
v 0.5116580963134766 0.7586908721923828 0.1
v 0.5128831100463868 0.7570651245117188 0.2
v 0.5128831100463868 0.7570651245117188 0.1
v 0.5139467239379882 0.7553041076660156 0.2
v 0.5139467239379882 0.7553041076660156 0.1
v 0.514827995300293 0.7534329223632813 0.2
v 0.514827995300293 0.7534329223632813 0.1
v 0.5155113220214844 0.7514807891845703 0.2
v 0.5155113220214844 0.7514807891845703 0.1
v 0.5159873962402344 0.7494792938232422 0.2
v 0.5159873962402344 0.7494792938232422 0.1
v 0.5162535858154297 0.7474611663818359 0.2
v 0.5162535858154297 0.7474611663818359 0.1
v 0.5163139343261719 0.7454580688476563 0.2
v 0.5163139343261719 0.7454580688476563 0.1
v 0.5158618164062501 0.741611099243164 0.2
v 0.5158618164062501 0.741611099243164 0.1
v 0.5147627258300781 0.7381257629394531 0.2
v 0.5147627258300781 0.7381257629394531 0.1
v 0.5130477905273437 0.7348985290527343 0.2
v 0.5130477905273437 0.7348985290527343 0.1
v 0.5106214141845703 0.7318791961669922 0.2
v 0.5106214141845703 0.7318791961669922 0.1
v 0.5091506958007812 0.7305179595947265 0.2
v 0.5091506958007812 0.7305179595947265 0.1
v 0.5075248718261719 0.7292929840087891 0.2
v 0.5075248718261719 0.7292929840087891 0.1
v 0.5057638931274414 0.7282293701171875 0.2
v 0.5057638931274414 0.7282293701171875 0.1
v 0.5038927459716797 0.7273480987548828 0.2
v 0.5038927459716797 0.7273480987548828 0.1
v 0.5019405746459961 0.7266647338867188 0.2
v 0.5019405746459961 0.7266647338867188 0.1
v 0.49993911743164066 0.726188735961914 0.2
v 0.49993911743164066 0.726188735961914 0.1
v 0.49792095184326174 0.7259224700927734 0.2
v 0.49792095184326174 0.7259224700927734 0.1
v 0.49591785430908203 0.7258621215820312 0.2
v 0.49591785430908203 0.7258621215820312 0.1
v 0.4920708847045899 0.7263143157958984 0.2
v 0.4920708847045899 0.7263143157958984 0.1
v 0.4885855484008789 0.7274134063720703 0.2
v 0.4885855484008789 0.7274134063720703 0.1
v 0.4853583526611328 0.7291283416748047 0.2
v 0.4853583526611328 0.7291283416748047 0.1
v 0.4823390197753906 0.7315546417236328 0.2
v 0.4823390197753906 0.7315546417236328 0.1
v 0.480977783203125 0.7330254364013672 0.2
v 0.480977783203125 0.7330254364013672 0.1
v 0.47975276947021483 0.7346511840820312 0.2
v 0.47975276947021483 0.7346511840820312 0.1
v 0.4786891555786133 0.7364122009277344 0.2
v 0.4786891555786133 0.7364122009277344 0.1
v 0.4778078842163086 0.7382833862304687 0.2
v 0.4778078842163086 0.7382833862304687 0.1
v 0.4771245574951172 0.7402355194091798 0.2
v 0.4771245574951172 0.7402355194091798 0.1
v 0.4766484832763672 0.7422370147705079 0.2
v 0.4766484832763672 0.7422370147705079 0.1
v 0.4763822937011719 0.744255142211914 0.2
v 0.4763822937011719 0.744255142211914 0.1
v 0.4763219451904297 0.7462582397460937 0.2
v 0.4763219451904297 0.7462582397460937 0.1
v 0.4767741012573242 0.750105209350586 0.2
v 0.4767741012573242 0.750105209350586 0.1
v 0.47787315368652344 0.7535905456542968 0.1
v 0.49145198822021485 0.7484783172607422 0.1
v 0.49967422485351565 0.7444511413574219 0.1
v 0.4946848678588867 0.740578384399414 0.2
vn -8.118868397672882e-15 -2.871177755725714e-14 1.0
vn -0.7794961333274841 0.6264070272445679 1.443866867328902e-15
vn -0.7794961333274841 0.6264070272445679 -6.8628947197477835e-15
vn -0.6792585253715515 0.7338990569114685 7.76488933207859e-17
vn -0.6017719507217407 0.7986679673194885 4.2758466699369417e-16
vn -0.5170062184333801 0.8559816479682922 -4.817130369385593e-16
vn -0.42608797550201416 0.9046817421913147 2.571260202706969e-15
vn -0.33037716150283813 0.9438490271568298 2.347470815789712e-16
vn -0.2314010113477707 0.9728584289550781 3.2884061002744203e-16
vn -0.13077376782894135 0.9914122223854065 -1.4088815478711025e-15
vn -0.03011089377105236 0.9995465874671936 -1.8827668357067296e-15
vn 0.1167270690202713 0.9931640028953552 6.749375364156762e-14
vn 0.30074459314346313 0.9537047147750854 0.0
vn 0.4692627787590027 0.8830585479736328 3.843528465196635e-15
vn 0.6264070272445679 0.7794961333274841 -8.296954533734257e-15
vn 0.7338990569114685 0.6792585253715515 0.0
vn 0.7986679673194885 0.6017719507217407 2.798060844691274e-16
vn 0.8559816479682922 0.5170062184333801 8.612085200826339e-16
vn 0.9046817421913147 0.42608797550201416 -1.2483224293125504e-15
vn 0.9438490271568298 0.33037716150283813 -1.8107842817831647e-15
vn 0.9728584289550781 0.2314010113477707 0.0
vn 0.9914122223854065 0.13077376782894135 1.858406962237084e-16
vn 0.9995465874671936 0.03011089377105236 -2.4646168488235212e-15
vn 0.9931640028953552 -0.1167270690202713 6.828237519677927e-14
vn 0.9537047147750854 -0.30074459314346313 0.0
vn 0.8830585479736328 -0.4692627787590027 -6.274508259256149e-16
vn 0.7794961333274841 -0.6264070272445679 -5.418851351928497e-15
vn 0.6792585253715515 -0.7338990569114685 -4.826422320816973e-16
vn 0.6017719507217407 -0.7986679673194885 0.0
vn 0.5170062184333801 -0.8559816479682922 3.6735501285063785e-16
vn 0.42608797550201416 -0.9046817421913147 6.801226697781171e-16
vn 0.33037716150283813 -0.9438490271568298 -6.370488209487494e-16
vn 0.2314010113477707 -0.9728584289550781 0.0
vn 0.13077376782894135 -0.9914122223854065 -1.4088815478711025e-15
vn 0.03011089377105236 -0.9995465874671936 -4.6808586500401376e-15
vn -0.1167270690202713 -0.9931640028953552 7.039942901635593e-14
vn -0.30074459314346313 -0.9537047147750854 -0.0
vn -0.4692627787590027 -0.8830585479736328 -1.0002938181810726e-15
vn -0.6264070272445679 -0.7794961333274841 -7.189223480039923e-15
vn -0.7338990569114685 -0.6792585253715515 1.0429333508667356e-15
vn -0.7986679673194885 -0.6017719507217407 -0.0
vn -0.8559816479682922 -0.5170062184333801 -1.216423062639835e-15
vn -0.9046817421913147 -0.42608797550201416 -6.055074315753674e-16
vn -0.9438490271568298 -0.33037716150283813 2.6834329347305336e-16
vn -0.9728584289550781 -0.2314010113477707 3.624168901774841e-16
vn -0.9914122223854065 -0.13077376782894135 -0.0
vn -0.9995465874671936 -0.03011089377105236 -3.1748374579537806e-15
vn -0.9931640028953552 0.1167270690202713 6.915393821818605e-14
vn -0.9537047147750854 0.30074459314346313 0.0
vn -0.8830585479736328 0.4692627787590027 1.2943133537331435e-15
vn 7.360664642630087e-15 1.2601594606405451e-14 -1.0
vn -0.8830585479736328 0.4692627787590027 0.0
vn -1.0916397570371076e-15 -9.849012813536832e-15 -1.0
vn -0.9537047147750854 0.30074459314346313 -6.36198111878504e-14
vn 0.0 -0.0 -1.0
vn -0.9931640028953552 0.1167270690202713 5.389421192176147e-15
vn 1.2955313871112952e-15 -8.829056396034672e-15 -1.0
vn -0.9995465874671936 -0.03011089377105236 0.0
vn -3.515476628131544e-15 8.338151675189864e-15 -1.0
vn -0.9914122223854065 -0.13077376782894135 5.185488057487544e-16
vn 0.0 -0.0 -1.0
vn -0.9728584289550781 -0.2314010113477707 -3.372821999367825e-17
vn 0.0 -0.0 -1.0
vn -0.9438490271568298 -0.33037716150283813 -4.69683527961213e-16
vn 0.0 -0.0 -1.0
vn -0.9046817421913147 -0.42608797550201416 -1.2849199701063302e-15
vn 0.0 -0.0 -1.0
vn -0.8559816479682922 -0.5170062184333801 0.0
vn 6.830588036106557e-15 -5.7793998197732364e-15 -1.0
vn -0.7986679673194885 -0.6017719507217407 1.1350978411871736e-15
vn -8.249893383184808e-15 4.4423718650594794e-15 -1.0
vn -0.7338990569114685 -0.6792585253715515 1.8853445687234613e-15
vn 0.0 -0.0 -1.0
vn -0.6264070272445679 -0.7794961333274841 -1.3363829391244229e-15
vn -4.2922628037294405e-15 2.2809350013543476e-15 -1.0
vn 0.4692627787590027 0.8830585479736328 0.0
vn 0.0 0.0 -1.0
vn -4.073870181356496e-15 3.2433111778933446e-15 -1.0
vn 0.30074459314346313 0.9537047147750854 -6.561534627268217e-14
vn 4.458726800721539e-15 -1.3512898719631513e-15 -1.0
vn 0.1167270690202713 0.9931640028953552 7.298156152221562e-15
vn -0.0 0.0 -1.0
vn -0.03011089377105236 0.9995465874671936 -1.420500616445945e-15
vn 9.026227031430634e-15 -1.7009051561620871e-15 -1.0
vn -0.13077376782894135 0.9914122223854065 1.8577427031179794e-16
vn -8.779964907510655e-15 -4.008686390323627e-16 -1.0
vn -0.2314010113477707 0.9728584289550781 1.6442506957404932e-16
vn 8.956306155700686e-15 4.0891989895425163e-16 -1.0
vn -0.33037716150283813 0.9438490271568298 2.683067069436879e-15
vn -8.30042398068621e-15 -2.5329423379973157e-15 -1.0
vn -0.42608797550201416 0.9046817421913147 -6.810411181907368e-16
vn -0.0 -0.0 -1.0
vn -0.5170062184333801 0.8559816479682922 3.6763760421766557e-16
vn -0.0 -0.0 -1.0
vn -0.6017719507217407 0.7986679673194885 2.812179295735227e-16
vn -0.0 -0.0 -1.0
vn -0.6792585253715515 0.7338990569114685 1.769349971102326e-15
vn -3.5994991201256186e-15 -2.9906848719241704e-15 -1.0
vn -1.1529594790558092e-14 -1.3699936299879471e-14 1.0
vn 1.3824838931248643e-14 1.0512525061340174e-14 1.0
vn -0.0 -0.0 1.0
vn -0.0 -0.0 1.0
vn -1.605552306773242e-14 -7.126580311392784e-15 1.0
vn 1.719201936031551e-14 3.121244624589817e-15 1.0
vn -0.0 -0.0 1.0
vn -9.301240841712213e-15 -5.628517523241473e-16 1.0
vn 9.003064915487965e-15 -3.774262345934915e-15 1.0
vn -0.0 0.0 1.0
vn 0.6264070272445679 0.7794961333274841 3.998400392789085e-15
vn -0.0 0.0 -1.0
vn 2.4224604425551483e-15 -5.340092746185135e-16 -1.0
vn -0.4692627787590027 -0.8830585479736328 0.0
vn 2.7279087819062848e-16 8.650594494982072e-16 -1.0
vn -0.30074459314346313 -0.9537047147750854 -6.269324523498071e-14
vn 8.911138970821297e-15 -2.7563064084959324e-15 -1.0
vn -0.1167270690202713 -0.9931640028953552 4.310103858697458e-15
vn -8.893434288157788e-15 8.415357563661791e-16 -1.0
vn 0.03011089377105236 -0.9995465874671936 -1.4203924079869332e-15
vn 0.0 0.0 -1.0
vn 0.13077376782894135 -0.9914122223854065 0.0
vn 0.0 0.0 -1.0
vn 0.2314010113477707 -0.9728584289550781 -8.887386261156155e-16
vn 0.0 0.0 -1.0
vn 0.33037716150283813 -0.9438490271568298 8.714306725087764e-16
vn 0.0 0.0 -1.0
vn 0.42608797550201416 -0.9046817421913147 3.019393994880171e-16
vn 0.0 0.0 -1.0
vn 0.5170062184333801 -0.8559816479682922 0.0
vn 7.85912913252914e-15 4.070384217262071e-15 -1.0
vn 0.6017719507217407 -0.7986679673194885 -4.2779213712621227e-16
vn -6.687966746030246e-15 -5.823658985333168e-15 -1.0
vn 0.6792585253715515 -0.7338990569114685 3.2945920348277776e-15
vn 0.0 0.0 -1.0
vn 0.7794961333274841 -0.6264070272445679 -5.553333820051997e-16
vn 2.8499331953206865e-15 3.98989364089981e-15 -1.0
vn 0.8830585479736328 -0.4692627787590027 0.0
vn -8.473033625227113e-16 -4.8294354287685935e-15 -1.0
vn 0.9537047147750854 -0.30074459314346313 -6.472485714710194e-14
vn 0.0 0.0 -1.0
vn 0.9931640028953552 -0.1167270690202713 6.0952317242665265e-15
vn -0.0 0.0 -1.0
vn 0.9995465874671936 0.03011089377105236 4.274053474717825e-17
vn -0.0 0.0 -1.0
vn 0.9914122223854065 0.13077376782894135 0.0
vn -0.0 0.0 -1.0
vn 0.9728584289550781 0.2314010113477707 -1.7117071555801844e-15
vn -0.0 0.0 -1.0
vn 0.9438490271568298 0.33037716150283813 -1.1398213204175372e-15
vn -0.0 0.0 -1.0
vn 0.9046817421913147 0.42608797550201416 5.669751087113812e-16
vn -0.0 0.0 -1.0
vn 0.8559816479682922 0.5170062184333801 4.823135303586034e-16
vn 6.0678839950150006e-15 -6.3540739815191264e-15 -1.0
vn 0.7986679673194885 0.6017719507217407 0.0
vn -7.54076925820477e-15 5.098699155887737e-15 -1.0
vn 0.7338990569114685 0.6792585253715515 9.21031545471449e-16
vn -0.0 0.0 -1.0
vn -0.0 0.0 1.0
vn -0.0 0.0 1.0
vn -0.0 0.0 1.0
vn -0.0 0.0 1.0
vn -0.0 0.0 1.0
vn 0.0 0.0 1.0
vn 0.0 0.0 1.0
vn 0.0 0.0 1.0
vn 0.0 0.0 1.0
vn 2.9236447552478343e-15 9.271301615158562e-15 1.0
vn 0.0 0.0 1.0
vn 0.0 0.0 1.0
vn 0.0 0.0 1.0
vn 8.961408682174946e-15 1.6416953720391723e-14 1.0
vn -1.1765738258890171e-14 -1.3386529027197697e-14 1.0
vn 0.0 0.0 1.0
vn 0.0 0.0 1.0
vn 0.0 0.0 1.0
vn 0.0 0.0 1.0
vn 0.0 0.0 1.0
vn 0.0 0.0 1.0
vn 0.0 0.0 1.0
vn 0.0 -0.0 1.0
vn 0.0 -0.0 1.0
vn 0.0 -0.0 1.0
vn 0.0 -0.0 1.0
vn 8.508519647035858e-15 -1.544116837702298e-14 1.0
vn -4.5402787093667095e-15 1.743202783998591e-14 1.0
vn 0.0 -0.0 1.0
vn 0.0 -0.0 1.0
vn 3.449835492246717e-16 -1.766857195490204e-14 1.0
vn 3.632617684846788e-15 1.808289812105148e-14 1.0
vn -0.0 -0.0 1.0
vn -0.0 -0.0 1.0
vn -2.706243796697888e-15 -4.158144453894142e-15 1.0
vn -0.0 0.0 1.0
vn -0.0 0.0 1.0
vn 1.1504136368295417e-14 1.3669685365201231e-14 1.0
vn 6.620179546294432e-15 6.4465115340859355e-15 1.0
f 1//1 2//1 3//1
f 3//2 4//2 5//2
f 5//3 4//3 6//3
f 6//4 7//4 8//4
f 8//5 9//5 10//5
f 10//6 11//6 12//6
f 12//7 13//7 14//7
f 14//8 15//8 16//8
f 16//9 17//9 18//9
f 18//10 19//10 20//10
f 20//11 21//11 22//11
f 22//12 23//12 24//12
f 24//13 25//13 26//13
f 26//14 27//14 28//14
f 28//15 29//15 30//15
f 30//16 31//16 32//16
f 32//17 33//17 34//17
f 34//18 35//18 36//18
f 36//19 37//19 38//19
f 38//20 39//20 40//20
f 40//21 41//21 42//21
f 42//22 43//22 44//22
f 44//23 45//23 46//23
f 46//24 47//24 48//24
f 48//25 49//25 50//25
f 50//26 51//26 52//26
f 52//27 53//27 54//27
f 54//28 55//28 56//28
f 56//29 57//29 58//29
f 58//30 59//30 60//30
f 60//31 61//31 62//31
f 62//32 63//32 64//32
f 64//33 65//33 66//33
f 66//34 67//34 68//34
f 68//35 69//35 70//35
f 70//36 71//36 72//36
f 72//37 73//37 74//37
f 74//38 75//38 76//38
f 76//39 77//39 78//39
f 78//40 79//40 80//40
f 80//41 81//41 82//41
f 82//42 83//42 84//42
f 84//43 85//43 86//43
f 86//44 87//44 88//44
f 88//45 89//45 90//45
f 90//46 91//46 92//46
f 92//47 93//47 94//47
f 94//48 95//48 96//48
f 96//49 1//49 97//49
f 97//50 3//50 5//50
f 5//51 98//51 97//51
f 1//52 3//52 97//52
f 97//53 98//53 96//53
f 95//54 1//54 96//54
f 96//55 98//55 94//55
f 93//56 95//56 94//56
f 94//57 98//57 92//57
f 91//58 93//58 92//58
f 92//59 98//59 90//59
f 89//60 91//60 90//60
f 90//61 98//61 88//61
f 87//62 89//62 88//62
f 88//63 98//63 86//63
f 85//64 87//64 86//64
f 86//65 98//65 84//65
f 83//66 85//66 84//66
f 84//67 98//67 82//67
f 81//68 83//68 82//68
f 82//69 98//69 80//69
f 79//70 81//70 80//70
f 80//71 98//71 78//71
f 77//72 79//72 78//72
f 78//73 98//73 76//73
f 75//74 77//74 76//74
f 74//75 76//75 26//75
f 25//76 27//76 26//76
f 76//77 98//77 26//77
f 26//78 98//78 24//78
f 23//79 25//79 24//79
f 24//80 98//80 22//80
f 21//81 23//81 22//81
f 22//82 98//82 20//82
f 19//83 21//83 20//83
f 20//84 98//84 18//84
f 17//85 19//85 18//85
f 18//86 98//86 16//86
f 15//87 17//87 16//87
f 16//88 98//88 14//88
f 13//89 15//89 14//89
f 14//90 98//90 12//90
f 11//91 13//91 12//91
f 12//92 98//92 10//92
f 9//93 11//93 10//93
f 10//94 98//94 8//94
f 7//95 9//95 8//95
f 8//96 98//96 6//96
f 4//97 7//97 6//97
f 6//98 98//98 5//98
f 7//99 2//99 9//99
f 9//100 2//100 11//100
f 11//101 2//101 13//101
f 13//102 2//102 15//102
f 15//103 2//103 17//103
f 17//104 2//104 19//104
f 19//105 2//105 21//105
f 21//106 2//106 23//106
f 23//107 2//107 25//107
f 25//108 2//108 27//108
f 27//109 29//109 28//109
f 28//110 99//110 26//110
f 26//111 99//111 74//111
f 73//112 75//112 74//112
f 74//113 99//113 72//113
f 71//114 73//114 72//114
f 72//115 99//115 70//115
f 69//116 71//116 70//116
f 70//117 99//117 68//117
f 67//118 69//118 68//118
f 68//119 99//119 66//119
f 65//120 67//120 66//120
f 66//121 99//121 64//121
f 63//122 65//122 64//122
f 64//123 99//123 62//123
f 61//124 63//124 62//124
f 62//125 99//125 60//125
f 59//126 61//126 60//126
f 60//127 99//127 58//127
f 57//128 59//128 58//128
f 58//129 99//129 56//129
f 55//130 57//130 56//130
f 56//131 99//131 54//131
f 53//132 55//132 54//132
f 54//133 99//133 52//133
f 51//134 53//134 52//134
f 52//135 99//135 50//135
f 49//136 51//136 50//136
f 50//137 99//137 48//137
f 47//138 49//138 48//138
f 48//139 99//139 46//139
f 45//140 47//140 46//140
f 46//141 99//141 44//141
f 43//142 45//142 44//142
f 44//143 99//143 42//143
f 41//144 43//144 42//144
f 42//145 99//145 40//145
f 39//146 41//146 40//146
f 40//147 99//147 38//147
f 37//148 39//148 38//148
f 38//149 99//149 36//149
f 35//150 37//150 36//150
f 36//151 99//151 34//151
f 33//152 35//152 34//152
f 34//153 99//153 32//153
f 31//154 33//154 32//154
f 32//155 99//155 30//155
f 29//156 31//156 30//156
f 30//157 99//157 28//157
f 31//158 2//158 33//158
f 33//159 2//159 35//159
f 35//160 2//160 37//160
f 37//161 2//161 39//161
f 39//162 2//162 41//162
f 41//163 2//163 43//163
f 43//164 2//164 45//164
f 45//165 2//165 47//165
f 47//166 2//166 49//166
f 1//167 95//167 49//167
f 95//168 100//168 49//168
f 49//169 100//169 51//169
f 51//170 100//170 53//170
f 53//171 100//171 55//171
f 55//172 100//172 57//172
f 57//173 100//173 59//173
f 59//174 100//174 61//174
f 61//175 100//175 63//175
f 63//176 100//176 65//176
f 65//177 100//177 67//177
f 67//178 100//178 69//178
f 69//179 100//179 71//179
f 71//180 100//180 73//180
f 73//181 100//181 75//181
f 75//182 100//182 77//182
f 77//183 100//183 79//183
f 79//184 100//184 81//184
f 81//185 100//185 83//185
f 83//186 100//186 85//186
f 85//187 100//187 87//187
f 87//188 100//188 89//188
f 89//189 100//189 91//189
f 91//190 100//190 93//190
f 93//191 100//191 95//191
f 49//192 2//192 1//192
f 29//193 2//193 31//193
f 27//194 2//194 29//194
f 4//195 2//195 7//195
f 3//196 2//196 4//196
