v 0.0 0.42 0.2
v 0.0036392611265182494 0.4 0.2
v 0.0036392611265182494 0.41966609954833983 0.2
v 0.0073618942499160765 0.41859577178955076 0.2
v 0.0036392611265182494 0.41966609954833983 0.1
v 0.0073618942499160765 0.41859577178955076 0.1
v 0.00918589174747467 0.4177656936645508 0.2
v 0.00918589174747467 0.4177656936645508 0.1
v 0.010944194793701172 0.4167399215698242 0.2
v 0.010944194793701172 0.4167399215698242 0.1
v 0.012605962753295898 0.41552707672119144 0.2
v 0.012605962753295898 0.41552707672119144 0.1
v 0.014142135381698609 0.41414215087890627 0.2
v 0.014142135381698609 0.41414215087890627 0.1
v 0.015527063608169555 0.4126059722900391 0.2
v 0.015527063608169555 0.4126059722900391 0.1
v 0.016739909648895265 0.4109442138671875 0.2
v 0.016739909648895265 0.4109442138671875 0.1
v 0.017765680551528933 0.409185905456543 0.2
v 0.017765680551528933 0.409185905456543 0.1
v 0.018595765829086303 0.40736190795898436 0.2
v 0.018595765829086303 0.40736190795898436 0.1
v 0.01966610789299011 0.4036392593383789 0.2
v 0.01966610789299011 0.4036392593383789 0.1
v 0.02 0.4 0.2
v 0.02 0.4 0.1
v 0.01966610789299011 0.3963607406616211 0.2
v 0.01966610789299011 0.3963607406616211 0.1
v 0.018595765829086303 0.39263809204101563 0.2
v 0.018595765829086303 0.39263809204101563 0.1
v 0.017765680551528933 0.39081409454345706 0.2
v 0.017765680551528933 0.39081409454345706 0.1
v 0.016739909648895265 0.3890557861328125 0.2
v 0.016739909648895265 0.3890557861328125 0.1
v 0.015527063608169555 0.38739402770996095 0.2
v 0.015527063608169555 0.38739402770996095 0.1
v 0.014142135381698609 0.3858578491210938 0.2
v 0.014142135381698609 0.3858578491210938 0.1
v 0.012605962753295898 0.3844729232788086 0.2
v 0.012605962753295898 0.3844729232788086 0.1
v 0.010944194793701172 0.3832600784301758 0.2
v 0.010944194793701172 0.3832600784301758 0.1
v 0.00918589174747467 0.38223430633544925 0.2
v 0.00918589174747467 0.38223430633544925 0.1
v 0.0073618942499160765 0.3814042282104492 0.2
v 0.0073618942499160765 0.3814042282104492 0.1
v 0.0036392611265182494 0.38033390045166016 0.2
v 0.0036392611265182494 0.38033390045166016 0.1
v -3.673900058992713e-18 0.38 0.2
v -3.673900058992713e-18 0.38 0.1
v -0.0036392611265182494 0.38033390045166016 0.2
v -0.0036392611265182494 0.38033390045166016 0.1
v -0.0073618942499160765 0.3814042282104492 0.2
v -0.0073618942499160765 0.3814042282104492 0.1
v -0.00918589174747467 0.38223430633544925 0.2
v -0.00918589174747467 0.38223430633544925 0.1
v -0.010944194793701172 0.3832600784301758 0.2
v -0.010944194793701172 0.3832600784301758 0.1
v -0.012605962753295898 0.3844729232788086 0.2
v -0.012605962753295898 0.3844729232788086 0.1
v -0.014142135381698609 0.3858578491210938 0.2
v -0.014142135381698609 0.3858578491210938 0.1
v -0.015527063608169555 0.38739402770996095 0.2
v -0.015527063608169555 0.38739402770996095 0.1
v -0.016739909648895265 0.3890557861328125 0.2
v -0.016739909648895265 0.3890557861328125 0.1
v -0.017765680551528933 0.39081409454345706 0.2
v -0.017765680551528933 0.39081409454345706 0.1
v -0.018595765829086303 0.39263809204101563 0.2
v -0.018595765829086303 0.39263809204101563 0.1
v -0.01966610789299011 0.3963607406616211 0.2
v -0.01966610789299011 0.3963607406616211 0.1
v -0.02 0.4 0.2
v -0.02 0.4 0.1
v -0.01966610789299011 0.4036392593383789 0.2
v -0.01966610789299011 0.4036392593383789 0.1
v -0.018595765829086303 0.40736190795898436 0.2
v -0.018595765829086303 0.40736190795898436 0.1
v -0.017765680551528933 0.409185905456543 0.2
v -0.017765680551528933 0.409185905456543 0.1
v -0.016739909648895265 0.4109442138671875 0.2
v -0.016739909648895265 0.4109442138671875 0.1
v -0.015527063608169555 0.4126059722900391 0.2
v -0.015527063608169555 0.4126059722900391 0.1
v -0.014142135381698609 0.41414215087890627 0.2
v -0.014142135381698609 0.41414215087890627 0.1
v -0.012605962753295898 0.41552707672119144 0.2
v -0.012605962753295898 0.41552707672119144 0.1
v -0.010944194793701172 0.4167399215698242 0.2
v -0.010944194793701172 0.4167399215698242 0.1
v -0.00918589174747467 0.4177656936645508 0.2
v -0.00918589174747467 0.4177656936645508 0.1
v -0.0073618942499160765 0.41859577178955076 0.2
v -0.0073618942499160765 0.41859577178955076 0.1
v -0.0036392611265182494 0.41966609954833983 0.2
v -0.0036392611265182494 0.41966609954833983 0.1
v 1.2246000010752729e-18 0.42 0.2
v 1.2246000010752729e-18 0.42 0.1
v 0.0005351706594228744 0.40550056457519534 0.1
v 1.1102230246251566e-18 0.42 0.1
v 0.0 0.3963607406616211 0.1
v -4.440892098500626e-18 0.38 0.1
v -4.440892098500626e-18 0.38 0.2
v -0.005500577688217163 0.39946483612060546 0.2
vn -0.0 0.0 1.0
vn 0.276327520608902 0.9610635042190552 1.791398169236184e-18
vn 0.276327520608902 0.9610635042190552 -6.052617496690163e-15
vn 0.4142148196697235 0.9101791381835938 3.173108769587553e-16
vn 0.5039051175117493 0.8637589812278748 5.801708761779783e-16
vn 0.5895342230796814 0.8077434301376343 1.3090288703606823e-17
vn 0.6695982217788696 0.7427235245704651 2.676251948222389e-16
vn 0.7427235245704651 0.6695982217788696 3.298355230158861e-17
vn 0.8077434301376343 0.5895342230796814 0.0
vn 0.8637589812278748 0.5039051175117493 -3.3886683314497278e-16
vn 0.9101791381835938 0.4142148196697235 -2.5155711745567877e-15
vn 0.9610635042190552 0.276327520608902 6.84222982634021e-14
vn 0.9958176016807556 0.09136364609003067 0.0
vn 0.9958176016807556 -0.09136364609003067 -6.775178317070733e-17
vn 0.9610635042190552 -0.276327520608902 -6.340995369297046e-15
vn 0.9101791381835938 -0.4142148196697235 6.946333235464285e-17
vn 0.8637589812278748 -0.5039051175117493 4.986618485757627e-16
vn 0.8077434301376343 -0.5895342230796814 3.8301824023214597e-16
vn 0.7427235245704651 -0.6695982217788696 -4.0732766230187076e-16
vn 0.6695982217788696 -0.7427235245704651 8.4732072669813e-16
vn 0.5895342230796814 -0.8077434301376343 7.854173222164094e-17
vn 0.5039051175117493 -0.8637589812278748 1.1188941273759784e-16
vn 0.4142148196697235 -0.9101791381835938 -2.942282656460981e-15
vn 0.276327520608902 -0.9610635042190552 6.910824587287936e-14
vn 0.09136364609003067 -0.9958176016807556 0.0
vn -0.09136364609003067 -0.9958176016807556 7.070637702754018e-16
vn -0.276327520608902 -0.9610635042190552 -6.683340675588817e-15
vn -0.4142148196697235 -0.9101791381835938 -9.197416598765684e-17
vn -0.5039051175117493 -0.8637589812278748 -1.227475360293846e-15
vn -0.5895342230796814 -0.8077434301376343 1.3090288703606823e-17
vn -0.6695982217788696 -0.7427235245704651 5.947226772186806e-17
vn -0.7427235245704651 -0.6695982217788696 8.245887579088785e-17
vn -0.8077434301376343 -0.5895342230796814 -5.0856678716315845e-16
vn -0.8637589812278748 -0.5039051175117493 8.951640062952499e-16
vn -0.9101791381835938 -0.4142148196697235 -2.830098648311306e-15
vn -0.9610635042190552 -0.276327520608902 6.879792688232328e-14
vn -0.9958176016807556 -0.09136364609003067 -0.0
vn -0.9958176016807556 0.09136364609003067 1.9475332247850596e-16
vn -0.9610635042190552 0.276327520608902 -5.990990344063255e-15
vn -0.9101791381835938 0.4142148196697235 -1.730571029301791e-16
vn -0.8637589812278748 0.5039051175117493 9.589651086859549e-17
vn -0.8077434301376343 0.5895342230796814 5.38065205859657e-17
vn -0.7427235245704651 0.6695982217788696 7.206714075126013e-16
vn -0.6695982217788696 0.7427235245704651 -8.027165010913106e-16
vn -0.5895342230796814 0.8077434301376343 7.854173222164094e-17
vn -0.5039051175117493 0.8637589812278748 0.0
vn -0.4142148196697235 0.9101791381835938 -2.891697001818007e-15
vn -0.276327520608902 0.9610635042190552 6.907603151582939e-14
vn -0.09136364609003067 0.9958176016807556 0.0
vn 0.09136364609003067 0.9958176016807556 5.071701278540387e-19
vn 9.68257168643431e-15 -8.677407852322998e-16 -1.0
vn -4.752596411441946e-15 -1.4005398615274237e-15 -1.0
vn -0.09136364609003067 0.9958176016807556 -6.388278442478676e-14
vn -0.0 -0.0 -1.0
vn -0.276327520608902 0.9610635042190552 6.115832836093172e-15
vn -7.641619542003708e-15 -4.608285290635863e-15 -1.0
vn -0.4142148196697235 0.9101791381835938 0.0
vn 6.330611168880182e-15 6.465811179789125e-15 -1.0
vn -0.5039051175117493 0.8637589812278748 6.81740423298034e-17
vn -0.0 -0.0 -1.0
vn -0.5895342230796814 0.8077434301376343 -9.258396221174196e-16
vn -5.300472568319078e-15 -6.947021185036133e-15 -1.0
vn -0.6695982217788696 0.7427235245704651 8.471078037910139e-16
vn -7.906144649178555e-16 7.127739899497575e-16 -1.0
vn -0.7427235245704651 0.6695982217788696 5.032323324800285e-17
vn 2.7385898673711615e-15 8.690794361021405e-15 -1.0
vn -0.8077434301376343 0.5895342230796814 8.937978347955573e-17
vn -0.0 -0.0 -1.0
vn -0.8637589812278748 0.5039051175117493 -2.420178535795245e-16
vn -0.0 -0.0 -1.0
vn -0.9101791381835938 0.4142148196697235 3.1041531937801197e-15
vn 0.0 -0.0 -1.0
vn -0.9610635042190552 0.276327520608902 5.893699716225153e-16
vn 0.0 0.0 -1.0
vn 0.9958176016807556 -0.09136364609003067 0.0
vn 0.0 0.0 -1.0
vn 1.416064916659411e-15 5.011012187605603e-15 -1.0
vn 0.9958176016807556 0.09136364609003067 -6.458103095265816e-14
vn 4.776239853856892e-16 -4.634447597277706e-15 -1.0
vn 0.9610635042190552 0.276327520608902 6.382751128981368e-15
vn -0.0 0.0 -1.0
vn 0.9101791381835938 0.4142148196697235 -2.7440505829029915e-16
vn -0.0 0.0 -1.0
vn 0.8637589812278748 0.5039051175117493 0.0
vn -2.8838598294735366e-15 8.584768705914743e-15 -1.0
vn 0.8077434301376343 0.5895342230796814 3.541462950443706e-17
vn 8.301620097086852e-16 7.484278831007367e-16 -1.0
vn 0.7427235245704651 0.6695982217788696 2.969070973390405e-16
vn 5.545093565903752e-15 -6.675685615328006e-15 -1.0
vn 0.6695982217788696 0.7427235245704651 1.509697096701759e-17
vn -5.689982786696336e-15 6.850116804221979e-15 -1.0
vn 0.5895342230796814 0.8077434301376343 5.345922979840205e-16
vn 7.15756054143861e-15 -5.04831170695442e-15 -1.0
vn 0.5039051175117493 0.8637589812278748 3.8688769849344043e-16
vn -7.37240536631198e-15 5.1998446306687936e-15 -1.0
vn 0.4142148196697235 0.9101791381835938 2.9881585961589845e-15
vn 3.3918312054143345e-16 1.1796744323440888e-15 -1.0
vn -0.0 0.0 1.0
vn -0.0 0.0 1.0
vn -0.0 0.0 1.0
vn -0.0 0.0 1.0
vn -0.0 0.0 1.0
vn -0.0 0.0 1.0
vn -0.0 0.0 1.0
vn -0.0 0.0 1.0
vn -0.0 0.0 1.0
vn 0.0 0.0 1.0
vn 0.9610635042190552 -0.276327520608902 6.807312629507193e-17
vn 0.0 0.0 -1.0
vn -0.0 0.0 -1.0
vn -0.9958176016807556 0.09136364609003067 0.0
vn -9.032579355018567e-16 -4.963963742550363e-15 -1.0
vn -0.9958176016807556 -0.09136364609003067 -6.460713989622432e-14
vn -9.032579355018567e-16 4.512067853541931e-15 -1.0
vn -0.9610635042190552 -0.276327520608902 6.1659920096472035e-15
vn 0.0 -0.0 -1.0
vn -0.9101791381835938 -0.4142148196697235 6.120012096654925e-16
vn 0.0 -0.0 -1.0
vn -0.8637589812278748 -0.5039051175117493 -4.55061727588354e-16
vn 0.0 -0.0 -1.0
vn -0.8077434301376343 -0.5895342230796814 9.106619299031454e-17
vn -4.391465184929496e-15 7.604419549026194e-15 -1.0
vn -0.7427235245704651 -0.6695982217788696 6.542020586938166e-17
vn 5.911796151626767e-15 -6.2689365824082285e-15 -1.0
vn -0.6695982217788696 -0.7427235245704651 1.509697096701759e-17
vn 0.0 -0.0 -1.0
vn -0.5895342230796814 -0.8077434301376343 -1.1467594731676156e-15
vn 6.792368215460549e-15 -5.6742991246449756e-15 -1.0
vn -0.5039051175117493 -0.8637589812278748 -1.1248717977034296e-16
vn -4.4158628043048536e-16 -9.70324098441321e-16 -1.0
vn -0.4142148196697235 -0.9101791381835938 2.4194388642740554e-15
vn -2.9914855827571217e-16 -1.0404348154305723e-15 -1.0
vn -0.276327520608902 -0.9610635042190552 6.82522684694603e-16
vn -4.881092156573371e-15 1.324903726512367e-30 -1.0
vn 0.0 0.0 -1.0
vn 0.09136364609003067 -0.9958176016807556 -6.387234220261301e-14
vn 0.0 0.0 -1.0
vn 0.276327520608902 -0.9610635042190552 6.083587985857095e-15
vn 7.956510816409072e-15 3.916355510968613e-15 -1.0
vn 0.4142148196697235 -0.9101791381835938 9.175689541924122e-17
vn -6.792368215460549e-15 -5.6742991246449756e-15 -1.0
vn 0.5039051175117493 -0.8637589812278748 6.81740423298034e-17
vn 6.640657414827252e-15 5.547560972879104e-15 -1.0
vn 0.5895342230796814 -0.8077434301376343 9.646270607172069e-16
vn 6.887238129014517e-16 -7.639377975187918e-16 -1.0
vn 0.6695982217788696 -0.7427235245704651 -5.636202229655437e-16
vn -4.391465184929496e-15 -7.604419549026194e-15 -1.0
vn 0.7427235245704651 -0.6695982217788696 4.428444684642928e-16
vn 4.3427218269468e-15 7.52001356286525e-15 -1.0
vn 0.8077434301376343 -0.5895342230796814 4.671358646141089e-16
vn -2.6681806771471214e-15 -8.5460965696749e-15 -1.0
vn 0.8637589812278748 -0.5039051175117493 -1.3634809293141293e-17
vn 0.0 0.0 -1.0
vn 0.9101791381835938 -0.4142148196697235 2.556208638992497e-15
vn 0.0 0.0 -1.0
vn 0.0 0.0 1.0
vn 0.0 0.0 1.0
vn 0.0 0.0 1.0
vn 0.0 0.0 1.0
vn 0.0 0.0 1.0
vn 0.0 0.0 1.0
vn 0.0 0.0 1.0
vn 0.0 0.0 1.0
vn 0.0 -0.0 1.0
vn 0.0 0.0 1.0
vn 0.0 0.0 1.0
vn 0.0 0.0 1.0
vn -0.09136364609003067 -0.9958176016807556 0.0
vn 0.0 0.0 1.0
vn 0.0 -0.0 1.0
vn 0.0 -0.0 1.0
vn 0.0 -0.0 1.0
vn 0.0 -0.0 1.0
vn -1.5050515087683403e-14 9.558333128895785e-15 1.0
vn 2.551437725917087e-14 -2.4136500293542827e-14 1.0
vn 2.0521903658165348e-15 1.1972195551761592e-15 1.0
vn 2.1927660713252266e-15 9.979093145554333e-16 1.0
vn 2.3593488646881777e-15 6.783662410828669e-16 1.0
vn 3.6154452565115096e-16 9.795354970394167e-15 1.0
vn -0.0 -0.0 1.0
vn -0.0 -0.0 1.0
vn -0.0 -0.0 1.0
vn -1.0950875622972589e-14 -1.3816762472096573e-14 1.0
vn 1.4321128240539147e-14 1.0926803793644569e-14 1.0
vn -0.0 -0.0 1.0
vn -0.0 -0.0 1.0
vn -0.0 -0.0 1.0
vn -0.0 -0.0 1.0
vn -0.0 -0.0 1.0
vn -0.0 0.0 1.0
vn 0.0 -0.0 1.0
vn 0.0 0.0 1.0
vn 0.0 0.0 1.0
vn -0.0 0.0 1.0
vn -0.0 0.0 1.0
vn 0.09136364609003067 0.9958176016807556 0.0
f 1//1 2//1 3//1
f 3//2 4//2 5//2
f 5//3 4//3 6//3
f 6//4 7//4 8//4
f 8//5 9//5 10//5
f 10//6 11//6 12//6
f 12//7 13//7 14//7
f 14//8 15//8 16//8
f 16//9 17//9 18//9
f 18//10 19//10 20//10
f 20//11 21//11 22//11
f 22//12 23//12 24//12
f 24//13 25//13 26//13
f 26//14 27//14 28//14
f 28//15 29//15 30//15
f 30//16 31//16 32//16
f 32//17 33//17 34//17
f 34//18 35//18 36//18
f 36//19 37//19 38//19
f 38//20 39//20 40//20
f 40//21 41//21 42//21
f 42//22 43//22 44//22
f 44//23 45//23 46//23
f 46//24 47//24 48//24
f 48//25 49//25 50//25
f 50//26 51//26 52//26
f 52//27 53//27 54//27
f 54//28 55//28 56//28
f 56//29 57//29 58//29
f 58//30 59//30 60//30
f 60//31 61//31 62//31
f 62//32 63//32 64//32
f 64//33 65//33 66//33
f 66//34 67//34 68//34
f 68//35 69//35 70//35
f 70//36 71//36 72//36
f 72//37 73//37 74//37
f 74//38 75//38 76//38
f 76//39 77//39 78//39
f 78//40 79//40 80//40
f 80//41 81//41 82//41
f 82//42 83//42 84//42
f 84//43 85//43 86//43
f 86//44 87//44 88//44
f 88//45 89//45 90//45
f 90//46 91//46 92//46
f 92//47 93//47 94//47
f 94//48 95//48 96//48
f 96//49 97//49 98//49
f 98//50 3//50 5//50
f 5//51 99//51 100//51
f 100//52 99//52 96//52
f 95//53 97//53 96//53
f 96//54 99//54 94//54
f 93//55 95//55 94//55
f 94//56 99//56 92//56
f 91//57 93//57 92//57
f 92//58 99//58 90//58
f 89//59 91//59 90//59
f 90//60 99//60 88//60
f 87//61 89//61 88//61
f 88//62 99//62 86//62
f 85//63 87//63 86//63
f 86//64 99//64 84//64
f 83//65 85//65 84//65
f 84//66 99//66 82//66
f 81//67 83//67 82//67
f 82//68 99//68 80//68
f 79//69 81//69 80//69
f 80//70 99//70 78//70
f 77//71 79//71 78//71
f 78//72 99//72 76//72
f 75//73 77//73 76//73
f 74//74 76//74 26//74
f 25//75 27//75 26//75
f 76//76 99//76 26//76
f 26//77 99//77 24//77
f 23//78 25//78 24//78
f 24//79 99//79 22//79
f 21//80 23//80 22//80
f 22//81 99//81 20//81
f 19//82 21//82 20//82
f 20//83 99//83 18//83
f 17//84 19//84 18//84
f 18//85 99//85 16//85
f 15//86 17//86 16//86
f 16//87 99//87 14//87
f 13//88 15//88 14//88
f 14//89 99//89 12//89
f 11//90 13//90 12//90
f 12//91 99//91 10//91
f 9//92 11//92 10//92
f 10//93 99//93 8//93
f 7//94 9//94 8//94
f 8//95 99//95 6//95
f 4//96 7//96 6//96
f 6//97 99//97 5//97
f 7//98 2//98 9//98
f 9//99 2//99 11//99
f 11//100 2//100 13//100
f 13//101 2//101 15//101
f 15//102 2//102 17//102
f 17//103 2//103 19//103
f 19//104 2//104 21//104
f 21//105 2//105 23//105
f 23//106 2//106 25//106
f 25//107 2//107 27//107
f 27//108 29//108 28//108
f 28//109 101//109 26//109
f 26//110 101//110 74//110
f 73//111 75//111 74//111
f 74//112 101//112 72//112
f 71//113 73//113 72//113
f 72//114 101//114 70//114
f 69//115 71//115 70//115
f 70//116 101//116 68//116
f 67//117 69//117 68//117
f 68//118 101//118 66//118
f 65//119 67//119 66//119
f 66//120 101//120 64//120
f 63//121 65//121 64//121
f 64//122 101//122 62//122
f 61//123 63//123 62//123
f 62//124 101//124 60//124
f 59//125 61//125 60//125
f 60//126 101//126 58//126
f 57//127 59//127 58//127
f 58//128 101//128 56//128
f 55//129 57//129 56//129
f 56//130 101//130 54//130
f 53//131 55//131 54//131
f 54//132 101//132 52//132
f 51//133 53//133 52//133
f 52//134 101//134 102//134
f 102//135 101//135 48//135
f 47//136 49//136 48//136
f 48//137 101//137 46//137
f 45//138 47//138 46//138
f 46//139 101//139 44//139
f 43//140 45//140 44//140
f 44//141 101//141 42//141
f 41//142 43//142 42//142
f 42//143 101//143 40//143
f 39//144 41//144 40//144
f 40//145 101//145 38//145
f 37//146 39//146 38//146
f 38//147 101//147 36//147
f 35//148 37//148 36//148
f 36//149 101//149 34//149
f 33//150 35//150 34//150
f 34//151 101//151 32//151
f 31//152 33//152 32//152
f 32//153 101//153 30//153
f 29//154 31//154 30//154
f 30//155 101//155 28//155
f 31//156 2//156 33//156
f 33//157 2//157 35//157
f 35//158 2//158 37//158
f 37//159 2//159 39//159
f 39//160 2//160 41//160
f 41//161 2//161 43//161
f 43//162 2//162 45//162
f 45//163 2//163 47//163
f 47//164 2//164 103//164
f 1//165 95//165 103//165
f 95//166 104//166 103//166
f 103//167 104//167 51//167
f 49//168 51//168 50//168
f 51//169 104//169 53//169
f 53//170 104//170 55//170
f 55//171 104//171 57//171
f 57//172 104//172 59//172
f 59//173 104//173 61//173
f 61//174 104//174 63//174
f 63//175 104//175 65//175
f 65//176 104//176 67//176
f 67//177 104//177 69//177
f 69//178 104//178 71//178
f 71//179 104//179 73//179
f 73//180 104//180 75//180
f 75//181 104//181 77//181
f 77//182 104//182 79//182
f 79//183 104//183 81//183
f 81//184 104//184 83//184
f 83//185 104//185 85//185
f 85//186 104//186 87//186
f 87//187 104//187 89//187
f 89//188 104//188 91//188
f 91//189 104//189 93//189
f 93//190 104//190 95//190
f 103//191 2//191 1//191
f 29//192 2//192 31//192
f 27//193 2//193 29//193
f 4//194 2//194 7//194
f 3//195 2//195 4//195
f 97//196 3//196 98//196
