v 0.006062547564506531 0.4199540710449219 0.2
v 0.00970180869102478 0.39995407104492187 0.2
v 0.00970180869102478 0.41962017059326173 0.2
v 0.013424441814422608 0.4185498046875 0.2
v 0.00970180869102478 0.41962017059326173 0.1
v 0.013424441814422608 0.4185498046875 0.1
v 0.015248439311981202 0.4177197265625 0.2
v 0.015248439311981202 0.4177197265625 0.1
v 0.01700674295425415 0.41669395446777346 0.2
v 0.01700674295425415 0.41669395446777346 0.1
v 0.01866850972175598 0.41548110961914064 0.2
v 0.01866850972175598 0.41548110961914064 0.1
v 0.020204682350158692 0.4140961837768555 0.2
v 0.020204682350158692 0.4140961837768555 0.1
v 0.02158961057662964 0.4125600051879883 0.2
v 0.02158961057662964 0.4125600051879883 0.1
v 0.022802457809448243 0.41089824676513675 0.2
v 0.022802457809448243 0.41089824676513675 0.1
v 0.023828227519989014 0.4091399383544922 0.2
v 0.023828227519989014 0.4091399383544922 0.1
v 0.024658312797546388 0.4073159408569336 0.2
v 0.024658312797546388 0.4073159408569336 0.1
v 0.025728654861450196 0.4035933303833008 0.2
v 0.025728654861450196 0.4035933303833008 0.1
v 0.02606254816055298 0.39995407104492187 0.2
v 0.02606254816055298 0.39995407104492187 0.1
v 0.025728654861450196 0.396314811706543 0.2
v 0.025728654861450196 0.396314811706543 0.1
v 0.024658312797546388 0.39259216308593753 0.2
v 0.024658312797546388 0.39259216308593753 0.1
v 0.023828227519989014 0.3907681655883789 0.2
v 0.023828227519989014 0.3907681655883789 0.1
v 0.022802457809448243 0.3890098571777344 0.2
v 0.022802457809448243 0.3890098571777344 0.1
v 0.02158961057662964 0.3873480987548828 0.2
v 0.02158961057662964 0.3873480987548828 0.1
v 0.020204682350158692 0.3858119201660156 0.2
v 0.020204682350158692 0.3858119201660156 0.1
v 0.01866850972175598 0.38442699432373045 0.2
v 0.01866850972175598 0.38442699432373045 0.1
v 0.01700674295425415 0.3832141494750977 0.2
v 0.01700674295425415 0.3832141494750977 0.1
v 0.015248439311981202 0.3821883773803711 0.2
v 0.015248439311981202 0.3821883773803711 0.1
v 0.013424441814422608 0.3813582992553711 0.2
v 0.013424441814422608 0.3813582992553711 0.1
v 0.00970180869102478 0.38028793334960936 0.2
v 0.00970180869102478 0.38028793334960936 0.1
v 0.006062547564506531 0.3799540710449219 0.2
v 0.006062547564506531 0.3799540710449219 0.1
v 0.002423286736011505 0.38028793334960936 0.2
v 0.002423286736011505 0.38028793334960936 0.1
v -0.001299346536397934 0.3813582992553711 0.2
v -0.001299346536397934 0.3813582992553711 0.1
v -0.00312334418296814 0.3821883773803711 0.2
v -0.00312334418296814 0.3821883773803711 0.1
v -0.004881647229194641 0.3832141494750977 0.2
v -0.004881647229194641 0.3832141494750977 0.1
v -0.00654341459274292 0.38442699432373045 0.2
v -0.00654341459274292 0.38442699432373045 0.1
v -0.008079587817192077 0.3858119201660156 0.2
v -0.008079587817192077 0.3858119201660156 0.1
v -0.009464516043663026 0.3873480987548828 0.2
v -0.009464516043663026 0.3873480987548828 0.1
v -0.010677362680435181 0.3890098571777344 0.2
v -0.010677362680435181 0.3890098571777344 0.1
v -0.011703132390975953 0.3907681655883789 0.2
v -0.011703132390975953 0.3907681655883789 0.1
v -0.012533218860626222 0.39259216308593753 0.2
v -0.012533218860626222 0.39259216308593753 0.1
v -0.013603559732437135 0.396314811706543 0.2
v -0.013603559732437135 0.396314811706543 0.1
v -0.013937451839447022 0.39995407104492187 0.2
v -0.013937451839447022 0.39995407104492187 0.1
v -0.013603559732437135 0.4035933303833008 0.2
v -0.013603559732437135 0.4035933303833008 0.1
v -0.012533218860626222 0.4073159408569336 0.2
v -0.012533218860626222 0.4073159408569336 0.1
v -0.011703132390975953 0.4091399383544922 0.2
v -0.011703132390975953 0.4091399383544922 0.1
v -0.010677362680435181 0.41089824676513675 0.2
v -0.010677362680435181 0.41089824676513675 0.1
v -0.009464516043663026 0.4125600051879883 0.2
v -0.009464516043663026 0.4125600051879883 0.1
v -0.008079587817192077 0.4140961837768555 0.2
v -0.008079587817192077 0.4140961837768555 0.1
v -0.00654341459274292 0.41548110961914064 0.2
v -0.00654341459274292 0.41548110961914064 0.1
v -0.004881647229194641 0.41669395446777346 0.2
v -0.004881647229194641 0.41669395446777346 0.1
v -0.00312334418296814 0.4177197265625 0.2
v -0.00312334418296814 0.4177197265625 0.1
v -0.001299346536397934 0.4185498046875 0.2
v -0.001299346536397934 0.4185498046875 0.1
v 0.002423286736011505 0.41962017059326173 0.2
v 0.002423286736011505 0.41962017059326173 0.1
v 0.006062547564506531 0.4199540710449219 0.1
v 0.006597718596458435 0.4054546356201172 0.1
v 0.006062547564506531 0.396314811706543 0.1
v 0.0005619700998067856 0.3994188690185547 0.2
vn -0.0 0.0 1.0
vn 0.276327520608902 0.9610635042190552 -6.82522684694603e-16
vn 0.276327520608902 0.9610635042190552 -6.649594459453732e-15
vn 0.4142148196697235 0.9101791381835938 -2.575276621184612e-16
vn 0.5039051175117493 0.8637589812278748 -6.473045370554268e-16
vn 0.5895342230796814 0.8077434301376343 8.598860898937331e-16
vn 0.6695982217788696 0.7427235245704651 9.96001372841743e-16
vn 0.7427235245704651 0.6695982217788696 -3.6281907200875227e-16
vn 0.8077434301376343 0.5895342230796814 3.47147215479094e-16
vn 0.8637589812278748 0.5039051175117493 -1.0357797341106994e-15
vn 0.9101791381835938 0.4142148196697235 -3.17366918776128e-15
vn 0.9610635042190552 0.276327520608902 6.849060300026868e-14
vn 0.9958176016807556 0.09136364609003067 0.0
vn 0.9958176016807556 -0.09136364609003067 6.775178317070733e-17
vn 0.9610635042190552 -0.276327520608902 -6.212956174924192e-15
vn 0.9101791381835938 -0.4142148196697235 -1.2126021764241097e-16
vn 0.8637589812278748 -0.5039051175117493 -3.9640472246077333e-16
vn 0.8077434301376343 -0.5895342230796814 -2.152260823438628e-16
vn 0.7427235245704651 -0.6695982217788696 1.3193420920635444e-16
vn 0.6695982217788696 -0.7427235245704651 3.0471581467043907e-16
vn 0.5895342230796814 -0.8077434301376343 2.6180577407213646e-17
vn 0.5039051175117493 -0.8637589812278748 4.794704113315852e-16
vn 0.4142148196697235 -0.9101791381835938 -2.5162996228914264e-15
vn 0.276327520608902 -0.9610635042190552 6.90775697276616e-14
vn 0.09136364609003067 -0.9958176016807556 0.0
vn -0.09136364609003067 -0.9958176016807556 -1.5215103318633278e-18
vn -0.276327520608902 -0.9610635042190552 -6.1193433641430674e-15
vn -0.4142148196697235 -0.9101791381835938 -4.098877135058285e-16
vn -0.5039051175117493 -0.8637589812278748 2.517511885857625e-16
vn -0.5895342230796814 -0.8077434301376343 4.626687716689673e-16
vn -0.6695982217788696 -0.7427235245704651 -7.43403363066963e-17
vn -0.7427235245704651 -0.6695982217788696 -6.901712333896317e-16
vn -0.8077434301376343 -0.5895342230796814 -0.0
vn -0.8637589812278748 -0.5039051175117493 -2.6851023837300126e-16
vn -0.9101791381835938 -0.4142148196697235 -2.7985117309170093e-15
vn -0.9610635042190552 -0.276327520608902 6.84222982634021e-14
vn -0.9958176016807556 -0.09136364609003067 -0.0
vn -0.9958176016807556 0.09136364609003067 -4.4223186512008095e-17
vn -0.9610635042190552 0.276327520608902 -5.474549273924625e-15
vn -0.9101791381835938 0.4142148196697235 4.875844575706893e-16
vn -0.8637589812278748 0.5039051175117493 3.580461207603131e-16
vn -0.8077434301376343 0.5895342230796814 -1.9729056996733681e-16
vn -0.7427235245704651 0.6695982217788696 -2.638684184127089e-16
vn -0.6695982217788696 0.7427235245704651 -1.5611469697963937e-16
vn -0.5895342230796814 0.8077434301376343 4.5816012116985105e-17
vn -0.5039051175117493 0.8637589812278748 -1.9580647229079622e-17
vn -0.4142148196697235 0.9101791381835938 -4.15639744844043e-15
vn -0.276327520608902 0.9610635042190552 6.78191904761663e-14
vn -0.09136364609003067 0.9958176016807556 0.0
vn 0.09136364609003067 0.9958176016807556 -7.075709841921295e-16
vn -0.0 0.0 -1.0
vn 0.09136364609003067 0.9958176016807556 0.0
vn -0.0 -0.0 -1.0
vn -0.09136364609003067 0.9958176016807556 -6.526171340533529e-14
vn -0.0 -0.0 -1.0
vn -0.276327520608902 0.9610635042190552 4.7704929470680085e-15
vn -0.0 -0.0 -1.0
vn -0.4142148196697235 0.9101791381835938 -1.5581359661922517e-17
vn -0.0 -0.0 -1.0
vn -0.5039051175117493 0.8637589812278748 3.920007599399818e-17
vn -0.0 -0.0 -1.0
vn -0.5895342230796814 0.8077434301376343 -1.3828569899623062e-16
vn -0.0 -0.0 -1.0
vn -0.6695982217788696 0.7427235245704651 -2.365192068535252e-16
vn -0.0 -0.0 -1.0
vn -0.7427235245704651 0.6695982217788696 -1.8116364498676617e-16
vn -0.0 -0.0 -1.0
vn -0.8077434301376343 0.5895342230796814 4.199163189035234e-16
vn -0.0 -0.0 -1.0
vn -0.8637589812278748 0.5039051175117493 6.203838182884355e-16
vn -0.0 -0.0 -1.0
vn -0.9101791381835938 0.4142148196697235 3.70230435596682e-15
vn 0.0 -0.0 -1.0
vn -0.9610635042190552 0.276327520608902 -4.299355275294597e-17
vn 0.0 0.0 -1.0
vn 0.9958176016807556 -0.09136364609003067 0.0
vn 0.0 0.0 -1.0
vn 0.0 0.0 -1.0
vn 0.9958176016807556 0.09136364609003067 -6.464843444646887e-14
vn 4.776239853856892e-16 4.909102689106123e-15 -1.0
vn 0.9610635042190552 0.276327520608902 5.804129793701273e-15
vn 1.8982025288627816e-15 -8.874954570347541e-15 -1.0
vn 0.9101791381835938 0.4142148196697235 -8.422590695635751e-16
vn -0.0 0.0 -1.0
vn 0.8637589812278748 0.5039051175117493 2.812179295735227e-16
vn -0.0 0.0 -1.0
vn 0.8077434301376343 0.5895342230796814 -3.9462015638980653e-16
vn -0.0 0.0 -1.0
vn 0.7427235245704651 0.6695982217788696 8.856889369285856e-16
vn -0.0 0.0 -1.0
vn 0.6695982217788696 0.7427235245704651 7.280094656929022e-16
vn -0.0 0.0 -1.0
vn 0.5895342230796814 0.8077434301376343 -6.121671751835951e-16
vn -0.0 0.0 -1.0
vn 0.5039051175117493 0.8637589812278748 -3.1360060795198545e-16
vn -0.0 0.0 -1.0
vn 0.4142148196697235 0.9101791381835938 2.470511139345227e-15
vn -0.0 0.0 -1.0
vn -0.0 0.0 1.0
vn -0.0 0.0 1.0
vn -0.0 0.0 1.0
vn -0.0 0.0 1.0
vn -0.0 0.0 1.0
vn -0.0 0.0 1.0
vn -0.0 0.0 1.0
vn -0.0 0.0 1.0
vn -0.0 0.0 1.0
vn 0.0 0.0 1.0
vn 0.9610635042190552 -0.276327520608902 -6.986452156917597e-17
vn 9.032579355018567e-16 -4.963963742550363e-15 -1.0
vn -0.0 0.0 -1.0
vn -0.9958176016807556 0.09136364609003067 0.0
vn -0.0 -0.0 -1.0
vn -0.9958176016807556 -0.09136364609003067 -6.458103095265816e-14
vn 0.0 -0.0 -1.0
vn -0.9610635042190552 -0.276327520608902 6.083587985857095e-15
vn 0.0 -0.0 -1.0
vn -0.9101791381835938 -0.4142148196697235 -2.830613644343237e-16
vn 0.0 -0.0 -1.0
vn -0.8637589812278748 -0.5039051175117493 0.0
vn 0.0 -0.0 -1.0
vn -0.8077434301376343 -0.5895342230796814 -6.509546137833824e-16
vn 0.0 -0.0 -1.0
vn -0.7427235245704651 -0.6695982217788696 -8.219461474623431e-17
vn 0.0 -0.0 -1.0
vn -0.6695982217788696 -0.7427235245704651 4.0090844958088365e-16
vn 0.0 -0.0 -1.0
vn -0.5895342230796814 -0.8077434301376343 2.9512192246314284e-16
vn 0.0 -0.0 -1.0
vn -0.5039051175117493 -0.8637589812278748 -3.2553106701406227e-16
vn 0.0 -0.0 -1.0
vn -0.4142148196697235 -0.9101791381835938 2.887745381360829e-15
vn 0.0 -0.0 -1.0
vn -0.276327520608902 -0.9610635042190552 -3.582796338472368e-18
vn 0.0 0.0 -1.0
vn -0.09136364609003067 -0.9958176016807556 0.0
vn 0.0 0.0 -1.0
vn 0.09136364609003067 -0.9958176016807556 -6.38823100863363e-14
vn 0.0 0.0 -1.0
vn 0.276327520608902 -0.9610635042190552 6.61921604631693e-15
vn 0.0 0.0 -1.0
vn 0.4142148196697235 -0.9101791381835938 5.366912985668758e-16
vn 0.0 0.0 -1.0
vn 0.5039051175117493 -0.8637589812278748 2.215656541154733e-17
vn -6.640657414827252e-15 -5.547560972879104e-15 -1.0
vn 0.5895342230796814 -0.8077434301376343 3.7775604804732863e-16
vn 5.223072391664875e-15 7.032874326987461e-15 -1.0
vn 0.6695982217788696 -0.7427235245704651 1.1909832486322198e-16
vn 0.0 0.0 -1.0
vn 0.7427235245704651 -0.6695982217788696 -1.9793806048106372e-16
vn 4.3427218269468e-15 7.52001356286525e-15 -1.0
vn 0.8077434301376343 -0.5895342230796814 -4.536445355884792e-16
vn -2.6681806771471214e-15 -8.5460965696749e-15 -1.0
vn 0.8637589812278748 -0.5039051175117493 -1.1419152917422682e-16
vn 0.0 0.0 -1.0
vn 0.9101791381835938 -0.4142148196697235 2.6773970308879586e-15
vn 9.032579355018567e-16 4.512067853541931e-15 -1.0
vn 0.0 0.0 1.0
vn 0.0 0.0 1.0
vn 0.0 0.0 1.0
vn 0.0 0.0 1.0
vn 0.0 0.0 1.0
vn 0.0 0.0 1.0
vn 0.0 0.0 1.0
vn 0.0 0.0 1.0
vn 0.0 -0.0 1.0
vn 0.0 0.0 1.0
vn 0.0 0.0 1.0
vn 0.0 0.0 1.0
vn 0.0 0.0 1.0
vn 0.0 -0.0 1.0
vn 0.0 -0.0 1.0
vn 0.0 -0.0 1.0
vn 0.0 -0.0 1.0
vn 0.0 -0.0 1.0
vn 0.0 -0.0 1.0
vn 0.0 -0.0 1.0
vn 1.0399689261337587e-14 -1.474481073262396e-14 1.0
vn 2.3593488646881777e-15 6.783662410828669e-16 1.0
vn 3.6154452565115096e-16 9.795354970394167e-15 1.0
vn -0.0 -0.0 1.0
vn -0.0 -0.0 1.0
vn -0.0 -0.0 1.0
vn -1.0950875622972589e-14 -1.3816762472096573e-14 1.0
vn 2.6831271240728392e-14 2.3175361843898006e-14 1.0
vn -1.5518229740498282e-14 -9.136668269291333e-15 1.0
vn -0.0 -0.0 1.0
vn -0.0 -0.0 1.0
vn -0.0 -0.0 1.0
vn -0.0 -0.0 1.0
vn -0.0 0.0 1.0
vn 0.0 -0.0 1.0
vn 0.0 0.0 1.0
vn 0.0 0.0 1.0
vn -0.0 0.0 1.0
vn -0.0 0.0 1.0
f 1//1 2//1 3//1
f 3//2 4//2 5//2
f 5//3 4//3 6//3
f 6//4 7//4 8//4
f 8//5 9//5 10//5
f 10//6 11//6 12//6
f 12//7 13//7 14//7
f 14//8 15//8 16//8
f 16//9 17//9 18//9
f 18//10 19//10 20//10
f 20//11 21//11 22//11
f 22//12 23//12 24//12
f 24//13 25//13 26//13
f 26//14 27//14 28//14
f 28//15 29//15 30//15
f 30//16 31//16 32//16
f 32//17 33//17 34//17
f 34//18 35//18 36//18
f 36//19 37//19 38//19
f 38//20 39//20 40//20
f 40//21 41//21 42//21
f 42//22 43//22 44//22
f 44//23 45//23 46//23
f 46//24 47//24 48//24
f 48//25 49//25 50//25
f 50//26 51//26 52//26
f 52//27 53//27 54//27
f 54//28 55//28 56//28
f 56//29 57//29 58//29
f 58//30 59//30 60//30
f 60//31 61//31 62//31
f 62//32 63//32 64//32
f 64//33 65//33 66//33
f 66//34 67//34 68//34
f 68//35 69//35 70//35
f 70//36 71//36 72//36
f 72//37 73//37 74//37
f 74//38 75//38 76//38
f 76//39 77//39 78//39
f 78//40 79//40 80//40
f 80//41 81//41 82//41
f 82//42 83//42 84//42
f 84//43 85//43 86//43
f 86//44 87//44 88//44
f 88//45 89//45 90//45
f 90//46 91//46 92//46
f 92//47 93//47 94//47
f 94//48 95//48 96//48
f 96//49 1//49 97//49
f 97//50 3//50 5//50
f 5//51 98//51 97//51
f 1//52 3//52 97//52
f 97//53 98//53 96//53
f 95//54 1//54 96//54
f 96//55 98//55 94//55
f 93//56 95//56 94//56
f 94//57 98//57 92//57
f 91//58 93//58 92//58
f 92//59 98//59 90//59
f 89//60 91//60 90//60
f 90//61 98//61 88//61
f 87//62 89//62 88//62
f 88//63 98//63 86//63
f 85//64 87//64 86//64
f 86//65 98//65 84//65
f 83//66 85//66 84//66
f 84//67 98//67 82//67
f 81//68 83//68 82//68
f 82//69 98//69 80//69
f 79//70 81//70 80//70
f 80//71 98//71 78//71
f 77//72 79//72 78//72
f 78//73 98//73 76//73
f 75//74 77//74 76//74
f 74//75 76//75 26//75
f 25//76 27//76 26//76
f 76//77 98//77 26//77
f 26//78 98//78 24//78
f 23//79 25//79 24//79
f 24//80 98//80 22//80
f 21//81 23//81 22//81
f 22//82 98//82 20//82
f 19//83 21//83 20//83
f 20//84 98//84 18//84
f 17//85 19//85 18//85
f 18//86 98//86 16//86
f 15//87 17//87 16//87
f 16//88 98//88 14//88
f 13//89 15//89 14//89
f 14//90 98//90 12//90
f 11//91 13//91 12//91
f 12//92 98//92 10//92
f 9//93 11//93 10//93
f 10//94 98//94 8//94
f 7//95 9//95 8//95
f 8//96 98//96 6//96
f 4//97 7//97 6//97
f 6//98 98//98 5//98
f 7//99 2//99 9//99
f 9//100 2//100 11//100
f 11//101 2//101 13//101
f 13//102 2//102 15//102
f 15//103 2//103 17//103
f 17//104 2//104 19//104
f 19//105 2//105 21//105
f 21//106 2//106 23//106
f 23//107 2//107 25//107
f 25//108 2//108 27//108
f 27//109 29//109 28//109
f 28//110 99//110 26//110
f 26//111 99//111 74//111
f 73//112 75//112 74//112
f 74//113 99//113 72//113
f 71//114 73//114 72//114
f 72//115 99//115 70//115
f 69//116 71//116 70//116
f 70//117 99//117 68//117
f 67//118 69//118 68//118
f 68//119 99//119 66//119
f 65//120 67//120 66//120
f 66//121 99//121 64//121
f 63//122 65//122 64//122
f 64//123 99//123 62//123
f 61//124 63//124 62//124
f 62//125 99//125 60//125
f 59//126 61//126 60//126
f 60//127 99//127 58//127
f 57//128 59//128 58//128
f 58//129 99//129 56//129
f 55//130 57//130 56//130
f 56//131 99//131 54//131
f 53//132 55//132 54//132
f 54//133 99//133 52//133
f 51//134 53//134 52//134
f 52//135 99//135 50//135
f 49//136 51//136 50//136
f 50//137 99//137 48//137
f 47//138 49//138 48//138
f 48//139 99//139 46//139
f 45//140 47//140 46//140
f 46//141 99//141 44//141
f 43//142 45//142 44//142
f 44//143 99//143 42//143
f 41//144 43//144 42//144
f 42//145 99//145 40//145
f 39//146 41//146 40//146
f 40//147 99//147 38//147
f 37//148 39//148 38//148
f 38//149 99//149 36//149
f 35//150 37//150 36//150
f 36//151 99//151 34//151
f 33//152 35//152 34//152
f 34//153 99//153 32//153
f 31//154 33//154 32//154
f 32//155 99//155 30//155
f 29//156 31//156 30//156
f 30//157 99//157 28//157
f 31//158 2//158 33//158
f 33//159 2//159 35//159
f 35//160 2//160 37//160
f 37//161 2//161 39//161
f 39//162 2//162 41//162
f 41//163 2//163 43//163
f 43//164 2//164 45//164
f 45//165 2//165 47//165
f 47//166 2//166 49//166
f 1//167 95//167 49//167
f 95//168 100//168 49//168
f 49//169 100//169 51//169
f 51//170 100//170 53//170
f 53//171 100//171 55//171
f 55//172 100//172 57//172
f 57//173 100//173 59//173
f 59//174 100//174 61//174
f 61//175 100//175 63//175
f 63//176 100//176 65//176
f 65//177 100//177 67//177
f 67//178 100//178 69//178
f 69//179 100//179 71//179
f 71//180 100//180 73//180
f 73//181 100//181 75//181
f 75//182 100//182 77//182
f 77//183 100//183 79//183
f 79//184 100//184 81//184
f 81//185 100//185 83//185
f 83//186 100//186 85//186
f 85//187 100//187 87//187
f 87//188 100//188 89//188
f 89//189 100//189 91//189
f 91//190 100//190 93//190
f 93//191 100//191 95//191
f 49//192 2//192 1//192
f 29//193 2//193 31//193
f 27//194 2//194 29//194
f 4//195 2//195 7//195
f 3//196 2//196 4//196
