mtllib part_7.mtl
usemtl part_7

v 1.0393106842041016 -0.007395111322402954 0.15
v 1.0209832000732422 -0.030706942081451416 0.15
v 1.0331398773193359 -0.022399997711181643 0.15
v 1.0393106842041016 -0.007395111322402954 0.1
v 1.0331398773193359 -0.022399997711181643 0.1
v 1.0225676727294921 -0.03302574872970581 0.15
v 1.0390143585205078 0.008826422691345216 0.1
v 0.4529232406616211 0.7504789733886719 0.1
v 1.0390143585205078 0.008826422691345216 0.15
v 1.0330261993408203 0.022567589282989502 0.1
v 1.0330261993408203 0.022567589282989502 0.15
v 0.5252595901489258 0.7656510925292969 0.1
v 0.4715924453735352 0.7289790344238282 0.1
v 0.4782335662841797 0.7223714447021484 0.15
v 0.4782335662841797 0.7223714447021484 0.1
v 0.4876116180419922 0.718514633178711 0.15
v 0.4876116180419922 0.718514633178711 0.1
v 0.4977500534057617 0.7186998748779297 0.15
v 0.4977500534057617 0.7186998748779297 0.1
v 0.5063383102416992 0.7224424743652343 0.15
v 0.4715924453735352 0.7289790344238282 0.15
v 0.46784988403320316 0.7375672912597656 0.1
v 0.46784988403320316 0.7375672912597656 0.15
v 0.46766464233398436 0.7477057647705079 0.1
v 0.46766464233398436 0.7477057647705079 0.15
v 0.47152141571044925 0.7570838165283204 0.1
v 0.47152141571044925 0.7570838165283204 0.15
v 0.4781290435791016 0.7637248992919922 0.1
v 0.4781290435791016 0.7637248992919922 0.15
v 0.48671726226806644 0.7674674987792969 0.1
v 0.48671726226806644 0.7674674987792969 0.15
v 0.4968557357788086 0.7676526641845703 0.1
v 0.49962898254394533 0.7823941040039063 0.1
v 0.4968557357788086 0.7676526641845703 0.15
v 0.5062337875366211 0.7637959289550782 0.1
v 0.5062337875366211 0.7637959289550782 0.15
v 0.512874870300293 0.7571883392333985 0.1
v 0.5146338653564453 0.7762232208251953 0.15
v 0.5146338653564453 0.7762232208251953 0.1
v 0.5252595901489258 0.7656510925292969 0.15
v 0.49962898254394533 0.7823941040039063 0.15
v 0.4834074401855469 0.7820977783203125 0.1
v 0.512874870300293 0.7571883392333985 0.15
v 0.5166174697875977 0.748600082397461 0.1
v 0.5166174697875977 0.748600082397461 0.15
v 0.5168026733398438 0.7384616088867187 0.1
v 0.5168026733398438 0.7384616088867187 0.15
v 0.5129458999633789 0.7290835571289063 0.1
v 0.5129458999633789 0.7290835571289063 0.15
v 0.5063383102416992 0.7224424743652343 0.1
v 0.4712507629394531 0.7737908172607422 0.1
v 0.4834074401855469 0.7820977783203125 0.15
v 0.4696662521362305 0.776109619140625 0.1
v 0.4696662521362305 0.776109619140625 0.15
v 0.4590940856933594 0.7654838562011719 0.1
v 0.4590940856933594 0.7654838562011719 0.15
v 0.4529232406616211 0.7504789733886719 0.15
v 0.4532196044921875 0.7342574310302734 0.1
v 1.0206414794921874 0.01410481333732605 0.1
v 1.0243840789794922 0.005516583323478699 0.1
v 1.024569320678711 -0.004621875286102295 0.1
v 1.0243840789794922 0.005516583323478699 0.15
v 1.0206414794921874 0.01410481333732605 0.15
v 1.024569320678711 -0.004621875286102295 0.15
v 1.0207125091552736 -0.013999929428100586 0.1
v 1.0207125091552736 -0.013999929428100586 0.15
v 1.0141049194335938 -0.020641024112701415 0.1
v 1.0055166625976564 -0.02438360691070557 0.1
v 1.0141049194335938 -0.020641024112701415 0.15
v 1.0055166625976564 -0.02438360691070557 0.15
v 0.9953781890869141 -0.02456883192062378 0.1
v 0.97760009765625 -0.033139395713806155 0.1
v 0.9953781890869141 -0.02456883192062378 0.15
v 0.9860001373291016 -0.020712051391601562 0.1
v 0.9860001373291016 -0.020712051391601562 0.15
v 0.9793590545654297 -0.014104442596435547 0.1
v 0.9793590545654297 -0.014104442596435547 0.15
v 0.975616455078125 -0.005516213178634643 0.1
v 0.975616455078125 -0.005516213178634643 0.15
v 0.9754312896728515 0.00462224543094635 0.1
v 0.9754312896728515 0.00462224543094635 0.15
v 0.9792880249023438 0.014000300168991089 0.1
v 0.9792880249023438 0.014000300168991089 0.15
v 0.9858956146240234 0.020641393661499023 0.1
v 0.9858956146240234 0.020641393661499023 0.15
v 0.994483871459961 0.024383978843688967 0.1
v 0.994483871459961 0.024383978843688967 0.15
v 1.0046223449707032 0.024569201469421386 0.1
v 1.0046223449707032 0.024569201469421386 0.15
v 1.0140003967285156 0.02071242332458496 0.1
v 1.0140003967285156 0.02071242332458496 0.15
v 0.99260498046875 -0.039310240745544435 0.15
v 0.99260498046875 -0.039310240745544435 0.1
v 0.97760009765625 -0.033139395713806155 0.15
v 0.966974334716797 -0.022567219734191894 0.15
v 1.0088265228271485 -0.0390138840675354 0.1
v 1.0075862884521485 -0.036167993545532226 0.1
v 1.0088265228271485 -0.0390138840675354 0.15
v 1.0225676727294921 -0.03302574872970581 0.1
v 0.4532196044921875 0.7342574310302734 0.15
v 0.45920772552490235 0.7205162811279296 0.15
v 0.966974334716797 -0.022567219734191894 0.1
v 0.45920772552490235 0.7205162811279296 0.1
vn -1.0059392419525456e-13 -5.807375115735383e-14 1.0
vn 0.9248437285423279 -0.38034728169441223 1.2886601508110829e-11
vn 0.7088915705680847 -0.7053174376487732 -1.1834089264084469e-11
vn 0.9248437285423279 -0.38034728169441223 5.727581901598597e-14
vn 0.9998331665992737 0.0182663481682539 8.925584609516951e-14
vn 9.38857959474973e-14 6.413370946508137e-14 -1.0
vn 0.9998331665992737 0.0182663481682539 9.77529553613729e-14
vn 0.9167351722717285 0.3994954824447632 1.1341636993716236e-13
vn 9.402397751438057e-14 6.42429089526414e-14 -1.0
vn 0.9167351722717285 0.3994954824447632 1.1153156577545925e-13
vn 0.825648307800293 0.5641851425170898 1.1351789869435205e-13
vn 1.0487852177432783e-13 7.289335151108856e-14 -1.0
vn 0.7053174376487732 0.7088915705680847 1.1047828369368032e-13
vn 0.38034728169441223 0.9248437285423279 9.350180541932082e-14
vn -0.0182663481682539 0.9998331665992737 -7.956017789023662e-12
vn -0.3994954824447632 0.9167351722717285 7.427956687233728e-12
vn -0.0182663481682539 0.9998331665992737 6.080474800962757e-14
vn 9.490429546833018e-14 6.495814357330293e-14 -1.0
vn 0.38034728169441223 0.9248437285423279 9.350260501842303e-14
vn 9.087565091712643e-14 6.176430081359513e-14 -1.0
vn 0.7053174376487732 0.7088915705680847 1.1248852327047643e-13
vn 0.9167351722717285 0.3994954824447632 1.1209744477059733e-13
vn 0.9167351722717285 0.3994954824447632 7.518898698100074e-12
vn 0.9998331665992737 0.0182663481682539 -7.923272281329385e-12
vn 9.533958908805595e-14 6.481730571109706e-14 -1.0
vn 0.9998331665992737 0.0182663481682539 9.64423514464817e-14
vn 0.9248437285423279 -0.38034728169441223 6.211260753776968e-14
vn 9.503550425999166e-14 6.320092967851063e-14 -1.0
vn 0.9248437285423279 -0.38034728169441223 6.449927533258917e-14
vn 0.7088915705680847 -0.7053174376487732 2.239634394824233e-14
vn 9.647387462464671e-14 5.915068917528368e-14 -1.0
vn 0.7088915705680847 -0.7053174376487732 2.2386306607817368e-14
vn 0.3994954824447632 -0.9167351722717285 -1.9850218812970423e-14
vn 0.3994954824447632 -0.9167351722717285 7.387917534684707e-12
vn 0.0182663481682539 -0.9998331665992737 -8.080363635143417e-12
vn 9.521762989617849e-14 6.282290226228282e-14 -1.0
vn 0.0182663481682539 -0.9998331665992737 -5.517228384224748e-14
vn -0.38034728169441223 -0.9248437285423279 -8.716366116292423e-14
vn 9.235358110855005e-14 6.336170330816307e-14 -1.0
vn -0.38034728169441223 -0.9248437285423279 -9.032745796992703e-14
vn -0.7053174376487732 -0.7088915705680847 -1.0746117944061481e-13
vn 8.83895346780357e-14 6.195393454982642e-14 -1.0
vn 0.38034728169441223 0.9248437285423279 1.2929947910966799e-11
vn 0.7053174376487732 0.7088915705680847 -1.1736549232477245e-11
vn 0.38034728169441223 0.9248437285423279 9.403635774793764e-14
vn -0.0182663481682539 0.9998331665992737 6.077813762255663e-14
vn 9.763653915310228e-14 6.07305140421302e-14 -1.0
vn 9.258883942745225e-14 6.65435656338649e-14 -1.0
vn 9.778383479449801e-14 6.689074072202192e-14 -1.0
vn -0.7053174376487732 -0.7088915705680847 -1.1047387234609102e-13
vn -0.9167351722717285 -0.3994954824447632 -1.109597575496904e-13
vn -0.9167351722717285 -0.3994954824447632 7.295840147303334e-12
vn -0.9998331665992737 -0.0182663481682539 -8.113161184541973e-12
vn 9.479496723176217e-14 6.480735815616451e-14 -1.0
vn -0.9998331665992737 -0.0182663481682539 -9.49184172016268e-14
vn -0.9248437285423279 0.38034728169441223 -6.296034521643609e-14
vn 9.346365505537649e-14 6.384736489506437e-14 -1.0
vn -0.9248437285423279 0.38034728169441223 -6.474015117399756e-14
vn -0.7088915705680847 0.7053174376487732 -2.1399106648451426e-14
vn 9.557099171298225e-14 6.539861425840232e-14 -1.0
vn -0.3994954824447632 0.9167351722717285 1.9850218812970423e-14
vn -0.7088915705680847 0.7053174376487732 -2.2386306607817368e-14
vn 9.247941632319415e-14 6.307206547404715e-14 -1.0
vn 9.344737847026205e-14 6.381635671293129e-14 -1.0
vn 8.458088830015642e-14 5.754233623877364e-14 -1.0
vn 9.218996822445841e-14 6.296385532096951e-14 -1.0
vn 9.355201753243406e-14 6.513402149447081e-14 -1.0
vn 9.411422379271284e-14 6.327957499359729e-14 -1.0
vn -0.0182663481682539 0.9998331665992737 5.788398867211456e-14
vn -0.3994954824447632 0.9167351722717285 1.5543390007163524e-14
vn 9.006553505384526e-14 6.920457045964112e-14 -1.0
vn -0.3994954824447632 0.9167351722717285 1.9850218812970423e-14
vn -0.7088915705680847 0.7053174376487732 -2.2398156598749455e-14
vn -0.7088915705680847 0.7053174376487732 -1.1874451075200021e-11
vn -0.9248437285423279 0.38034728169441223 1.2766914261885809e-11
vn 9.202864571745614e-14 6.633167864804335e-14 -1.0
vn -0.9248437285423279 0.38034728169441223 -6.188799472894857e-14
vn -0.9998331665992737 -0.0182663481682539 -9.4970059106355e-14
vn 9.462018028903035e-14 6.398562777711059e-14 -1.0
vn 9.345833568846773e-14 6.380297359236467e-14 -1.0
vn 9.392635188501183e-14 6.318353500990581e-14 -1.0
vn -0.9998331665992737 -0.0182663481682539 -8.114543759152326e-12
vn -0.9167351722717285 -0.3994954824447632 7.295370904603082e-12
vn -0.9998331665992737 -0.0182663481682539 -9.499300353483023e-14
vn -0.9248437285423279 0.38034728169441223 -6.141061373613962e-14
vn 9.336258030784653e-14 6.199476831414766e-14 -1.0
vn -0.9248437285423279 0.38034728169441223 -5.848839750195733e-14
vn -0.7088915705680847 0.7053174376487732 -1.6957254014588613e-14
vn 9.454522803759371e-14 6.37444131225233e-14 -1.0
vn -0.3994954824447632 0.9167351722717285 2.2291499904097088e-14
vn -0.3994954824447632 0.9167351722717285 7.43079729692564e-12
vn -0.0182663481682539 0.9998331665992737 -7.955292674610703e-12
vn 9.524149589650033e-14 6.151648607828283e-14 -1.0
vn -0.0182663481682539 0.9998331665992737 6.147809854511327e-14
vn 0.38034728169441223 0.9248437285423279 9.29957879366311e-14
vn 9.429571246012333e-14 6.347834313313178e-14 -1.0
vn 0.38034728169441223 0.9248437285423279 9.445514438958733e-14
vn 0.7053174376487732 0.7088915705680847 1.0886158240044214e-13
vn 9.327051799087535e-14 6.417130417541231e-14 -1.0
vn 0.7053174376487732 0.7088915705680847 1.1148119780828372e-13
vn 0.9167351722717285 0.3994954824447632 1.1152860454827565e-13
vn 0.9167351722717285 0.3994954824447632 7.520014992656865e-12
vn 0.9998331665992737 0.0182663481682539 -7.92186021641994e-12
vn 9.225406490164303e-14 6.300883615860051e-14 -1.0
vn 0.9998331665992737 0.0182663481682539 9.495331495905368e-14
vn 0.9248437285423279 -0.38034728169441223 6.223826656956075e-14
vn 9.515938113446171e-14 6.504414791063534e-14 -1.0
vn 0.9248437285423279 -0.38034728169441223 6.557225601258945e-14
vn 0.7088915705680847 -0.7053174376487732 2.4369654582604046e-14
vn 9.40417381012186e-14 6.424536196005665e-14 -1.0
vn 0.7088915705680847 -0.7053174376487732 2.3393630375944177e-14
vn 0.3994954824447632 -0.9167351722717285 -2.0016130544480912e-14
vn 0.3994954824447632 -0.9167351722717285 7.387673806036332e-12
vn 0.0182663481682539 -0.9998331665992737 -8.08062991519698e-12
vn 9.344763596827801e-14 6.38023162947976e-14 -1.0
vn 0.0182663481682539 -0.9998331665992737 -6.119616532268557e-14
vn -0.38034728169441223 -0.9248437285423279 -9.499353208338931e-14
vn 9.487512365362674e-14 6.488722319869522e-14 -1.0
vn -0.38034728169441223 -0.9248437285423279 -9.240772345453854e-14
vn -0.7053174376487732 -0.7088915705680847 -1.072875309101641e-13
vn 9.107860001128856e-14 6.196827989982112e-14 -1.0
vn -0.7053174376487732 -0.7088915705680847 -1.114930494932817e-13
vn -0.9167351722717285 -0.3994954824447632 -1.1152860454827565e-13
vn -9.080004136812272e-14 -6.232088955136772e-14 1.0
vn -9.211610695145783e-14 -6.301104522052695e-14 1.0
vn -8.964974352069707e-14 -6.139290735941022e-14 1.0
vn -9.864168943468643e-14 -6.720927254403458e-14 1.0
vn -9.239864326134398e-14 -6.325740983543354e-14 1.0
vn -9.402440441898599e-14 -6.426260755086274e-14 1.0
vn -9.338827589933443e-14 -6.38783595246703e-14 1.0
vn -9.496399435045266e-14 -6.481044813235609e-14 1.0
vn -1.0436515882191952e-13 -7.030066497470608e-14 1.0
vn -1.0226810853242521e-13 -6.783779131968801e-14 1.0
vn -9.059544564191113e-14 -6.369245273340693e-14 1.0
vn -9.697576536281741e-14 -6.249214606077538e-14 1.0
vn -9.01646446849376e-14 -6.838384296759675e-14 1.0
vn -0.7088915705680847 0.7053174376487732 -1.936433191530515e-14
vn 9.413254680942784e-14 5.927856404526477e-14 -1.0
vn 9.359483674198366e-14 6.676663345459022e-14 -1.0
vn -0.38034728169441223 -0.9248437285423279 1.2734016965887385e-11
vn -0.7053174376487732 -0.7088915705680847 -1.1961996497500405e-11
vn -0.38034728169441223 -0.9248437285423279 -9.231192064007229e-14
vn 0.0182663481682539 -0.9998331665992737 -6.317992326141872e-14
vn 9.526481301947234e-14 6.024007518940638e-14 -1.0
vn 0.0182663481682539 -0.9998331665992737 -6.195898964245564e-14
vn 0.3994954824447632 -0.9167351722717285 -2.09105515970023e-14
vn 9.526481301947234e-14 6.024007518940638e-14 -1.0
vn 0.3994954824447632 -0.9167351722717285 -2.1153814377256053e-14
vn 0.7088915705680847 -0.7053174376487732 2.1390832830622646e-14
vn -9.263789957575722e-14 -6.330167916538884e-14 1.0
vn -9.527950395890952e-14 -5.94358546754381e-14 1.0
vn -9.20703061859339e-14 -6.618924158763306e-14 1.0
vn -9.499685922880613e-14 -6.0620257457452e-14 1.0
vn -9.234157356948977e-14 -6.809715280813727e-14 1.0
vn -9.138133636290083e-14 -6.299289838666497e-14 1.0
vn -8.995234434703778e-14 -6.158480436767658e-14 1.0
vn 0.7053174376487732 0.7088915705680847 1.1249444572484363e-13
vn 0.825648307800293 0.5641851425170898 1.1217101466426405e-13
vn 1.0451886480866007e-13 7.14441255721815e-14 -1.0
vn -9.922233390816104e-14 -6.780097587966855e-14 1.0
vn -9.547594784003674e-14 -6.52578238300415e-14 1.0
vn -9.415862187167612e-14 -6.313311960888524e-14 1.0
vn -9.562621826114323e-14 -6.534366553704804e-14 1.0
vn -8.042789253603216e-14 -5.6360532153841916e-14 1.0
vn -9.006022923946366e-14 -6.195288422897183e-14 1.0
vn -9.543814306553489e-14 -6.510479546965875e-14 1.0
vn -7.44667524800631e-14 -5.252314764212819e-14 1.0
vn -9.517204597108905e-14 -6.531775310512564e-14 1.0
vn -8.714825193954778e-14 -5.531033666012278e-14 1.0
vn -9.349483264409902e-14 -6.121898100215281e-14 1.0
vn -9.518835643752138e-14 -6.160211094485488e-14 1.0
vn -1.0487090525406612e-13 -5.882038698343597e-14 1.0
vn -9.76359767232253e-14 -6.023730369760297e-14 1.0
vn -9.180100391881565e-14 -6.65047579723535e-14 1.0
vn -9.412004460312637e-14 -6.376768281165027e-14 1.0
vn -9.981943114960312e-14 -6.80650604238317e-14 1.0
vn -8.963762756141955e-14 -6.13634509416365e-14 1.0
vn -9.51779548729291e-14 -6.499442368849973e-14 1.0
vn -9.081465099239697e-14 -6.214591287325572e-14 1.0
vn -9.734118892879007e-14 -6.631214268014787e-14 1.0
vn -9.525012885629874e-14 -6.50068310271111e-14 1.0
vn -9.197579763781105e-14 -6.300375396091698e-14 1.0
vn -1.278249018134628e-13 -8.466069235631493e-14 1.0
vn -1.0640444824067466e-13 -6.930674296187073e-14 1.0
vn -9.384308515816495e-14 -6.410490356861115e-14 1.0
vn -9.404193461286237e-14 -6.427454732728724e-14 1.0
vn -0.825648307800293 -0.5641851425170898 -1.1419211659157574e-13
vn -0.825648307800293 -0.5641851425170898 -1.143196594246415e-13
vn -0.9167351722717285 -0.3994954824447632 -1.124317381816925e-13
vn -0.9998331665992737 -0.0182663481682539 -9.770847596724669e-14
vn 9.220812183458396e-14 6.300800267818041e-14 -1.0
vn -0.7053174376487732 -0.7088915705680847 -1.1148712026265092e-13
vn -9.386534518401879e-14 -6.41404247422872e-14 1.0
vn -0.9167351722717285 -0.3994954824447632 -1.1209448354341373e-13
vn 9.40966800463093e-14 6.427458798486871e-14 -1.0
vn 8.877787556742928e-14 6.06640321201661e-14 -1.0
vn 9.386368499944217e-14 6.411649097932959e-14 -1.0
vn 9.204158838089019e-14 6.286192676422872e-14 -1.0
vn 9.403774688197114e-14 6.424244816671809e-14 -1.0
vn 9.374592031471951e-14 6.598526927767065e-14 -1.0
vn 9.384793696288682e-14 6.699533912661246e-14 -1.0
vn 9.425986602579553e-14 6.503138143005432e-14 -1.0
vn 9.937019197943375e-14 6.489094336739956e-14 -1.0
vn 9.749180493933904e-14 6.7305393842889e-14 -1.0
vn -9.220006485718968e-14 -6.474080847156463e-14 1.0
vn -9.14483807147419e-14 -6.519842987978003e-14 1.0
vn -9.484337685876365e-14 -6.305614125463876e-14 1.0
vn -9.345380236813403e-14 -6.439585599786121e-14 1.0
vn -9.276836975468869e-14 -6.484361116630699e-14 1.0
vn 9.006553505384526e-14 6.920457045964112e-14 -1.0
f 1//1 2//1 3//1
f 4//2 3//2 5//2
f 6//3 5//3 3//3
f 1//4 3//4 4//4
f 7//5 1//5 4//5
f 4//6 8//6 7//6
f 9//7 1//7 7//7
f 10//8 9//8 7//8
f 7//9 8//9 10//9
f 11//10 9//10 10//10
f 12//11 11//11 10//11
f 10//12 8//12 13//12
f 13//13 14//13 15//13
f 15//14 16//14 17//14
f 17//15 18//15 19//15
f 20//16 19//16 18//16
f 16//17 18//17 17//17
f 17//18 10//18 15//18
f 14//19 16//19 15//19
f 15//20 10//20 13//20
f 21//21 14//21 13//21
f 13//22 22//22 21//22
f 21//23 22//23 23//23
f 24//24 23//24 22//24
f 22//25 8//25 24//25
f 25//26 23//26 24//26
f 26//27 25//27 24//27
f 24//28 8//28 26//28
f 27//29 25//29 26//29
f 28//30 27//30 26//30
f 26//31 8//31 28//31
f 29//32 27//32 28//32
f 28//33 30//33 29//33
f 29//34 30//34 31//34
f 32//35 31//35 30//35
f 30//36 33//36 32//36
f 34//37 31//37 32//37
f 35//38 34//38 32//38
f 32//39 33//39 35//39
f 36//40 34//40 35//40
f 37//41 36//41 35//41
f 37//42 35//42 33//42
f 33//43 38//43 39//43
f 40//44 39//44 38//44
f 41//45 38//45 33//45
f 42//46 41//46 33//46
f 28//47 33//47 30//47
f 8//48 33//48 28//48
f 33//49 10//49 37//49
f 43//50 36//50 37//50
f 37//51 44//51 43//51
f 43//52 44//52 45//52
f 46//53 45//53 44//53
f 44//54 10//54 46//54
f 47//55 45//55 46//55
f 48//56 47//56 46//56
f 46//57 10//57 48//57
f 49//58 47//58 48//58
f 50//59 49//59 48//59
f 48//60 10//60 50//60
f 50//61 19//61 20//61
f 20//62 49//62 50//62
f 50//63 10//63 19//63
f 19//64 10//64 17//64
f 37//65 10//65 44//65
f 39//66 10//66 33//66
f 8//67 51//67 33//67
f 33//68 51//68 42//68
f 52//69 41//69 42//69
f 53//70 52//70 42//70
f 42//71 51//71 53//71
f 54//72 52//72 53//72
f 53//73 55//73 54//73
f 54//74 55//74 56//74
f 8//75 56//75 55//75
f 55//76 51//76 8//76
f 57//77 56//77 8//77
f 58//78 57//78 8//78
f 13//79 8//79 22//79
f 59//80 8//80 4//80
f 4//81 5//81 60//81
f 61//82 62//82 60//82
f 63//83 60//83 62//83
f 64//84 62//84 61//84
f 65//85 64//85 61//85
f 61//86 5//86 65//86
f 66//87 64//87 65//87
f 67//88 66//88 65//88
f 65//89 5//89 67//89
f 67//90 68//90 69//90
f 69//91 68//91 70//91
f 71//92 70//92 68//92
f 68//93 72//93 71//93
f 73//94 70//94 71//94
f 74//95 73//95 71//95
f 71//96 72//96 74//96
f 75//97 73//97 74//97
f 76//98 75//98 74//98
f 74//99 72//99 76//99
f 77//100 75//100 76//100
f 76//101 78//101 77//101
f 77//102 78//102 79//102
f 80//103 79//103 78//103
f 78//104 8//104 80//104
f 81//105 79//105 80//105
f 82//106 81//106 80//106
f 80//107 8//107 82//107
f 83//108 81//108 82//108
f 84//109 83//109 82//109
f 82//110 8//110 84//110
f 85//111 83//111 84//111
f 84//112 86//112 85//112
f 85//113 86//113 87//113
f 88//114 87//114 86//114
f 86//115 8//115 88//115
f 89//116 87//116 88//116
f 90//117 89//117 88//117
f 88//118 8//118 90//118
f 91//119 89//119 90//119
f 59//120 91//120 90//120
f 90//121 8//121 59//121
f 63//122 91//122 59//122
f 59//123 60//123 63//123
f 62//124 1//124 63//124
f 63//125 40//125 91//125
f 91//126 40//126 89//126
f 89//127 40//127 87//127
f 87//128 40//128 85//128
f 85//129 40//129 83//129
f 83//130 40//130 81//130
f 81//131 40//131 79//131
f 79//132 40//132 77//132
f 77//133 92//133 75//133
f 75//134 92//134 73//134
f 73//135 92//135 70//135
f 70//136 92//136 69//136
f 69//137 66//137 67//137
f 67//138 5//138 68//138
f 5//139 72//139 68//139
f 93//140 94//140 72//140
f 95//141 72//141 94//141
f 92//142 94//142 93//142
f 96//143 92//143 93//143
f 93//144 97//144 96//144
f 98//145 92//145 96//145
f 99//146 98//146 96//146
f 96//147 97//147 99//147
f 6//148 98//148 99//148
f 99//149 5//149 6//149
f 6//150 2//150 98//150
f 98//151 2//151 92//151
f 92//152 1//152 69//152
f 69//153 1//153 66//153
f 66//154 1//154 64//154
f 64//155 1//155 62//155
f 1//156 40//156 63//156
f 12//157 39//157 40//157
f 40//158 11//158 12//158
f 12//159 10//159 39//159
f 11//160 40//160 9//160
f 9//161 40//161 1//161
f 92//162 2//162 1//162
f 3//163 2//163 6//163
f 40//164 92//164 77//164
f 38//165 92//165 40//165
f 41//166 92//166 38//166
f 43//167 92//167 41//167
f 41//168 52//168 36//168
f 36//169 52//169 34//169
f 34//170 52//170 31//170
f 31//171 52//171 29//171
f 29//172 52//172 27//172
f 27//173 100//173 25//173
f 25//174 100//174 23//174
f 23//175 101//175 21//175
f 21//176 95//176 14//176
f 14//177 94//177 16//177
f 16//178 92//178 18//178
f 18//179 92//179 20//179
f 20//180 92//180 49//180
f 49//181 92//181 47//181
f 47//182 92//182 45//182
f 45//183 92//183 43//183
f 43//184 41//184 36//184
f 94//185 92//185 16//185
f 95//186 94//186 14//186
f 95//187 101//187 102//187
f 102//188 101//188 103//188
f 103//189 100//189 58//189
f 100//190 57//190 58//190
f 58//191 8//191 72//191
f 102//192 72//192 95//192
f 101//193 95//193 21//193
f 101//194 100//194 103//194
f 103//195 58//195 102//195
f 102//196 58//196 72//196
f 72//197 8//197 76//197
f 76//198 8//198 78//198
f 84//199 8//199 86//199
f 5//200 97//200 72//200
f 72//201 97//201 93//201
f 99//202 97//202 5//202
f 60//203 5//203 61//203
f 59//204 4//204 60//204
f 100//205 101//205 23//205
f 52//206 100//206 27//206
f 57//207 100//207 52//207
f 54//208 57//208 52//208
f 56//209 57//209 54//209
f 53//210 51//210 55//210
