mtllib part_7.mtl
usemtl part_7

v 0.25086174011230467 0.3362921905517578 0.03176623582839966
v 0.04822445392608643 0.33537841796875 0.03176623582839966
v 0.273518180847168 0.31168493270874026 0.03176623582839966
v 0.2517374610900879 0.28629924774169924 0.03176623582839966
v 0.273518180847168 0.31168493270874026 0.0017662356793880464
v 0.2517374610900879 0.28629924774169924 0.0017662356793880464
v 0.051768193244934084 0.28279359817504884 0.03176623582839966
v 0.051768193244934084 0.28279359817504884 0.0017662356793880464
v 0.02352963447570801 0.3073023796081543 0.03176623582839966
v 0.02352963447570801 0.3073023796081543 0.0017662356793880464
v 0.04822445392608643 0.33537841796875 0.0017662356793880464
v 0.25086174011230467 0.3362921905517578 0.0017662356793880464
vn 2.1014379532483084e-17 1.998190691940093e-16 1.0
vn 0.7589378952980042 -0.6511630415916443 0.0
vn 0.7589378952980042 -0.6511630415916443 0.0
vn 0.017528289929032326 -0.999846339225769 0.0
vn -0.6554706692695618 -0.7552206516265869 -0.0
vn -0.7508736848831177 0.6604458093643188 0.0
vn -0.004509500227868557 0.9999898076057434 0.0
vn 0.7356665730476379 0.6773438453674316 0.0
vn 2.6774521211167547e-18 1.3744604284567906e-17 -1.0
vn 0.7356665730476379 0.6773438453674316 0.0
vn 0.0 0.0 1.0
vn 0.017528289929032326 -0.999846339225769 0.0
vn -1.1272290060232159e-18 9.671541512552962e-19 -1.0
vn -7.7561577582890875e-19 -1.9089521975266063e-17 -1.0
vn -0.004509500227868557 0.9999898076057434 0.0
vn -0.7508736848831177 0.6604458093643188 0.0
vn -1.3605112061584567e-18 -1.5675548236732092e-18 -1.0
vn -0.6554706692695618 -0.7552206516265869 0.0
vn 0.0 0.0 1.0
vn 0.0 0.0 1.0
f 1//1 2//1 3//1
f 3//2 4//2 5//2
f 5//3 4//3 6//3
f 6//4 7//4 8//4
f 8//5 9//5 10//5
f 10//6 2//6 11//6
f 11//7 1//7 12//7
f 12//8 3//8 5//8
f 5//9 11//9 12//9
f 1//10 3//10 12//10
f 3//11 2//11 4//11
f 4//12 7//12 6//12
f 6//13 10//13 5//13
f 10//14 11//14 5//14
f 2//15 1//15 11//15
f 9//16 2//16 10//16
f 8//17 10//17 6//17
f 7//18 9//18 8//18
f 4//19 9//19 7//19
f 2//20 9//20 4//20
