mtllib part_4.mtl
usemtl part_4

v -0.02340071439743042 0.7682264709472656 -0.31
v -0.02340071439743042 0.7682264709472656 -0.19
v 0.03211091756820679 0.05036965370178223 -0.31
v 0.03211091756820679 0.05036965370178223 -0.19
v -0.06759142398834228 0.04265970706939697 -0.31
v -0.1231030559539795 0.760516586303711 -0.31
v -0.09558513641357422 0.6913895416259765 -0.31
v -0.08814044952392579 0.6817645263671875 -0.19
v -0.08814044952392579 0.6817645263671875 -0.31
v -0.0774852991104126 0.6758881378173828 -0.19
v -0.0774852991104126 0.6758881378173828 -0.31
v -0.06631293296813964 0.6746394348144531 -0.19
v -0.09558513641357422 0.6913895416259765 -0.19
v -0.0985366153717041 0.7022371673583985 -0.31
v -0.0985366153717041 0.7022371673583985 -0.19
v -0.09728793144226075 0.7134095001220703 -0.31
v -0.09728793144226075 0.7134095001220703 -0.19
v -0.0914115047454834 0.7240646362304688 -0.31
v -0.0914115047454834 0.7240646362304688 -0.19
v -0.08178647041320801 0.7315093231201172 -0.31
v -0.08178647041320801 0.7315093231201172 -0.19
v -0.07093890190124512 0.7344608306884766 -0.31
v -0.07093890190124512 0.7344608306884766 -0.19
v -0.059766530990600586 0.7332121276855469 -0.31
v -0.059766530990600586 0.7332121276855469 -0.19
v -0.04911138534545899 0.7273357391357422 -0.31
v -0.04911138534545899 0.7273357391357422 -0.19
v -0.041666693687438965 0.7177106475830078 -0.31
v -0.041666693687438965 0.7177106475830078 -0.19
v -0.03871521472930908 0.7068630981445313 -0.31
v -0.03871521472930908 0.7068630981445313 -0.19
v -0.03996389865875244 0.6956907653808594 -0.31
v -0.03996389865875244 0.6956907653808594 -0.19
v -0.04584033012390137 0.685035629272461 -0.31
v -0.04584033012390137 0.685035629272461 -0.19
v -0.05546535968780518 0.6775908660888672 -0.31
v -0.05546535968780518 0.6775908660888672 -0.19
v -0.06631293296813964 0.6746394348144531 -0.31
v 0.0045930007100105285 0.11949664115905761 -0.31
v -0.009205665588378906 0.07937685966491699 -0.31
v 0.0004193646833300591 0.08682154655456543 -0.19
v 0.0004193646833300591 0.08682154655456543 -0.31
v 0.006295795440673828 0.09747670173645019 -0.19
v 0.006295795440673828 0.09747670173645019 -0.31
v 0.0075444793701171875 0.10864907264709472 -0.19
v -0.009205665588378906 0.07937685966491699 -0.19
v -0.02005323886871338 0.07642538070678712 -0.31
v -0.03122560739517212 0.07767406463623047 -0.31
v -0.02005323886871338 0.07642538070678712 -0.19
v -0.03122560739517212 0.07767406463623047 -0.19
v -0.04188075542449951 0.08355050086975098 -0.31
v -0.04188075542449951 0.08355050086975098 -0.19
v -0.049325447082519534 0.0931755256652832 -0.31
v -0.049325447082519534 0.0931755256652832 -0.19
v -0.052276926040649416 0.10402310371398926 -0.31
v -0.052276926040649416 0.10402310371398926 -0.19
v -0.05102824211120605 0.11519546508789062 -0.31
v -0.05102824211120605 0.11519546508789062 -0.19
v -0.04515181064605713 0.1258506202697754 -0.31
v -0.04515181064605713 0.1258506202697754 -0.19
v -0.03552678108215332 0.13329530715942384 -0.31
v -0.03552678108215332 0.13329530715942384 -0.19
v -0.02467920780181885 0.13624678611755373 -0.31
v -0.02467920780181885 0.13624678611755373 -0.19
v -0.013506838083267213 0.13499810218811034 -0.31
v -0.013506838083267213 0.13499810218811034 -0.19
v -0.002851689457893372 0.12912167549133302 -0.31
v -0.002851689457893372 0.12912167549133302 -0.19
v 0.0045930007100105285 0.11949664115905761 -0.19
v 0.0075444793701171875 0.10864907264709472 -0.31
v -0.06759142398834228 0.04265970706939697 -0.19
v -0.1231030559539795 0.760516586303711 -0.19
vn 0.9970234036445618 0.07709948718547821 -0.0
vn 0.07709948718547821 -0.9970234036445618 0.0
vn -2.8629891494114275e-15 -6.257521013498964e-16 -1.0
vn 0.7909999489784241 0.6118162274360657 6.074444371070604e-16
vn 0.48293423652648926 0.8756566047668457 -4.007785422976973e-12
vn 0.11107376217842102 0.9938121438026428 3.705496846861944e-12
vn 0.48293423652648926 0.8756566047668457 9.656217950346387e-16
vn 6.3310516260127545e-15 1.2057708821742834e-15 -1.0
vn 0.7909999489784241 0.6118162274360657 4.007680038525807e-12
vn 0.9649205803871155 0.26254191994667053 -3.702807591793311e-12
vn 2.1915679855729828e-14 9.238085218131985e-15 -1.0
vn 0.9649205803871155 0.26254191994667053 0.0
vn 0.9938121438026428 -0.11107376217842102 0.0
vn 0.9938121438026428 -0.11107376217842102 3.704123813230709e-12
vn 0.8756566047668457 -0.48293423652648926 -4.009166696544719e-12
vn 7.7255943883945e-15 5.742058795810004e-15 -1.0
vn 0.8756566047668457 -0.48293423652648926 0.0
vn 0.6118162274360657 -0.7909999489784241 0.0
vn -1.756254947616893e-15 -2.5015318152142845e-15 -1.0
vn 0.6118162274360657 -0.7909999489784241 4.007984482495841e-12
vn 0.26254191994667053 -0.9649205803871155 -3.702210413236706e-12
vn 0.0 -0.0 -1.0
vn 0.26254191994667053 -0.9649205803871155 0.0
vn -0.11107376217842102 -0.9938121438026428 0.0
vn -0.11107376217842102 -0.9938121438026428 3.704344556793027e-12
vn -0.48293423652648926 -0.8756566047668457 -4.008715234760096e-12
vn -1.7641696234760372e-15 2.8469063230836733e-15 -1.0
vn -0.48293423652648926 -0.8756566047668457 -1.0644649813254992e-16
vn -0.7909999489784241 -0.6118162274360657 -1.756372711666341e-16
vn 6.5038251714289504e-15 -2.351713074426917e-15 -1.0
vn -0.7909999489784241 -0.6118162274360657 4.007011302625818e-12
vn -0.9649205803871155 -0.26254191994667053 -3.703047417313865e-12
vn 5.168452319094128e-15 -1.8688568606469195e-15 -1.0
vn -0.9649205803871155 -0.26254191994667053 0.0
vn -0.9938121438026428 0.11107376217842102 0.0
vn -0.9938121438026428 0.11107376217842102 3.703740439342518e-12
vn -0.8756566047668457 0.48293423652648926 -4.009048301667484e-12
vn 4.944541277069822e-15 6.073008650225007e-16 -1.0
vn -0.8756566047668457 0.48293423652648926 -4.409926162135785e-16
vn -0.6118162274360657 0.7909999489784241 -8.461651090602791e-16
vn -0.0 -0.0 -1.0
vn -0.6118162274360657 0.7909999489784241 4.008790261550432e-12
vn -0.26254191994667053 0.9649205803871155 -3.701125777383352e-12
vn -0.0 -0.0 -1.0
vn 0.11107376217842102 0.9938121438026428 0.0
vn -0.26254191994667053 0.9649205803871155 0.0
vn 3.236949536942991e-15 5.103451328359189e-16 -1.0
vn -3.725595644433945e-15 -7.095527765909086e-16 -1.0
vn -2.4637514987887825e-16 2.75362040084574e-17 -1.0
vn -1.771069342106134e-15 -1.3695620137617619e-16 -1.0
vn 0.0 0.0 -1.0
vn -0.0 0.0 -1.0
vn -0.6118162274360657 0.7909999489784241 -6.08409207633983e-17
vn -0.8756566047668457 0.48293423652648926 -4.009021413453606e-12
vn -0.9938121438026428 0.11107376217842102 3.7039004675831766e-12
vn -0.8756566047668457 0.48293423652648926 0.0
vn -0.0 -0.0 -1.0
vn -0.6118162274360657 0.7909999489784241 4.007771545189165e-12
vn -0.26254191994667053 0.9649205803871155 -3.702443733544225e-12
vn -0.0 0.0 -1.0
vn 0.11107376217842102 0.9938121438026428 0.0
vn 0.11107376217842102 0.9938121438026428 3.703850160602373e-12
vn 0.48293423652648926 0.8756566047668457 -4.0090795266900514e-12
vn -0.0 0.0 -1.0
vn 0.48293423652648926 0.8756566047668457 -9.884317305597069e-17
vn 0.7909999489784241 0.6118162274360657 -3.202123684672402e-17
vn -2.6323094671056122e-15 1.6551020612975476e-15 -1.0
vn 0.7909999489784241 0.6118162274360657 4.0077333812726934e-12
vn 0.9649205803871155 0.26254191994667053 -3.702599858657063e-12
vn 6.278306037354282e-15 -1.5668806152256969e-15 -1.0
vn 0.9649205803871155 0.26254191994667053 0.0
vn 0.9938121438026428 -0.11107376217842102 0.0
vn 0.9938121438026428 -0.11107376217842102 3.704075240973381e-12
vn 0.8756566047668457 -0.48293423652648926 -4.008867456745113e-12
vn 0.0 0.0 -1.0
vn 0.8756566047668457 -0.48293423652648926 -6.082656752540928e-17
vn 0.6118162274360657 -0.7909999489784241 -4.528349639968062e-17
vn 0.0 0.0 -1.0
vn 0.6118162274360657 -0.7909999489784241 4.007710396186637e-12
vn 0.26254191994667053 -0.9649205803871155 -3.702515290887609e-12
vn 0.0 0.0 -1.0
vn 0.26254191994667053 -0.9649205803871155 0.0
vn -0.11107376217842102 -0.9938121438026428 0.0
vn -0.11107376217842102 -0.9938121438026428 3.703934294690958e-12
vn -0.48293423652648926 -0.8756566047668457 -4.008970239111065e-12
vn 0.0 0.0 -1.0
vn -0.48293423652648926 -0.8756566047668457 2.73719570407954e-16
vn -0.7909999489784241 -0.6118162274360657 2.2504331331654834e-16
vn 0.0 0.0 -1.0
vn -0.7909999489784241 -0.6118162274360657 4.007817081680409e-12
vn -0.9649205803871155 -0.26254191994667053 -3.7024884026737315e-12
vn -0.0 -0.0 -1.0
vn -0.9649205803871155 -0.26254191994667053 0.0
vn -0.9938121438026428 0.11107376217842102 0.0
vn 0.0 0.0 1.0
vn 5.054110494511323e-15 2.1809282564917557e-16 1.0
vn -3.3632510432245535e-15 -5.254912002810139e-17 1.0
vn -3.1854732271559792e-15 -4.9771430987536074e-17 1.0
vn 3.2922309304873063e-15 -6.287579830516855e-17 1.0
vn 0.0 -0.0 1.0
vn 0.0 -0.0 1.0
vn -0.0 0.0 1.0
vn -0.0 0.0 1.0
vn -0.0 0.0 1.0
vn -0.0 0.0 1.0
vn -4.292859538440781e-15 -9.957907369235845e-15 1.0
vn -0.26254191994667053 0.9649205803871155 0.0
vn -0.0 0.0 -1.0
vn 0.07709948718547821 -0.9970234036445618 0.0
vn 0.0 -0.0 1.0
vn 0.0 0.0 1.0
vn -0.0 -0.0 1.0
vn -0.0 -0.0 1.0
vn -0.0 -0.0 1.0
vn 2.360367421807251e-15 3.3620029401767743e-15 1.0
vn 0.9970234036445618 0.07709948718547821 0.0
vn -0.07709948718547821 0.9970234036445618 0.0
vn -0.0 0.0 1.0
vn -0.0 0.0 1.0
vn 0.0 0.0 1.0
vn 0.0 0.0 1.0
vn -2.120200335217477e-15 -4.244689198246903e-15 1.0
vn 3.963251913609821e-15 4.4203117389811884e-15 1.0
vn -3.0324753599593295e-15 -1.661826232349326e-15 1.0
vn -4.819688620644538e-15 -2.6412363473367253e-15 1.0
vn 2.392126657466755e-16 6.508654768005737e-17 1.0
vn -1.003323400923517e-14 -3.7818573197960297e-16 1.0
vn 3.3632510432245535e-15 5.254912002810139e-17 1.0
vn -0.0 0.0 1.0
vn -0.0 0.0 1.0
vn -3.7464618775730815e-15 7.155081196592657e-17 1.0
vn 6.547999210177683e-15 -2.770236077071766e-16 1.0
vn 0.0 -0.0 1.0
vn 0.0 -0.0 1.0
vn 0.0 -0.0 1.0
vn 0.0 -0.0 1.0
vn 1.771069342106134e-15 1.3695620137617619e-16 1.0
vn -0.9970234036445618 -0.07709948718547821 0.0
vn 0.0 0.0 -1.0
vn 0.0 0.0 -1.0
vn -0.07709948718547821 0.9970234036445618 0.0
vn 0.0 -0.0 -1.0
vn -2.7475724400185565e-15 3.8682656389047235e-15 -1.0
vn -1.1925546270982745e-14 -5.026958429870613e-15 -1.0
vn 0.0 0.0 -1.0
vn -0.9970234036445618 -0.07709948718547821 0.0
vn -0.0 -0.0 -1.0
vn -0.0 -0.0 -1.0
f 1//1 2//1 3//1
f 4//2 5//2 3//2
f 3//3 6//3 7//3
f 7//4 8//4 9//4
f 9//5 10//5 11//5
f 12//6 11//6 10//6
f 8//7 10//7 9//7
f 9//8 3//8 7//8
f 13//9 8//9 7//9
f 14//10 13//10 7//10
f 7//11 6//11 14//11
f 15//12 13//12 14//12
f 14//13 16//13 15//13
f 15//14 16//14 17//14
f 18//15 17//15 16//15
f 16//16 6//16 18//16
f 19//17 17//17 18//17
f 20//18 19//18 18//18
f 18//19 6//19 20//19
f 21//20 19//20 20//20
f 22//21 21//21 20//21
f 20//22 1//22 22//22
f 23//23 21//23 22//23
f 22//24 24//24 23//24
f 23//25 24//25 25//25
f 26//26 25//26 24//26
f 24//27 1//27 26//27
f 27//28 25//28 26//28
f 28//29 27//29 26//29
f 26//30 1//30 28//30
f 29//31 27//31 28//31
f 30//32 29//32 28//32
f 28//33 1//33 30//33
f 31//34 29//34 30//34
f 30//35 32//35 31//35
f 31//36 32//36 33//36
f 34//37 33//37 32//37
f 32//38 3//38 34//38
f 35//39 33//39 34//39
f 36//40 35//40 34//40
f 34//41 3//41 36//41
f 37//42 35//42 36//42
f 38//43 37//43 36//43
f 36//44 3//44 38//44
f 38//45 11//45 12//45
f 12//46 37//46 38//46
f 38//47 3//47 11//47
f 11//48 3//48 9//48
f 30//49 3//49 32//49
f 1//50 3//50 30//50
f 39//51 6//51 3//51
f 3//52 5//52 40//52
f 40//53 41//53 42//53
f 42//54 43//54 44//54
f 45//55 44//55 43//55
f 41//56 43//56 42//56
f 42//57 3//57 40//57
f 46//58 41//58 40//58
f 47//59 46//59 40//59
f 40//60 5//60 47//60
f 47//61 48//61 49//61
f 49//62 48//62 50//62
f 51//63 50//63 48//63
f 48//64 5//64 51//64
f 52//65 50//65 51//65
f 53//66 52//66 51//66
f 51//67 5//67 53//67
f 54//68 52//68 53//68
f 55//69 54//69 53//69
f 53//70 5//70 55//70
f 56//71 54//71 55//71
f 55//72 57//72 56//72
f 56//73 57//73 58//73
f 59//74 58//74 57//74
f 57//75 6//75 59//75
f 60//76 58//76 59//76
f 61//77 60//77 59//77
f 59//78 6//78 61//78
f 62//79 60//79 61//79
f 63//80 62//80 61//80
f 61//81 6//81 63//81
f 64//82 62//82 63//82
f 63//83 65//83 64//83
f 64//84 65//84 66//84
f 67//85 66//85 65//85
f 65//86 6//86 67//86
f 68//87 66//87 67//87
f 39//88 68//88 67//88
f 67//89 6//89 39//89
f 69//90 68//90 39//90
f 70//91 69//91 39//91
f 39//92 3//92 70//92
f 45//93 69//93 70//93
f 70//94 44//94 45//94
f 45//95 2//95 69//95
f 69//96 2//96 68//96
f 68//97 2//97 66//97
f 66//98 2//98 64//98
f 64//99 2//99 62//99
f 62//100 2//100 60//100
f 60//101 2//101 58//101
f 58//102 71//102 56//102
f 56//103 71//103 54//103
f 54//104 71//104 52//104
f 52//105 71//105 50//105
f 50//106 4//106 49//106
f 49//107 46//107 47//107
f 47//108 5//108 48//108
f 71//109 5//109 4//109
f 71//110 4//110 50//110
f 4//111 2//111 45//111
f 43//112 4//112 45//112
f 41//113 4//113 43//113
f 46//114 4//114 41//114
f 49//115 4//115 46//115
f 3//116 2//116 4//116
f 1//117 72//117 2//117
f 2//118 71//118 58//118
f 33//119 71//119 2//119
f 2//120 72//120 25//120
f 25//121 72//121 23//121
f 23//122 72//122 21//122
f 21//123 72//123 19//123
f 19//124 72//124 17//124
f 17//125 72//125 15//125
f 15//126 71//126 13//126
f 13//127 71//127 8//127
f 8//128 71//128 10//128
f 10//129 71//129 12//129
f 12//130 71//130 37//130
f 37//131 71//131 35//131
f 35//132 71//132 33//132
f 33//133 2//133 31//133
f 31//134 2//134 29//134
f 29//135 2//135 27//135
f 27//136 2//136 25//136
f 72//137 71//137 15//137
f 72//138 5//138 71//138
f 5//139 6//139 55//139
f 55//140 6//140 57//140
f 6//141 72//141 1//141
f 6//142 1//142 20//142
f 22//143 1//143 24//143
f 14//144 6//144 16//144
f 63//145 6//145 65//145
f 6//146 5//146 72//146
f 44//147 3//147 42//147
f 70//148 3//148 44//148
