mtllib part_8.mtl
usemtl part_8

v 0.15 0.655 -0.5
v 0.15920236587524414 0.68 -0.5
v 0.15920236587524414 0.6567552947998047 -0.5
v 0.16368024826049804 0.6590750885009766 -0.5
v 0.15920236587524414 0.6567552947998047 1.4210854715202004e-16
v 0.16368024826049804 0.6590750885009766 8.659739592076221e-17
v 0.16767766952514648 0.6623223114013672 -0.5
v 0.16767766952514648 0.6623223114013672 1.4210854715202004e-16
v 0.1709248924255371 0.6663197326660156 -0.5
v 0.1709248924255371 0.6663197326660156 8.659739592076221e-17
v 0.1732447052001953 0.6707976531982422 -0.5
v 0.1732447052001953 0.6707976531982422 1.4210854715202004e-16
v 0.17500000000000002 0.68 -0.5
v 0.17500000000000002 0.68 1.4210854715202004e-16
v 0.1732447052001953 0.6892023468017578 -0.5
v 0.1732447052001953 0.6892023468017578 1.4210854715202004e-16
v 0.1709248924255371 0.6936802673339844 -0.5
v 0.1709248924255371 0.6936802673339844 8.659739592076221e-17
v 0.16767766952514648 0.6976776885986328 -0.5
v 0.16767766952514648 0.6976776885986328 1.4210854715202004e-16
v 0.16368024826049804 0.7009249114990235 -0.5
v 0.16368024826049804 0.7009249114990235 8.659739592076221e-17
v 0.15920236587524414 0.7032447052001953 -0.5
v 0.15920236587524414 0.7032447052001953 1.4210854715202004e-16
v 0.15 0.705 -0.5
v 0.15 0.705 1.4210854715202004e-16
v 0.14079763412475585 0.7032447052001953 -0.5
v 0.14079763412475585 0.7032447052001953 1.4210854715202004e-16
v 0.13631975173950195 0.7009249114990235 -0.5
v 0.13631975173950195 0.7009249114990235 8.659739592076221e-17
v 0.1323223304748535 0.6976776885986328 -0.5
v 0.1323223304748535 0.6976776885986328 1.4210854715202004e-16
v 0.1290751075744629 0.6936802673339844 -0.5
v 0.1290751075744629 0.6936802673339844 8.659739592076221e-17
v 0.12675529479980469 0.6892023468017578 -0.5
v 0.12675529479980469 0.6892023468017578 1.4210854715202004e-16
v 0.125 0.68 -0.5
v 0.125 0.68 1.4210854715202004e-16
v 0.12675529479980469 0.6707976531982422 -0.5
v 0.12675529479980469 0.6707976531982422 1.4210854715202004e-16
v 0.1290751075744629 0.6663197326660156 -0.5
v 0.1290751075744629 0.6663197326660156 8.659739592076221e-17
v 0.1323223304748535 0.6623223114013672 -0.5
v 0.1323223304748535 0.6623223114013672 1.4210854715202004e-16
v 0.13631975173950195 0.6590750885009766 -0.5
v 0.13631975173950195 0.6590750885009766 8.659739592076221e-17
v 0.14079763412475585 0.6567552947998047 -0.5
v 0.14079763412475585 0.6567552947998047 1.4210854715202004e-16
v 0.15 0.655 1.4210854715202004e-16
v 0.1511599063873291 0.6685587310791016 1.4210854715202004e-16
v 0.13631975173950195 0.6590750885009766 1.4210854715202004e-16
v 0.1290751075744629 0.6663197326660156 1.4210854715202004e-16
v 0.1709248924255371 0.6663197326660156 1.4210854715202004e-16
v 0.16368024826049804 0.6590750885009766 1.4210854715202004e-16
v 0.15 0.6892023468017578 1.4210854715202004e-16
v 0.1290751075744629 0.6936802673339844 1.4210854715202004e-16
v 0.13631975173950195 0.7009249114990235 1.4210854715202004e-16
v 0.16368024826049804 0.7009249114990235 1.4210854715202004e-16
v 0.1709248924255371 0.6936802673339844 1.4210854715202004e-16
v 0.1385586929321289 0.681159896850586 -0.5
vn 0.0 0.0 -1.0
vn 0.4599980413913727 -0.8879199624061584 -3.973007632520481e-13
vn 0.4599980413913727 -0.8879199624061584 6.536965520778732e-17
vn 0.6305118799209595 -0.7761795520782471 8.62018085056862e-17
vn 0.7761795520782471 -0.6305118799209595 -6.890051204841687e-17
vn 0.8879199624061584 -0.4599980413913727 -1.3589854839263118e-15
vn 0.9822902679443359 -0.1873655468225479 6.979591851789327e-17
vn 0.9822902679443359 0.1873655468225479 7.378712441399871e-13
vn 0.8879199624061584 0.4599980413913727 -0.0
vn 0.7761795520782471 0.6305118799209595 1.654526264181872e-16
vn 0.6305118799209595 0.7761795520782471 -4.480056519701501e-17
vn 0.4599980413913727 0.8879199624061584 -1.840141173185578e-15
vn 0.1873655468225479 0.9822902679443359 6.6565614444112415e-18
vn -0.1873655468225479 0.9822902679443359 7.377649381169749e-13
vn -0.4599980413913727 0.8879199624061584 2.360196162333228e-16
vn -0.6305118799209595 0.7761795520782471 1.9820322149822372e-16
vn -0.7761795520782471 0.6305118799209595 -5.515087767854403e-17
vn -0.8879199624061584 0.4599980413913727 -1.7873068578258804e-15
vn -0.9822902679443359 0.1873655468225479 -3.4897959258946637e-17
vn -0.9822902679443359 -0.1873655468225479 7.378529211232721e-13
vn -0.8879199624061584 -0.4599980413913727 -3.610354522324062e-17
vn -0.7761795520782471 -0.6305118799209595 -8.27263132090936e-17
vn -0.6305118799209595 -0.7761795520782471 1.7580293228227132e-16
vn -0.4599980413913727 -0.8879199624061584 -1.3354172156854346e-15
vn -0.1873655468225479 -0.9822902679443359 -1.3313122888822483e-17
vn 0.1873655468225479 -0.9822902679443359 7.377716059603356e-13
vn 0.0 0.0 1.0
vn 0.1873655468225479 -0.9822902679443359 1.3035964444058015e-17
vn 0.0 -0.0 1.0
vn -0.1873655468225479 -0.9822902679443359 3.160036192475222e-15
vn 0.0 -0.0 1.0
vn 0.0 -0.0 1.0
vn -0.6305118799209595 -0.7761795520782471 -6.790512922138486e-17
vn 0.0 -0.0 1.0
vn 0.0 -0.0 1.0
vn -0.8879199624061584 -0.4599980413913727 -3.973717513892916e-13
vn -0.0 0.0 1.0
vn 0.9822902679443359 0.1873655468225479 6.992017428078854e-17
vn -0.0 0.0 1.0
vn -0.0 0.0 1.0
vn 0.9822902679443359 -0.1873655468225479 2.973977570556053e-15
vn 0.0 0.0 1.0
vn 0.0 0.0 1.0
vn 0.7761795520782471 -0.6305118799209595 1.2934310564220149e-17
vn 0.0 0.0 1.0
vn 0.0 0.0 1.0
vn 0.8879199624061584 -0.4599980413913727 -4.953298128671664e-18
vn 0.0 -7.721303319483709e-15 -1.0
vn 0.0 0.0 -1.0
vn 0.8879199624061584 0.4599980413913727 -3.9727268241578073e-13
vn 0.0 0.0 1.0
vn 0.0 0.0 1.0
vn -0.9822902679443359 -0.1873655468225479 -3.496008714039427e-17
vn 0.0 -0.0 1.0
vn -0.9822902679443359 0.1873655468225479 2.8661346062610563e-15
vn 0.0 -0.0 1.0
vn -0.0 -0.0 1.0
vn -0.7761795520782471 0.6305118799209595 1.51978145407274e-16
vn -0.0 -0.0 1.0
vn -0.0 -0.0 1.0
vn -0.4599980413913727 0.8879199624061584 -3.9731670102398364e-13
vn -0.0 0.0 1.0
vn -0.1873655468225479 0.9822902679443359 -7.110526436386469e-18
vn -0.0 0.0 1.0
vn 0.1873655468225479 0.9822902679443359 2.601859903201241e-15
vn -0.0 0.0 1.0
vn -0.0 0.0 1.0
vn 0.6305118799209595 0.7761795520782471 1.3473240901738863e-16
vn -0.0 0.0 1.0
vn -0.0 0.0 1.0
vn 0.4599980413913727 0.8879199624061584 -3.3021989730292725e-17
vn -0.0 -0.0 -1.0
vn 0.0 0.0 -1.0
vn 0.0 0.0 -1.0
vn -0.0 0.0 -1.0
vn -0.0 0.0 -1.0
vn -0.6305118799209595 0.7761795520782471 1.983260942151348e-16
vn -0.0 -0.0 -1.0
vn -0.8879199624061584 0.4599980413913727 -6.274177519360026e-17
vn 6.714939451444375e-16 -7.849386559569821e-15 -1.0
vn 0.0 -0.0 -1.0
vn 0.0 -0.0 -1.0
vn -0.7761795520782471 -0.6305118799209595 -9.59294723616445e-17
vn 0.0 -0.0 -1.0
vn -0.4599980413913727 -0.8879199624061584 2.1959622972121315e-16
vn 0.0 0.0 -1.0
vn 0.0 -0.0 -1.0
vn 1.2440330544676546e-14 9.422983193155179e-15 -1.0
vn -0.0 -0.0 -1.0
vn 0.0 -0.0 -1.0
vn -0.0 0.0 -1.0
vn -0.0 0.0 -1.0
vn -0.0 0.0 -1.0
vn 0.7761795520782471 0.6305118799209595 0.0
vn -0.0 0.0 -1.0
vn 1.1540619771399554e-14 9.889089330403222e-15 -1.0
vn 1.0648681372446567e-14 9.12479202033788e-15 -1.0
vn -1.5142665496081092e-14 -3.2404943698272504e-15 -1.0
vn 0.6305118799209595 -0.7761795520782471 8.946231625235382e-17
vn 0.0 0.0 -1.0
f 1//1 2//1 3//1
f 3//2 4//2 5//2
f 5//3 4//3 6//3
f 6//4 7//4 8//4
f 8//5 9//5 10//5
f 10//6 11//6 12//6
f 12//7 13//7 14//7
f 14//8 15//8 16//8
f 16//9 17//9 18//9
f 18//10 19//10 20//10
f 20//11 21//11 22//11
f 22//12 23//12 24//12
f 24//13 25//13 26//13
f 26//14 27//14 28//14
f 28//15 29//15 30//15
f 30//16 31//16 32//16
f 32//17 33//17 34//17
f 34//18 35//18 36//18
f 36//19 37//19 38//19
f 38//20 39//20 40//20
f 40//21 41//21 42//21
f 42//22 43//22 44//22
f 44//23 45//23 46//23
f 46//24 47//24 48//24
f 48//25 1//25 49//25
f 49//26 3//26 5//26
f 5//27 50//27 49//27
f 1//28 3//28 49//28
f 49//29 50//29 48//29
f 47//30 1//30 48//30
f 48//31 50//31 51//31
f 51//32 50//32 44//32
f 43//33 45//33 44//33
f 44//34 50//34 52//34
f 52//35 50//35 40//35
f 39//36 41//36 40//36
f 38//37 40//37 14//37
f 13//38 15//38 14//38
f 40//39 50//39 14//39
f 14//40 50//40 12//40
f 11//41 13//41 12//41
f 12//42 50//42 53//42
f 53//43 50//43 8//43
f 7//44 9//44 8//44
f 8//45 50//45 54//45
f 54//46 50//46 5//46
f 9//47 11//47 10//47
f 11//48 2//48 13//48
f 13//49 2//49 15//49
f 15//50 17//50 16//50
f 16//51 55//51 14//51
f 14//52 55//52 38//52
f 37//53 39//53 38//53
f 38//54 55//54 36//54
f 35//55 37//55 36//55
f 36//56 55//56 56//56
f 56//57 55//57 32//57
f 31//58 33//58 32//58
f 32//59 55//59 57//59
f 57//60 55//60 28//60
f 27//61 29//61 28//61
f 28//62 55//62 26//62
f 25//63 27//63 26//63
f 26//64 55//64 24//64
f 23//65 25//65 24//65
f 24//66 55//66 58//66
f 58//67 55//67 20//67
f 19//68 21//68 20//68
f 20//69 55//69 59//69
f 59//70 55//70 16//70
f 21//71 23//71 22//71
f 23//72 2//72 25//72
f 1//73 47//73 25//73
f 47//74 60//74 25//74
f 25//75 60//75 27//75
f 27//76 60//76 29//76
f 29//77 31//77 30//77
f 31//78 60//78 33//78
f 33//79 35//79 34//79
f 35//80 60//80 37//80
f 37//81 60//81 39//81
f 39//82 60//82 41//82
f 41//83 43//83 42//83
f 43//84 60//84 45//84
f 45//85 47//85 46//85
f 45//86 60//86 47//86
f 41//87 60//87 43//87
f 33//88 60//88 35//88
f 29//89 60//89 31//89
f 25//90 2//90 1//90
f 21//91 2//91 23//91
f 19//92 2//92 21//92
f 17//93 2//93 19//93
f 17//94 19//94 18//94
f 15//95 2//95 17//95
f 9//96 2//96 11//96
f 7//97 2//97 9//97
f 4//98 2//98 7//98
f 4//99 7//99 6//99
f 3//100 2//100 4//100
