mtllib part_6.mtl
usemtl part_6

v -0.022366223335266115 0.081336088180542 -0.40291503906250004
v -0.01781714677810669 0.106336088180542 -0.40291503906250004
v -0.01781714677810669 0.08175345420837403 -0.40291503906250004
v -0.013163855075836181 0.08309137344360351 -0.40291503906250004
v -0.01781714677810669 0.08175345420837403 -0.10291502952575683
v -0.013163855075836181 0.08309137344360351 -0.10291502952575683
v -0.008685978651046753 0.08541119575500489 -0.40291503906250004
v -0.008685978651046753 0.08541119575500489 -0.10291502952575683
v -0.004688553214073181 0.0886584186553955 -0.40291503906250004
v -0.004688553214073181 0.0886584186553955 -0.10291502952575683
v -0.0014413349330425263 0.09265583992004395 -0.40291503906250004
v -0.0014413349330425263 0.09265583992004395 -0.10291502952575683
v 0.000878484770655632 0.09713371276855469 -0.40291503906250004
v -0.021697258949279787 0.09946036338806152 -0.10291502952575683
v -0.022366223335266115 0.081336088180542 -0.10291502952575683
v -0.026915299892425536 0.08175345420837403 -0.10291502952575683
v -0.026915299892425536 0.08175345420837403 -0.40291503906250004
v -0.03156859159469604 0.08309137344360351 -0.10291502952575683
v -0.03156859159469604 0.08309137344360351 -0.40291503906250004
v -0.03604646682739258 0.08541119575500489 -0.10291502952575683
v -0.03604646682739258 0.08541119575500489 -0.40291503906250004
v -0.0400438928604126 0.0886584186553955 -0.10291502952575683
v -0.02924194574356079 0.10700504302978515 -0.40291503906250004
v -0.022366223335266115 0.131336088180542 -0.40291503906250004
v -0.026915299892425536 0.13091872215270997 -0.40291503906250004
v -0.022366223335266115 0.131336088180542 -0.10291502952575683
v -0.026915299892425536 0.13091872215270997 -0.10291502952575683
v -0.03156859159469604 0.1295807933807373 -0.40291503906250004
v -0.03156859159469604 0.1295807933807373 -0.10291502952575683
v -0.03604646682739258 0.12726097106933593 -0.40291503906250004
v -0.03604646682739258 0.12726097106933593 -0.10291502952575683
v -0.0400438928604126 0.12401375770568848 -0.40291503906250004
v -0.0400438928604126 0.12401375770568848 -0.10291502952575683
v -0.043291110992431645 0.12001632690429688 -0.40291503906250004
v -0.043291110992431645 0.12001632690429688 -0.10291502952575683
v -0.04561092853546143 0.11553845405578614 -0.40291503906250004
v -0.022366223335266115 0.11088516235351563 -0.10291502952575683
v -0.01781714677810669 0.13091872215270997 -0.10291502952575683
v -0.01781714677810669 0.13091872215270997 -0.40291503906250004
v -0.013163855075836181 0.1295807933807373 -0.10291502952575683
v -0.013163855075836181 0.1295807933807373 -0.40291503906250004
v -0.008685978651046753 0.12726097106933593 -0.10291502952575683
v -0.008685978651046753 0.12726097106933593 -0.40291503906250004
v -0.004688553214073181 0.12401375770568848 -0.10291502952575683
v -0.04561092853546143 0.11553845405578614 -0.10291502952575683
v -0.04694885730743408 0.11088516235351563 -0.40291503906250004
v -0.04694885730743408 0.11088516235351563 -0.10291502952575683
v -0.04736622333526611 0.106336088180542 -0.40291503906250004
v -0.04694885730743408 0.1017870044708252 -0.40291503906250004
v -0.04736622333526611 0.106336088180542 -0.10291502952575683
v -0.04694885730743408 0.1017870044708252 -0.10291502952575683
v -0.04561092853546143 0.09713371276855469 -0.40291503906250004
v -0.04561092853546143 0.09713371276855469 -0.10291502952575683
v -0.043291110992431645 0.09265583992004395 -0.40291503906250004
v -0.043291110992431645 0.09265583992004395 -0.10291502952575683
v -0.0400438928604126 0.0886584186553955 -0.40291503906250004
v 0.0026337772607803347 0.106336088180542 -0.10291502952575683
v 0.0022164113819599152 0.1017870044708252 -0.10291502952575683
v 0.0026337772607803347 0.106336088180542 -0.40291503906250004
v 0.0022164113819599152 0.1017870044708252 -0.40291503906250004
v 0.000878484770655632 0.09713371276855469 -0.10291502952575683
v 0.0022164113819599152 0.11088516235351563 -0.40291503906250004
v 0.0022164113819599152 0.11088516235351563 -0.10291502952575683
v 0.000878484770655632 0.11553845405578614 -0.40291503906250004
v 0.000878484770655632 0.11553845405578614 -0.10291502952575683
v -0.0014413349330425263 0.12001632690429688 -0.40291503906250004
v -0.0014413349330425263 0.12001632690429688 -0.10291502952575683
v -0.004688553214073181 0.12401375770568848 -0.40291503906250004
vn -1.5884683298534805e-14 2.8904256053641783e-15 -1.0
vn 0.276327520608902 -0.9610635042190552 -1.5047744125275579e-16
vn 0.276327520608902 -0.9610635042190552 -2.0103751285374482e-16
vn 0.4599980413913727 -0.8879199624061584 -1.6433864574364978e-16
vn 0.6305118799209595 -0.7761795520782471 -8.42098450940952e-17
vn 0.7761795520782471 -0.6305118799209595 -2.224555184748456e-17
vn 0.8879199624061584 -0.4599980413913727 5.4941303198547596e-18
vn 0.7761795520782471 -0.6305118799209595 -4.670723305256199e-17
vn 5.861357351321023e-16 -7.215511571074433e-16 1.0
vn 0.6305118799209595 -0.7761795520782471 -1.2036094658511272e-16
vn 4.4265115966386163e-16 -8.544358034550661e-16 1.0
vn 0.4599980413913727 -0.8879199624061584 -1.6602721915889103e-16
vn 2.713465017271027e-16 -9.43739545875271e-16 1.0
vn 0.09136364609003067 -0.9958176016807556 -1.7013047174851747e-16
vn 9.022695539315294e-17 -9.83428227530937e-16 1.0
vn 0.09136364609003067 -0.9958176016807556 -1.688579106243863e-16
vn -0.09136364609003067 -0.9958176016807556 -1.8506016859770336e-16
vn -0.09136364609003067 -0.9958176016807556 2.6779902080609208e-14
vn -0.276327520608902 -0.9610635042190552 -1.7890010825390666e-16
vn -0.4599980413913727 -0.8879199624061584 -1.9858229521189962e-16
vn -0.6305118799209595 -0.7761795520782471 -1.9387790069262884e-16
vn -0.4599980413913727 -0.8879199624061584 -1.7153088190812485e-16
vn 1.56852121216541e-14 1.4452128026820892e-15 -1.0
vn -0.276327520608902 -0.9610635042190552 -2.865568025922638e-14
vn 0.0 0.0 -1.0
vn -0.09136364609003067 0.9958176016807556 1.6860475365227566e-16
vn -0.09136364609003067 0.9958176016807556 1.7013047174851747e-16
vn -0.276327520608902 0.9610635042190552 1.4208588584430743e-16
vn -0.4599980413913727 0.8879199624061584 2.533806582918756e-17
vn -0.6305118799209595 0.7761795520782471 1.0054338655679179e-16
vn -0.7761795520782471 0.6305118799209595 1.0337615589998579e-16
vn -0.8879199624061584 0.4599980413913727 5.637399987182414e-17
vn -0.7761795520782471 0.6305118799209595 6.467155447546197e-17
vn -0.0 -0.0 1.0
vn -0.6305118799209595 0.7761795520782471 8.982159884269378e-18
vn -0.0 -0.0 1.0
vn -0.4599980413913727 0.8879199624061584 1.1007329468934582e-16
vn -0.0 -0.0 1.0
vn -0.276327520608902 0.9610635042190552 1.4999972790539416e-16
vn -0.0 0.0 1.0
vn 0.09136364609003067 0.9958176016807556 1.8506016859770336e-16
vn 0.09136364609003067 0.9958176016807556 2.714856470057217e-14
vn 0.276327520608902 0.9610635042190552 1.993524599191906e-16
vn 0.4599980413913727 0.8879199624061584 2.4094370992328766e-16
vn 0.6305118799209595 0.7761795520782471 2.258367714298888e-16
vn 0.4599980413913727 0.8879199624061584 2.0547015538073478e-16
vn -0.0 0.0 -1.0
vn 0.276327520608902 0.9610635042190552 -2.8269694121426173e-14
vn -0.0 -0.0 -1.0
vn 0.0 0.0 -1.0
vn -0.0 0.0 -1.0
vn -0.0 0.0 -1.0
vn -0.0 -0.0 -1.0
vn -1.3964368127551002e-14 -4.69101499859419e-15 -1.0
vn 9.394350091406194e-15 1.0143720139842074e-14 -1.0
vn -0.0 -0.0 -1.0
vn -0.8879199624061584 0.4599980413913727 1.8345548701300663e-18
vn -0.9610635042190552 0.276327520608902 -2.4182638442877565e-17
vn 6.922679575714413e-15 1.3279253151460887e-14 -1.0
vn -0.9610635042190552 0.276327520608902 -2.8517146326637044e-14
vn -0.9958176016807556 0.09136364609003067 2.6865914888271093e-14
vn 5.784712516297534e-16 -1.5672567613817488e-14 -1.0
vn -0.9958176016807556 -0.09136364609003067 -9.923883008656706e-17
vn -0.9958176016807556 -0.09136364609003067 -9.38561871696722e-17
vn -0.9610635042190552 -0.276327520608902 -1.4653654105631635e-16
vn -0.8879199624061584 -0.4599980413913727 -1.615248419975404e-16
vn -0.7761795520782471 -0.6305118799209595 -1.6658573150848683e-16
vn -0.6305118799209595 -0.7761795520782471 -1.6706818294639716e-16
vn -6.54966214761138e-16 -5.320469639775213e-16 1.0
vn -0.7761795520782471 -0.6305118799209595 -1.9581109457605917e-16
vn -7.071760550804722e-16 -3.6636139026394936e-16 1.0
vn -0.8879199624061584 -0.4599980413913727 -1.5960627266734e-16
vn -7.226064013410446e-16 -2.0776570731202254e-16 1.0
vn -0.9610635042190552 -0.276327520608902 -1.0175140774080913e-16
vn -0.0 0.0 1.0
vn 0.9958176016807556 -0.09136364609003067 7.240384031826066e-17
vn 0.9958176016807556 -0.09136364609003067 2.698639516062265e-14
vn 0.9610635042190552 -0.276327520608902 2.5604009359207034e-17
vn 0.8879199624061584 -0.4599980413913727 -1.2841884711295924e-17
vn 0.0 0.0 -1.0
vn 0.9610635042190552 -0.276327520608902 -2.8467466150214685e-14
vn 0.0 0.0 -1.0
vn 0.9958176016807556 0.09136364609003067 1.0455519929278417e-16
vn 0.9958176016807556 0.09136364609003067 1.1308574089647613e-16
vn 0.9610635042190552 0.276327520608902 1.4698111423961665e-16
vn 0.8879199624061584 0.4599980413913727 1.5305362578738074e-16
vn 0.7761795520782471 0.6305118799209595 1.191983806301164e-16
vn 0.6305118799209595 0.7761795520782471 1.113787842193015e-16
vn 2.0584086464405654e-15 -2.7716501985772073e-15 1.0
vn 0.7761795520782471 0.6305118799209595 1.6167888287993247e-16
vn -7.195144663857704e-16 3.5942093993700155e-15 1.0
vn 0.8879199624061584 0.4599980413913727 1.605235564096572e-16
vn -0.0 0.0 1.0
vn 0.9610635042190552 0.276327520608902 1.3041378506603297e-16
vn 0.0 0.0 1.0
vn -3.509833218180903e-16 3.825540873528743e-15 1.0
vn 7.495110794215974e-16 -6.876567499112583e-17 1.0
vn 7.641984189687501e-16 -2.1972435668937517e-16 1.0
vn 7.469618278877171e-16 -3.869729311837579e-16 1.0
vn 6.889530411928024e-16 -5.59655420558124e-16 1.0
vn -5.613537216173688e-16 -6.910437302648628e-16 1.0
vn -4.2836939007976607e-16 -8.2686811033505e-16 1.0
vn -2.659119383375191e-16 -9.248382174155282e-16 1.0
vn -8.96179320866322e-17 -9.767902420815418e-16 1.0
vn 0.0 0.0 1.0
vn -0.9958176016807556 0.09136364609003067 -7.746704593492224e-17
vn 0.0 -0.0 -1.0
vn 0.0 -0.0 -1.0
vn 0.0 -0.0 -1.0
vn 0.0 -0.0 -1.0
vn 0.0 -0.0 -1.0
vn -1.3640979418618783e-14 4.298461814353921e-15 -1.0
vn 0.0 -0.0 1.0
vn -0.0 -0.0 1.0
vn -0.0 -0.0 1.0
vn -0.0 0.0 1.0
vn -0.0 0.0 1.0
vn -0.0 0.0 1.0
vn -0.0 0.0 1.0
vn 0.0 -0.0 1.0
vn -0.0 0.0 -1.0
vn -0.0 0.0 -1.0
vn -0.0 0.0 -1.0
vn -0.0 0.0 -1.0
vn 0.0 -0.0 -1.0
vn -0.0 0.0 -1.0
vn 0.0 0.0 -1.0
vn 0.0 0.0 -1.0
vn 0.0 0.0 -1.0
vn 0.0 0.0 -1.0
vn 0.0 0.0 -1.0
vn 1.4438618486586896e-14 2.8904256053641783e-15 -1.0
f 1//1 2//1 3//1
f 3//2 4//2 5//2
f 5//3 4//3 6//3
f 6//4 7//4 8//4
f 8//5 9//5 10//5
f 10//6 11//6 12//6
f 13//7 12//7 11//7
f 9//8 11//8 10//8
f 10//9 14//9 8//9
f 7//10 9//10 8//10
f 8//11 14//11 6//11
f 4//12 7//12 6//12
f 6//13 14//13 5//13
f 15//14 3//14 5//14
f 5//15 14//15 15//15
f 1//16 3//16 15//16
f 15//17 16//17 1//17
f 1//18 16//18 17//18
f 17//19 18//19 19//19
f 19//20 20//20 21//20
f 22//21 21//21 20//21
f 18//22 20//22 19//22
f 19//23 23//23 17//23
f 16//24 18//24 17//24
f 1//25 17//25 24//25
f 24//26 25//26 26//26
f 26//27 25//27 27//27
f 27//28 28//28 29//28
f 29//29 30//29 31//29
f 31//30 32//30 33//30
f 33//31 34//31 35//31
f 36//32 35//32 34//32
f 32//33 34//33 33//33
f 33//34 37//34 31//34
f 30//35 32//35 31//35
f 31//36 37//36 29//36
f 28//37 30//37 29//37
f 29//38 37//38 27//38
f 25//39 28//39 27//39
f 27//40 37//40 26//40
f 26//41 38//41 24//41
f 24//42 38//42 39//42
f 39//43 40//43 41//43
f 41//44 42//44 43//44
f 44//45 43//45 42//45
f 40//46 42//46 41//46
f 41//47 2//47 39//47
f 38//48 40//48 39//48
f 39//49 2//49 24//49
f 17//50 23//50 24//50
f 24//51 23//51 25//51
f 25//52 23//52 28//52
f 28//53 23//53 30//53
f 30//54 23//54 32//54
f 32//55 23//55 34//55
f 34//56 23//56 36//56
f 45//57 35//57 36//57
f 46//58 45//58 36//58
f 36//59 23//59 46//59
f 47//60 45//60 46//60
f 48//61 47//61 46//61
f 46//62 23//62 48//62
f 48//63 49//63 50//63
f 50//64 49//64 51//64
f 51//65 52//65 53//65
f 53//66 54//66 55//66
f 55//67 56//67 22//67
f 56//68 21//68 22//68
f 22//69 14//69 55//69
f 54//70 56//70 55//70
f 55//71 14//71 53//71
f 52//72 54//72 53//72
f 53//73 14//73 51//73
f 49//74 52//74 51//74
f 50//75 51//75 57//75
f 57//76 58//76 59//76
f 59//77 58//77 60//77
f 60//78 61//78 13//78
f 61//79 12//79 13//79
f 13//80 2//80 60//80
f 58//81 61//81 60//81
f 60//82 2//82 59//82
f 59//83 62//83 57//83
f 57//84 62//84 63//84
f 63//85 64//85 65//85
f 65//86 66//86 67//86
f 67//87 68//87 44//87
f 68//88 43//88 44//88
f 44//89 37//89 67//89
f 66//90 68//90 67//90
f 67//91 37//91 65//91
f 64//92 66//92 65//92
f 65//93 37//93 63//93
f 62//94 64//94 63//94
f 63//95 37//95 57//95
f 51//96 14//96 57//96
f 57//97 14//97 58//97
f 58//98 14//98 61//98
f 61//99 14//99 12//99
f 12//100 14//100 10//100
f 20//101 14//101 22//101
f 18//102 14//102 20//102
f 16//103 14//103 18//103
f 15//104 14//104 16//104
f 57//105 37//105 50//105
f 50//106 47//106 48//106
f 48//107 23//107 49//107
f 49//108 23//108 52//108
f 52//109 23//109 54//109
f 54//110 23//110 56//110
f 56//111 23//111 21//111
f 21//112 23//112 19//112
f 47//113 37//113 45//113
f 45//114 37//114 35//114
f 35//115 37//115 33//115
f 42//116 37//116 44//116
f 40//117 37//117 42//117
f 38//118 37//118 40//118
f 26//119 37//119 38//119
f 50//120 37//120 47//120
f 64//121 2//121 66//121
f 66//122 2//122 68//122
f 68//123 2//123 43//123
f 43//124 2//124 41//124
f 24//125 2//125 1//125
f 62//126 2//126 64//126
f 59//127 2//127 62//127
f 11//128 2//128 13//128
f 9//129 2//129 11//129
f 7//130 2//130 9//130
f 4//131 2//131 7//131
f 3//132 2//132 4//132
