mtllib part_5.mtl
usemtl part_5

v -0.3 0.195 -0.5
v -0.29079763412475584 0.22 -0.5
v -0.29079763412475584 0.1967552947998047 -0.5
v -0.28631975173950197 0.1990751075744629 -0.5
v -0.29079763412475584 0.1967552947998047 0.0
v -0.28631975173950197 0.1990751075744629 -5.551115123125783e-17
v -0.2823223304748535 0.2023223304748535 -0.5
v -0.2823223304748535 0.2023223304748535 0.0
v -0.2790751075744629 0.20631975173950196 -0.5
v -0.2790751075744629 0.20631975173950196 -5.551115123125783e-17
v -0.2767552947998047 0.21079763412475586 -0.5
v -0.2767552947998047 0.21079763412475586 0.0
v -0.275 0.22 -0.5
v -0.275 0.22 0.0
v -0.2767552947998047 0.22920236587524415 -0.5
v -0.2767552947998047 0.22920236587524415 0.0
v -0.2790751075744629 0.23368024826049805 -0.5
v -0.2790751075744629 0.23368024826049805 -5.551115123125783e-17
v -0.2823223304748535 0.2376776695251465 -0.5
v -0.2823223304748535 0.2376776695251465 0.0
v -0.28631975173950197 0.2409248924255371 -0.5
v -0.28631975173950197 0.2409248924255371 -5.551115123125783e-17
v -0.29079763412475584 0.2432447052001953 -0.5
v -0.29079763412475584 0.2432447052001953 0.0
v -0.3 0.245 -0.5
v -0.3 0.245 0.0
v -0.30920236587524413 0.2432447052001953 -0.5
v -0.30920236587524413 0.2432447052001953 0.0
v -0.31368024826049806 0.2409248924255371 -0.5
v -0.31368024826049806 0.2409248924255371 -5.551115123125783e-17
v -0.3176776695251465 0.2376776695251465 -0.5
v -0.3176776695251465 0.2376776695251465 0.0
v -0.3209248733520508 0.23368024826049805 -0.5
v -0.3209248733520508 0.23368024826049805 -5.551115123125783e-17
v -0.3232447052001953 0.22920236587524415 -0.5
v -0.3232447052001953 0.22920236587524415 0.0
v -0.325 0.22 -0.5
v -0.325 0.22 0.0
v -0.3232447052001953 0.21079763412475586 -0.5
v -0.3232447052001953 0.21079763412475586 0.0
v -0.3209248733520508 0.20631975173950196 -0.5
v -0.3209248733520508 0.20631975173950196 -5.551115123125783e-17
v -0.3176776695251465 0.2023223304748535 -0.5
v -0.3176776695251465 0.2023223304748535 0.0
v -0.31368024826049806 0.1990751075744629 -0.5
v -0.31368024826049806 0.1990751075744629 -5.551115123125783e-17
v -0.30920236587524413 0.1967552947998047 -0.5
v -0.30920236587524413 0.1967552947998047 0.0
v -0.3 0.195 0.0
v -0.2988400840759277 0.20855869293212892 0.0
v -0.31368024826049806 0.1990751075744629 0.0
v -0.3209248733520508 0.20631975173950196 0.0
v -0.2790751075744629 0.20631975173950196 0.0
v -0.28631975173950197 0.1990751075744629 0.0
v -0.3 0.22920236587524415 0.0
v -0.3209248733520508 0.23368024826049805 0.0
v -0.31368024826049806 0.2409248924255371 0.0
v -0.28631975173950197 0.2409248924255371 0.0
v -0.2790751075744629 0.23368024826049805 0.0
v -0.3114413070678711 0.22115991592407228 -0.5
vn 0.0 0.0 -1.0
vn 0.4599980413913727 -0.8879199624061584 -3.971741555433561e-13
vn 0.4599980413913727 -0.8879199624061584 9.577533221757892e-17
vn 0.6305118799209595 -0.7761795520782471 1.0350310827167797e-17
vn 0.7761795520782471 -0.6305118799209595 1.2065206122117218e-16
vn 0.8879199624061584 -0.4599980413913727 -1.585500093472241e-15
vn 0.9822902679443359 -0.1873655468225479 0.0
vn 0.9822902679443359 0.1873655468225479 7.378414285802437e-13
vn 0.8879199624061584 0.4599980413913727 2.8126533033134444e-17
vn 0.7761795520782471 0.6305118799209595 -1.2065206122117218e-16
vn 0.6305118799209595 0.7761795520782471 4.480056519701501e-17
vn 0.4599980413913727 0.8879199624061584 -1.5246887394526577e-15
vn 0.1873655468225479 0.9822902679443359 -0.0
vn -0.1873655468225479 0.9822902679443359 7.378414285802437e-13
vn -0.4599980413913727 0.8879199624061584 1.2618101584481543e-16
vn -0.6305118799209595 0.7761795520782471 -8.960113039403002e-17
vn -0.7761795520782471 0.6305118799209595 0.0
vn -0.8879199624061584 0.4599980413913727 -1.55509436352289e-15
vn -0.9822902679443359 0.1873655468225479 0.0
vn -0.9822902679443359 -0.1873655468225479 7.379245326767647e-13
vn -0.8879199624061584 -0.4599980413913727 3.268482760389366e-17
vn -0.7761795520782471 -0.6305118799209595 0.0
vn -0.6305118799209595 -0.7761795520782471 -4.480056519701501e-17
vn -0.4599980413913727 -0.8879199624061584 -1.6485906013946486e-15
vn -0.1873655468225479 -0.9822902679443359 0.0
vn 0.1873655468225479 -0.9822902679443359 7.379111969900432e-13
vn 0.0 0.0 1.0
vn 0.1873655468225479 -0.9822902679443359 0.0
vn 0.0 -0.0 1.0
vn -0.1873655468225479 -0.9822902679443359 2.7683647695330446e-15
vn 0.0 -0.0 1.0
vn 0.0 -0.0 1.0
vn -0.6305118799209595 -0.7761795520782471 0.0
vn 0.0 -0.0 1.0
vn 0.0 -0.0 1.0
vn -0.8879199624061584 -0.4599980413913727 -3.971417107933445e-13
vn -0.0 0.0 1.0
vn 0.9822902679443359 0.1873655468225479 0.0
vn -0.0 0.0 1.0
vn -0.0 0.0 1.0
vn 0.9822902679443359 -0.1873655468225479 2.837692510441678e-15
vn 0.0 0.0 1.0
vn 0.0 0.0 1.0
vn 0.7761795520782471 -0.6305118799209595 -9.700733336755418e-18
vn 0.0 0.0 1.0
vn 0.0 0.0 1.0
vn 0.8879199624061584 -0.4599980413913727 1.563040750177997e-16
vn 0.0 0.0 -1.0
vn 0.0 0.0 -1.0
vn 0.8879199624061584 0.4599980413913727 -3.9723747295022926e-13
vn 0.0 0.0 1.0
vn 0.0 0.0 1.0
vn -0.9822902679443359 -0.1873655468225479 0.0
vn 0.0 -0.0 1.0
vn -0.9822902679443359 0.1873655468225479 2.8939842025338305e-15
vn 0.0 -0.0 1.0
vn -0.0 -0.0 1.0
vn -0.7761795520782471 0.6305118799209595 -1.0994164062305188e-16
vn -0.0 -0.0 1.0
vn -0.0 -0.0 1.0
vn -0.4599980413913727 0.8879199624061584 -3.9723747295022926e-13
vn -0.0 -0.0 1.0
vn -0.1873655468225479 0.9822902679443359 0.0
vn -0.0 0.0 1.0
vn 0.1873655468225479 0.9822902679443359 2.9508683941725875e-15
vn -0.0 0.0 1.0
vn -0.0 0.0 1.0
vn 0.6305118799209595 0.7761795520782471 -7.868372273686934e-17
vn -0.0 0.0 1.0
vn -0.0 0.0 1.0
vn 0.4599980413913727 0.8879199624061584 3.3021989730292725e-17
vn -0.0 -0.0 -1.0
vn 7.721303319483709e-15 5.4863161347227745e-30 -1.0
vn 5.213671172983299e-15 4.783146878146159e-16 -1.0
vn -6.257877826127995e-16 3.280780527348086e-15 -1.0
vn -1.7591757289772626e-15 3.395682452467263e-15 -1.0
vn -0.6305118799209595 0.7761795520782471 1.0994164062305188e-16
vn 7.708012525508342e-15 1.151357824455846e-14 -1.0
vn -0.8879199624061584 0.4599980413913727 0.0
vn -5.327426003733657e-15 1.0161722978103017e-15 -1.0
vn -5.15635584157439e-15 -9.83541729945869e-16 -1.0
vn -2.32887964961943e-14 1.96706512162843e-14 -1.0
vn -0.7761795520782471 -0.6305118799209595 4.419223010476391e-17
vn 1.6422559384436652e-14 -1.6649051971125953e-15 -1.0
vn -0.4599980413913727 -0.8879199624061584 -3.247162345536934e-17
vn 0.0 0.0 -1.0
vn 3.298920373188247e-15 2.6798032397328713e-15 -1.0
vn -4.449262901601867e-15 2.304996242770527e-15 -1.0
vn -1.8951405047584573e-14 1.4481803826127946e-15 -1.0
vn 0.0 -0.0 -1.0
vn 1.5867851059806967e-14 0.0 -1.0
vn -1.2792758931172432e-14 6.133302467113818e-15 -1.0
vn 1.376027215077829e-14 -6.597162696502217e-15 -1.0
vn 0.7761795520782471 0.6305118799209595 -2.3712902425343402e-17
vn -7.763095078068289e-15 1.1846083569101978e-14 -1.0
vn 0.0 0.0 -1.0
vn -1.0648681372446567e-14 -9.12479202033788e-15 -1.0
vn 1.5142665496081092e-14 3.2404943698272504e-15 -1.0
vn 0.6305118799209595 -0.7761795520782471 9.91630471075674e-17
vn 0.0 0.0 -1.0
f 1//1 2//1 3//1
f 3//2 4//2 5//2
f 5//3 4//3 6//3
f 6//4 7//4 8//4
f 8//5 9//5 10//5
f 10//6 11//6 12//6
f 12//7 13//7 14//7
f 14//8 15//8 16//8
f 16//9 17//9 18//9
f 18//10 19//10 20//10
f 20//11 21//11 22//11
f 22//12 23//12 24//12
f 24//13 25//13 26//13
f 26//14 27//14 28//14
f 28//15 29//15 30//15
f 30//16 31//16 32//16
f 32//17 33//17 34//17
f 34//18 35//18 36//18
f 36//19 37//19 38//19
f 38//20 39//20 40//20
f 40//21 41//21 42//21
f 42//22 43//22 44//22
f 44//23 45//23 46//23
f 46//24 47//24 48//24
f 48//25 1//25 49//25
f 49//26 3//26 5//26
f 5//27 50//27 49//27
f 1//28 3//28 49//28
f 49//29 50//29 48//29
f 47//30 1//30 48//30
f 48//31 50//31 51//31
f 51//32 50//32 44//32
f 43//33 45//33 44//33
f 44//34 50//34 52//34
f 52//35 50//35 40//35
f 39//36 41//36 40//36
f 38//37 40//37 14//37
f 13//38 15//38 14//38
f 40//39 50//39 14//39
f 14//40 50//40 12//40
f 11//41 13//41 12//41
f 12//42 50//42 53//42
f 53//43 50//43 8//43
f 7//44 9//44 8//44
f 8//45 50//45 54//45
f 54//46 50//46 5//46
f 9//47 11//47 10//47
f 11//48 2//48 13//48
f 13//49 2//49 15//49
f 15//50 17//50 16//50
f 16//51 55//51 14//51
f 14//52 55//52 38//52
f 37//53 39//53 38//53
f 38//54 55//54 36//54
f 35//55 37//55 36//55
f 36//56 55//56 56//56
f 56//57 55//57 32//57
f 31//58 33//58 32//58
f 32//59 55//59 57//59
f 57//60 55//60 28//60
f 27//61 29//61 28//61
f 28//62 55//62 26//62
f 25//63 27//63 26//63
f 26//64 55//64 24//64
f 23//65 25//65 24//65
f 24//66 55//66 58//66
f 58//67 55//67 20//67
f 19//68 21//68 20//68
f 20//69 55//69 59//69
f 59//70 55//70 16//70
f 21//71 23//71 22//71
f 23//72 2//72 25//72
f 1//73 47//73 25//73
f 47//74 60//74 25//74
f 25//75 60//75 27//75
f 27//76 60//76 29//76
f 29//77 31//77 30//77
f 31//78 60//78 33//78
f 33//79 35//79 34//79
f 35//80 60//80 37//80
f 37//81 60//81 39//81
f 39//82 60//82 41//82
f 41//83 43//83 42//83
f 43//84 60//84 45//84
f 45//85 47//85 46//85
f 45//86 60//86 47//86
f 41//87 60//87 43//87
f 33//88 60//88 35//88
f 29//89 60//89 31//89
f 25//90 2//90 1//90
f 21//91 2//91 23//91
f 19//92 2//92 21//92
f 17//93 2//93 19//93
f 17//94 19//94 18//94
f 15//95 2//95 17//95
f 9//96 2//96 11//96
f 7//97 2//97 9//97
f 4//98 2//98 7//98
f 4//99 7//99 6//99
f 3//100 2//100 4//100
