v 0.85 -0.1 0.65
v -0.15 -0.1 0.65
v 0.85 0.1 0.65
v 0.85 -0.1 0.8
v 0.85 0.1 0.8
v -0.15 0.1 0.65
v -0.15 0.1 0.8
v -0.15 -0.1 0.8
v 0.01840473532676697 0.046489415168762205 0.8
v 0.02736048698425293 0.04184977531433105 0.65
v 0.02736048698425293 0.04184977531433105 0.8
v 0.03535533905029297 0.03535533905029297 0.65
v 0.03535533905029297 0.03535533905029297 0.8
v 0.04184977531433105 0.02736048698425293 0.65
v 0.04184977531433105 0.02736048698425293 0.8
v 0.046489415168762205 0.01840473532676697 0.65
v 0.046489415168762205 0.01840473532676697 0.8
v 0.05 0.0 0.65
v 0.05 0.0 0.8
v 0.01840473532676697 0.046489415168762205 0.65
v 0.0 0.05 0.8
v 2.1316282072803005e-16 0.05 0.8
v -0.01840473532676697 0.046489415168762205 0.8
v -1.7763568394002505e-17 0.05 0.65
v 0.05 2.220446049250313e-18 0.65
v 0.046489415168762205 -0.01840473532676697 0.65
v 0.04184977531433105 -0.02736048698425293 0.65
v 0.046489415168762205 -0.01840473532676697 0.8
v 0.04184977531433105 -0.02736048698425293 0.8
v 0.03535533905029297 -0.03535533905029297 0.65
v 0.03535533905029297 -0.03535533905029297 0.8
v 0.02736048698425293 -0.04184977531433105 0.65
v 0.02736048698425293 -0.04184977531433105 0.8
v 0.01840473532676697 -0.046489415168762205 0.65
v 0.01840473532676697 -0.046489415168762205 0.8
v -3.552713678800501e-17 -0.05 0.65
v -1.7763568394002505e-17 -0.05 0.8
v -0.01840473532676697 -0.046489415168762205 0.65
v -0.01840473532676697 -0.046489415168762205 0.8
v -0.02736048698425293 -0.04184977531433105 0.65
v -0.02736048698425293 -0.04184977531433105 0.8
v -0.03535533905029297 -0.03535533905029297 0.65
v -0.03535533905029297 -0.03535533905029297 0.8
v -0.04184977531433105 -0.02736048698425293 0.65
v -0.04184977531433105 -0.02736048698425293 0.8
v -0.046489415168762205 -0.01840473532676697 0.65
v -0.046489415168762205 -0.01840473532676697 0.8
v -0.05 0.0 0.65
v -0.05 0.0 0.8
v -0.046489415168762205 0.01840473532676697 0.65
v -0.046489415168762205 0.01840473532676697 0.8
v -0.04184977531433105 0.02736048698425293 0.65
v -0.04184977531433105 0.02736048698425293 0.8
v -0.03535533905029297 0.03535533905029297 0.65
v -0.03535533905029297 0.03535533905029297 0.8
v -0.02736048698425293 0.04184977531433105 0.65
v -0.02736048698425293 0.04184977531433105 0.8
v -0.01840473532676697 0.046489415168762205 0.65
v 2.3092638912203257e-16 -0.05 0.8
v 0.05 -1.7763568394002505e-17 0.8
v 0.05 -3.9968028886505634e-17 0.8
v -7.105427357601002e-17 -0.05 0.65
v -0.05 -1.1102230246251566e-18 0.65
v 0.05 -1.7763568394002505e-17 0.65
vn 0.0 0.0 -1.0
vn 1.0 -0.0 0.0
vn 0.0 1.0 -0.0
vn -1.0 -8.88178432935015e-17 1.1842379546963194e-16
vn 0.0 -1.0 0.0
vn 1.0 0.0 -0.0
vn 3.834821231196657e-16 1.2068678957200961e-15 1.0
vn -0.4599980413913727 -0.8879199624061584 1.0515084212571626e-16
vn -0.6305118799209595 -0.7761795520782471 5.600070980499121e-17
vn -0.7761795520782471 -0.6305118799209595 3.733380433084584e-17
vn -0.8879199624061584 -0.4599980413913727 1.0442198456828491e-14
vn -0.9822902679443359 -0.1873655468225479 0.0
vn -0.9822902679443359 -0.1873655468225479 -1.9265574649918876e-14
vn 1.9147721079676314e-16 9.919716003602909e-17 1.0
vn -0.8879199624061584 -0.4599980413913727 2.935287792208106e-17
vn 2.0166055852600956e-16 1.6381438528885857e-16 1.0
vn -0.7761795520782471 -0.6305118799209595 6.467155447546197e-17
vn 2.1929720062105278e-16 2.699616028583419e-16 1.0
vn -0.6305118799209595 -0.7761795520782471 8.622874150643092e-17
vn 2.5892936929726906e-16 4.998033313513063e-16 1.0
vn -0.4599980413913727 -0.8879199624061584 2.648099404686799e-12
vn -0.1873655468225479 -0.9822902679443359 -4.9191891879352134e-12
vn 0.0 0.0 1.0
vn 0.0 0.0 1.0
vn 0.1873655468225479 -0.9822902679443359 -2.2188539250944955e-17
vn -0.1873655468225479 -0.9822902679443359 1.9751461679933048e-17
vn -1.7531433720851543e-15 2.7245184054799573e-14 -1.0
vn 1.5818487461948644e-15 -1.993427836265594e-14 -1.0
vn 0.0 -0.0 -1.0
vn 0.0 -0.0 -1.0
vn 0.0 -0.0 -1.0
vn 9.887373241652085e-16 -7.909898593321668e-15 -1.0
vn -0.8879199624061584 0.4599980413913727 2.648099404686799e-12
vn -0.8879199624061584 0.4599980413913727 -3.895674261884223e-17
vn -0.7761795520782471 0.6305118799209595 6.462596689754295e-17
vn -0.6305118799209595 0.7761795520782471 1.866690216542292e-17
vn -0.4599980413913727 0.8879199624061584 1.0413062217508838e-14
vn -0.1873655468225479 0.9822902679443359 2.2188539250944955e-17
vn 0.1873655468225479 0.9822902679443359 -4.919322327961995e-12
vn 0.4599980413913727 0.8879199624061584 -4.085603202332524e-17
vn 0.6305118799209595 0.7761795520782471 -9.333451413583705e-17
vn 0.7761795520782471 0.6305118799209595 -4.5959064732120026e-17
vn 0.8879199624061584 0.4599980413913727 1.0284472451720268e-14
vn 0.9822902679443359 0.1873655468225479 -1.163265286573405e-16
vn 0.9822902679443359 -0.1873655468225479 -4.919355287708038e-12
vn 0.8879199624061584 -0.4599980413913727 -3.895674261884223e-17
vn 0.7761795520782471 -0.6305118799209595 -4.164643287712171e-17
vn 0.6305118799209595 -0.7761795520782471 -8.470925042584042e-17
vn 0.4599980413913727 -0.8879199624061584 1.0353677584609786e-14
vn 0.1873655468225479 -0.9822902679443359 -1.9301128010846928e-14
vn 0.0 0.0 1.0
vn 0.4599980413913727 -0.8879199624061584 -4.036020672927115e-17
vn 0.0 0.0 1.0
vn 0.6305118799209595 -0.7761795520782471 -4.311437075321546e-17
vn -0.0 0.0 1.0
vn 0.7761795520782471 -0.6305118799209595 -2.874291162966201e-17
vn -0.0 0.0 1.0
vn 0.8879199624061584 -0.4599980413913727 2.6479634457343693e-12
vn -0.0 0.0 1.0
vn 0.9822902679443359 -0.1873655468225479 -1.1455847972884515e-16
vn -0.0 0.0 1.0
vn 0.9822902679443359 0.1873655468225479 -1.9443338066427347e-14
vn -0.0 0.0 1.0
vn 0.8879199624061584 0.4599980413913727 -5.503664734467291e-17
vn -0.0 0.0 1.0
vn 0.7761795520782471 0.6305118799209595 -1.1497164651864803e-16
vn -0.0 0.0 1.0
vn 0.6305118799209595 0.7761795520782471 -5.748582325932402e-17
vn -0.0 0.0 1.0
vn 0.4599980413913727 0.8879199624061584 2.6479526037126444e-12
vn -0.0 0.0 1.0
vn -1.6921484236742538e-15 -3.1608694611370836e-14 1.0
vn -0.1873655468225479 0.9822902679443359 -1.9241872973988806e-14
vn 2.05715630822805e-15 2.6658356240810005e-14 1.0
vn -0.4599980413913727 0.8879199624061584 1.467643896104053e-17
vn 1.589182436861531e-16 -1.9563325736180517e-16 1.0
vn -0.6305118799209595 0.7761795520782471 6.467155447546197e-17
vn 1.638786274439519e-16 -1.3312309935716466e-16 1.0
vn -0.7761795520782471 0.6305118799209595 -2.155718537660773e-17
vn 1.680203009186702e-16 -8.704501656978805e-17 1.0
vn -0.9822902679443359 0.1873655468225479 -4.9191891879352134e-12
vn 1.7349896296107022e-16 -3.309381216851948e-17 1.0
vn 1.8197449374530495e-16 3.471046388386047e-17 1.0
vn 1.4210854397564648e-16 -4.2632563192693945e-16 1.0
vn 1.4210854397564648e-16 0.0 1.0
vn -1.0 0.0 0.0
vn -0.0 0.0 1.0
vn 0.0 -1.0 0.0
vn 1.239556591220534e-15 0.0 -1.0
vn 0.0 1.0 -0.0
vn 0.0 -2.842170985392048e-15 -1.0
vn -1.947708851772717e-15 3.0268881612326506e-14 -1.0
vn -0.0 0.0 -1.0
vn -0.0 0.0 -1.0
vn -4.911050017851861e-15 1.473314878300616e-14 -1.0
vn 0.1873655468225479 0.9822902679443359 -2.3701753685047412e-17
vn 7.582840537661943e-15 -1.5992300528549358e-14 -1.0
vn -6.5512882391118715e-15 1.3816744684404681e-14 -1.0
vn -4.825069380501312e-13 -4.0972856617943476e-13 -1.0
vn 0.0 0.0 -1.0
vn 0.0 0.0 -1.0
vn 0.0 0.0 -1.0
vn 0.0 0.0 -1.0
vn 0.0 0.0 -1.0
vn 0.0 0.0 -1.0
vn 0.0 0.0 -1.0
vn 5.255863154635457e-15 1.2925417843239612e-14 -1.0
vn 0.0 -0.0 -1.0
vn 0.0 -0.0 -1.0
vn -3.4141765698376134e-15 2.0548436541721615e-14 -1.0
vn -1.9147721079676314e-16 9.919716003602909e-17 -1.0
vn -0.9822902679443359 0.1873655468225479 0.0
f 1//1 2//1 3//1
f 4//2 3//2 5//2
f 5//3 6//3 7//3
f 7//4 2//4 8//4
f 8//5 1//5 4//5
f 1//6 3//6 4//6
f 4//7 7//7 9//7
f 9//8 10//8 11//8
f 11//9 12//9 13//9
f 13//10 14//10 15//10
f 15//11 16//11 17//11
f 17//12 18//12 19//12
f 16//13 18//13 17//13
f 17//14 4//14 15//14
f 14//15 16//15 15//15
f 15//16 4//16 13//16
f 12//17 14//17 13//17
f 13//18 4//18 11//18
f 10//19 12//19 11//19
f 11//20 4//20 9//20
f 20//21 10//21 9//21
f 21//22 20//22 9//22
f 9//23 7//23 22//23
f 22//24 7//24 23//24
f 23//25 24//25 21//25
f 24//26 20//26 21//26
f 20//27 3//27 10//27
f 10//28 3//28 12//28
f 12//29 3//29 14//29
f 14//30 3//30 16//30
f 16//31 3//31 25//31
f 25//32 3//32 26//32
f 26//33 27//33 28//33
f 28//34 27//34 29//34
f 29//35 30//35 31//35
f 31//36 32//36 33//36
f 33//37 34//37 35//37
f 35//38 36//38 37//38
f 37//39 38//39 39//39
f 39//40 40//40 41//40
f 41//41 42//41 43//41
f 43//42 44//42 45//42
f 45//43 46//43 47//43
f 47//44 48//44 49//44
f 49//45 50//45 51//45
f 51//46 52//46 53//46
f 53//47 54//47 55//47
f 55//48 56//48 57//48
f 57//49 58//49 23//49
f 58//50 24//50 23//50
f 23//51 7//51 57//51
f 56//52 58//52 57//52
f 57//53 7//53 55//53
f 54//54 56//54 55//54
f 55//55 8//55 53//55
f 52//56 54//56 53//56
f 53//57 8//57 51//57
f 50//58 52//58 51//58
f 51//59 8//59 49//59
f 48//60 50//60 49//60
f 49//61 8//61 47//61
f 46//62 48//62 47//62
f 47//63 8//63 45//63
f 44//64 46//64 45//64
f 45//65 8//65 43//65
f 42//66 44//66 43//66
f 43//67 8//67 41//67
f 40//68 42//68 41//68
f 41//69 8//69 39//69
f 38//70 40//70 39//70
f 39//71 8//71 59//71
f 59//72 4//72 35//72
f 34//73 36//73 35//73
f 35//74 4//74 33//74
f 32//75 34//75 33//75
f 33//76 4//76 31//76
f 30//77 32//77 31//77
f 31//78 4//78 29//78
f 27//79 30//79 29//79
f 29//80 4//80 28//80
f 60//81 26//81 28//81
f 28//82 4//82 61//82
f 61//83 4//83 17//83
f 8//84 4//84 59//84
f 5//85 7//85 4//85
f 6//86 2//86 7//86
f 7//87 8//87 55//87
f 2//88 1//88 8//88
f 42//89 2//89 6//89
f 3//90 6//90 5//90
f 6//91 3//91 24//91
f 24//92 3//92 20//92
f 3//93 2//93 34//93
f 34//94 2//94 62//94
f 62//95 2//95 38//95
f 36//96 38//96 37//96
f 38//97 2//97 40//97
f 40//98 2//98 42//98
f 42//99 6//99 44//99
f 44//100 6//100 46//100
f 46//101 6//101 63//101
f 63//102 6//102 50//102
f 50//103 6//103 52//103
f 52//104 6//104 54//104
f 54//105 6//105 56//105
f 56//106 6//106 58//106
f 58//107 6//107 24//107
f 32//108 3//108 34//108
f 30//109 3//109 32//109
f 27//110 3//110 30//110
f 26//111 3//111 27//111
f 64//112 26//112 60//112
