mtllib part_1.mtl
usemtl part_1

v -0.15 0.05 0.05
v -0.15 -0.05 0.05
v 0.15 0.05 0.05
v 0.15 -0.05 0.05
v 0.15 0.05 -0.05
v 0.15 -0.05 -0.05
v -0.15 -0.05 -0.05
v -0.15 0.05 -0.05
vn -0.0 0.0 1.0
vn 1.0 0.0 0.0
vn 1.0 0.0 0.0
vn -0.0 -1.0 -0.0
vn -1.0 0.0 0.0
vn -0.0 1.0 0.0
vn 0.0 0.0 -1.0
vn -0.0 1.0 0.0
vn 0.0 0.0 -1.0
vn -0.0 -1.0 -0.0
vn -1.0 0.0 -0.0
vn -0.0 0.0 1.0
f 1//1 2//1 3//1
f 3//2 4//2 5//2
f 5//3 4//3 6//3
f 6//4 2//4 7//4
f 7//5 1//5 8//5
f 8//6 3//6 5//6
f 6//7 8//7 5//7
f 1//8 3//8 8//8
f 7//9 8//9 6//9
f 4//10 2//10 6//10
f 2//11 1//11 7//11
f 3//12 2//12 4//12
